<svg version="1.1" id="Laag_1" focusable="false" xmlns="http://www.w3.org/2000/svg" xmlns:xlink="http://www.w3.org/1999/xlink"
	 x="0px" y="0px" viewBox="1024 464 512 512" enable-background="new 1024 464 512 512"
	 xml:space="preserve">
<path fill="#B7B7B7" d="M1536,820.571v128c0.037,15.11-12.181,27.391-27.291,27.428c-0.046,0-0.091,0-0.138,0h-128
	c-24.445,0-36.674-29.6-19.428-46.857l41.372-41.372L1280,765.257L1234.812,720l-122.606-122.628l-41.348,41.486
	C1053.6,656.115,1024,643.886,1024,619.43V491.429c-0.037-15.11,12.181-27.391,27.291-27.428c0.046,0,0.091,0,0.138,0h128
	c24.445,0,36.674,29.6,19.428,46.857l-41.372,41.372L1280,674.743L1325.19,720l122.606,122.628l41.348-41.372
	C1506.4,783.886,1536,796.115,1536,820.571z"/>
<path fill="#E8E9EB" d="M1280,765.257l-122.548,122.628l41.406,41.257c17.246,17.257,5.017,46.857-19.428,46.857h-128
	c-15.11,0.037-27.391-12.181-27.428-27.291c0-0.045,0-0.092,0-0.138V820.571c0-24.458,29.588-36.685,46.857-19.428l41.36,41.372
	L1234.812,720L1280,674.743l122.548-122.628l-41.406-41.257c-17.246-17.257-5.017-46.857,19.428-46.857h128
	c15.11-0.037,27.391,12.181,27.428,27.291c0,0.046,0,0.091,0,0.138v128c0,24.458-29.588,36.685-46.857,19.428l-41.359-41.372
	L1325.19,720L1280,765.257z"/>
</svg>
