<?xml version="1.0" encoding="utf-8"?>
<!-- Generator: Adobe Illustrator 17.0.0, SVG Export Plug-In . SVG Version: 6.00 Build 0)  -->
<!DOCTYPE svg PUBLIC "-//W3C//DTD SVG 1.1//EN" "http://www.w3.org/Graphics/SVG/1.1/DTD/svg11.dtd">
<svg version="1.1" id="Laag_1" xmlns="http://www.w3.org/2000/svg" xmlns:xlink="http://www.w3.org/1999/xlink" x="0px" y="0px"
	 width="512px" height="512px" viewBox="0 0 512 512" enable-background="new 0 0 512 512" xml:space="preserve">
<g>
	<path fill-rule="evenodd" clip-rule="evenodd" fill="#E33119" d="M244.002,1.595c0,0-3.313,31.625-6.625,38.226
		c-3.276,6.522-7.715,22.854-11.034,34.901c-3.212,11.968-8.725,28.373-9.853,37.084c-1.094,8.716-0.048,28.367-6.58,9.786
		C203.382,103.07,175.078,72.4,175.078,72.4s15.939,28.21,21.739,72.112c4.247,32.78-2.276,30.543-2.276,30.543l-16.32-16.375
		l1.019,12.047c0,0-0.03,17.42,1.097,9.75c1.125-7.61-1.157,24.021-7.649,3.294c-6.489-20.739-25.034-36.056-25.034-36.056
		s1.07,6.541,5.416,20.733c4.319,14.217,5.422,16.393,7.571,38.238c2.149,21.833-3.37,39.295-3.37,39.295l-12.987-38.244
		l-28.334-55.7l1.097,7.598c12.936,47.854,15.19,90.856,7.432,139.78l-16.323-37.174l-7.701,34.944l-19.5-83.041
		C33.428,326.792,79.33,504.997,240.885,510.304c114.046,3.784,210.498-98.586,207.891-244.158c0,0-40.517,78.519-38.389,71.996
		c2.242-6.528-0.967-62.246-0.967-62.246l-16.42,39.266l0.07-38.19c0.012-6.552-0.998-45.854-0.998-45.854l-8.771,14.193
		l-9.885,15.251l0.13-75.339c0.039-19.669-4.258-61.135-4.258-61.135c-0.027,10.832-11.908,59.648-30.68,71.725l-2.13-13.945
		l-7.644-16.399l-4.4,14.193l-7.589-27.273l-6.437-67.699l-10.95,26.155l-4.394,14.193l-4.364-3.307l-10.79-86.219l-3.288,11.974
		c0,0-3.276,9.816-4.379,24.009c-1.097,14.198-7.644,3.288-7.631-2.158C264.619,63.884,244.002,1.595,244.002,1.595z
		 M241.541,118.127c0,0,23.97,71.326,17.617,115.022c-6.32,43.696,23.262-57.006,24.169-64.096
		c12.243,29.558,18.402,56.311,20.364,88.226c-0.873,22.304,7.229-18.696,7.229-18.696l4.382-4.443c0,0,3.566,8.033,3.56,15.135
		c-0.009,7.175,1.735,11.624,1.735,11.624s17.931-23.133,17.94-27.612c0.009-4.448,10.533,68.606,6.891,98.073
		c-3.639,29.389,4.44,3.56,4.44,3.56l11.617-19.596c0,0,5.298,42.826,2.645,49.916c-2.745,7.156,0.861,12.482,0.861,12.482
		l22.28-25.822C359.44,499.835,273.508,514.45,223.038,502.313c-81.997-19.796-101.439-94.694-120.93-167.833
		c0,0,28.5,45.764,33.805,47.432c5.301,1.656-4.388-34.006-0.831-38.449c9.224,15.142,20.751,25.786,36.476,33.91
		c-14.885-34.079-19.53-66.502-14.909-103.392c1.698-8.928,20.397,41.019,26.595,45.473c3.917-47.032,12.343-86.382,27.872-130.961
		c6.655,10.693,9.967,21.319,10.632,33.904C232.813,186.673,238.745,155.417,241.541,118.127z"/>
	<path fill-rule="evenodd" clip-rule="evenodd" fill="#FFE50F" d="M223.456,266.962l22.434-74.825
		c-0.027,35.355-3.23,65.251-10.862,99.795c21.709-26.844,37.062-52.061,50.916-83.729c4.549,25.472,5.516,47.401,3.464,73.151
		l8-4.442l-4.455,24.879c16.913-13.304,30.228-21.882,39.256-40.009c0,0,3.488,57.085-8.175,85.603
		c-7.169,16.877,29.446-3.53,29.446-3.53c-0.04,18.714-3.331,34.557-10.814,51.681l22.31-6.201
		c-15.492,61.352-72.378,112.168-132.131,102.273c-53.8-8.946-77.065-53.845-100.472-98.248c0,0,26.702,8.088,31.997,14.338
		c5.368,6.244-1.747-24.093-6.232-25.834c-4.364-1.832,33.895,16.991,35.642,22.304c1.75,5.344-28.364-80.26-25.674-81.154
		c2.657-0.895,38.244,27.672,40.885,33.922c-9.777-44.125-9.496-83.487,1.125-127.425
		C212.805,226.851,223.456,266.962,223.456,266.962z"/>
</g>
</svg>
