<?xml version="1.0" encoding="utf-8"?>
<!-- Generator: Adobe Illustrator 17.0.0, SVG Export Plug-In . SVG Version: 6.00 Build 0)  -->
<!DOCTYPE svg PUBLIC "-//W3C//DTD SVG 1.1//EN" "http://www.w3.org/Graphics/SVG/1.1/DTD/svg11.dtd">
<svg version="1.1" id="Laag_1" xmlns="http://www.w3.org/2000/svg" xmlns:xlink="http://www.w3.org/1999/xlink" x="0px" y="0px"
	 viewBox="-6 -111.264 512 458.541" enable-background="new -6 -111.264 512 458.541"
	 xml:space="preserve">
<g>
	<g>
		<circle fill="#FBB82D" cx="276.727" cy="118.007" r="229.271"/>
	</g>
	<g>
		<g>
			<path fill="#2D323E" d="M427.322,208.264c-35.35,0-44.296-26.408-31.942-62.611c14.48-41.741,51.536-86.892,44.296-89.447
				c-5.111-1.703-28.963,9.369-56.221,39.185c-24.705,26.834-44.725,67.727-62.187,107.762c-1.279,2.985-4.264,5.54-8.096,1.279
				c-7.666-8.516-10.648-22.149-3.405-43.443c4.682-13.204,14.057-35.35,26.831-57.929c-11.496,7.666-24.705,11.501-39.609,10.648
				c-8.522,36.206-35.78,80.076-67.298,90.3c-15.336,5.111-37.053,4.687-53.665-17.891c-18.744-25.129-12.354-62.611,6.814-95.835
				c16.612-28.963,42.164-53.242,67.722-55.368c12.777-1.279,20.02,2.555,28.537,14.057c10.222,13.627,23.002,16.183,20.447,46.852
				c0,2.126,0,5.111-0.424,7.666c26.831-0.429,54.521-31.521,77.517-66.448c2.984-4.682,6.39-4.682,8.946-0.85
				c6.39,10.648,6.39,25.129,1.703,40.038c19.167-20.02,47.281-43.022,61.763-41.317c14.057,1.703,27.26,23.426,16.612,45.149
				c-9.369,19.165-29.392,49.833-39.614,71.98c-11.072,24.278-8.946,43.443,7.243,43.02c17.036-0.424,37.053-28.113,53.665-58.779
				c1.705-3.408,5.964-3.408,7.243,0c2.126,5.111,2.126,13.627-4.258,26.834C478.437,186.97,452.453,208.264,427.322,208.264z
				 M241.614,66.007c-11.925,9.793-23.849,24.705-33.221,40.464c-18.744,31.948-24.705,71.556-13.204,80.926
				c11.496,9.369,37.906-5.535,58.35-43.872c7.243-13.627,12.354-25.552,15.762-36.2C254.394,99.225,242.043,82.619,241.614,66.007z
				 M274.84,66.007c-2.132-13.633-11.077-11.077-12.777,1.279c-1.279,9.369,1.703,21.72,10.222,28.537
				C274.84,83.895,276.117,73.673,274.84,66.007z"/>
		</g>
	</g>
	<g>
		<g>
			<path fill="#FBB82D" d="M276.729,347.278c-126.422,0-229.273-102.851-229.273-229.271s102.851-229.271,229.273-229.271
				C403.149-111.264,506-8.415,506,118.007C506,244.427,403.149,347.278,276.729,347.278z M276.729-93.696
				C159.992-93.696,65.02,1.275,65.02,118.01c0,116.737,94.974,211.706,211.709,211.706s211.706-94.969,211.706-211.706
				C488.435,1.275,393.467-93.696,276.729-93.696z"/>
		</g>
	</g>
	<g>
		<path fill="none" d="M32.784,192.909c21.299-5.54,54.094-12.78,75.394-14.486c1.9-0.156,3.727-0.235,5.483-0.235
			c16.046,0,26.049,6.46,31.057,16.498c-5.007-10.041-15.011-16.504-31.06-16.504c-1.754,0-3.581,0.075-5.483,0.235
			c-21.296,1.708-54.085,8.944-75.384,14.483C32.789,192.904,32.786,192.907,32.784,192.909z"/>
		<path fill="none" d="M11.485,176.289c-6.814,10.225-5.537,14.48-2.132,23.002c0.818,2.246,2.522,5.276,4.396,8.337
			c-1.874-3.06-3.577-6.088-4.394-8.331c-3.403-8.522-4.682-12.78,2.132-23.002c35.35-51.962,119.779-138.55,182.819-181.569
			c-0.001-0.001-0.004-0.002-0.005-0.004C131.261,37.74,46.835,124.325,11.485,176.289z"/>
		<path fill="none" d="M236.042-22.588c-0.525-1.52-0.469-1.319-1.536-4.12C235.571-23.909,235.516-24.108,236.042-22.588z"/>
		<g>
			<path fill="none" d="M32.784,192.909c21.299-5.54,54.094-12.78,75.394-14.486c1.9-0.156,3.727-0.235,5.483-0.235
				c16.046,0,26.049,6.46,31.057,16.498c-5.007-10.041-15.011-16.504-31.06-16.504c-1.754,0-3.581,0.075-5.483,0.235
				c-21.296,1.708-54.085,8.944-75.384,14.483C32.789,192.904,32.786,192.907,32.784,192.909z"/>
			<path fill="none" d="M11.485,176.289c-6.814,10.225-5.537,14.48-2.132,23.002c0.818,2.246,2.522,5.276,4.396,8.337
				c-1.874-3.06-3.577-6.088-4.394-8.331c-3.403-8.522-4.682-12.78,2.132-23.002c35.35-51.962,119.779-138.55,182.819-181.569
				c-0.001-0.001-0.004-0.002-0.005-0.004C131.261,37.74,46.835,124.325,11.485,176.289z"/>
			<path fill="none" d="M236.042-22.588c-0.525-1.52-0.469-1.319-1.536-4.12C235.571-23.909,235.516-24.108,236.042-22.588z"/>
			<path fill="#2D323E" d="M242.461-21.336l-1.649-4.763c-0.71-2.056-0.71-2.056-1.258-3.481c-0.294-0.766-0.764-1.991-1.646-4.328
				c-5.146-13.638-18.226-15.624-28.734-17.219c-1.042-0.159-2.105-0.319-3.179-0.491c-38.133-6.131-70.214-9.593-72.233-9.606
				C23.92-61.936,64.397-5.278,94.033-20.514c25.73-13.228,64.482,8.979,80.126,14.573C110.096,40.916,33.019,121.96,0.41,169.891
				c-8.983,13.476-7.062,21.078-3.068,31.092c1.778,4.779,5.931,11.18,9.275,16.331c0.634,0.977,1.222,1.886,1.735,2.69
				c4.11,6.725,9.761,10.06,17.189,10.06c4.309,0,8.986-1.163,13.8-2.458c29.184-7.92,72.409-17.162,98.236-17.162
				c5.632,0,9.704-1.875,12.103-5.572c2.361-3.638,2.437-8.028,0.229-13.053c-6.417-15.4-20.644-23.882-40.068-23.882
				c-2.005,0-4.096,0.089-6.215,0.267c-13.857,1.109-32.579,4.52-50.025,8.333c53.447-59.602,125.089-125.691,178.11-163.662
				C240.003,7.004,248.63-3.723,242.461-21.336z M194.178-5.365 M108.175,178.418c1.902-0.159,3.729-0.235,5.483-0.235
				c16.049,0,26.053,6.462,31.06,16.504c-5.008-10.038-15.011-16.498-31.057-16.498c-1.757,0-3.584,0.078-5.483,0.235
				c-21.299,1.706-54.094,8.946-75.394,14.486c0.002-0.003,0.005-0.005,0.007-0.008C54.09,187.362,86.879,180.126,108.175,178.418z
				 M11.488,176.295c-6.814,10.222-5.535,14.48-2.132,23.002c0.817,2.243,2.52,5.272,4.394,8.331
				c-1.875-3.061-3.579-6.091-4.396-8.337c-3.405-8.522-4.682-12.777,2.132-23.002C46.835,124.325,131.261,37.74,194.301-5.278
				c0.001,0.001,0.004,0.002,0.005,0.004C131.266,37.745,46.838,124.332,11.488,176.295z M234.506-26.709
				c1.067,2.802,1.011,2.601,1.536,4.12C235.516-24.108,235.571-23.909,234.506-26.709z"/>
		</g>
	</g>
</g>
</svg>
