<?xml version="1.0" encoding="utf-8"?>
<!-- Generator: Adobe Illustrator 17.0.0, SVG Export Plug-In . SVG Version: 6.00 Build 0)  -->
<!DOCTYPE svg PUBLIC "-//W3C//DTD SVG 1.1//EN" "http://www.w3.org/Graphics/SVG/1.1/DTD/svg11.dtd">
<svg version="1.1" id="Laag_1" xmlns="http://www.w3.org/2000/svg" xmlns:xlink="http://www.w3.org/1999/xlink" x="0px" y="0px"
	 width="512px" height="512px" viewBox="0 0 512 512" enable-background="new 0 0 512 512" xml:space="preserve">
<path fill="#E8E9EB" d="M512,113.492H0V512h512l-0.697-179.946c0.234,0,0.464,0.015,0.697,0.017V113.492z"/>
<g>
	<path fill="#009D41" d="M464.302,357.204c-30.723,0-55.718,24.995-55.718,55.718V512H512V357.222
		c-0.233-0.003-0.463-0.018-0.697-0.018H464.302z"/>
	<path fill="#009D41" d="M0,113.492V512h383.433v-99.078c0-44.591,36.277-80.868,80.868-80.868h47.001
		c0.234,0,0.464,0.016,0.697,0.018V113.492H0z M215.73,446.993c-71.487,0-129.438-57.952-129.438-129.438
		s57.952-129.438,129.438-129.438s129.438,57.951,129.438,129.438S287.217,446.993,215.73,446.993z"/>
</g>
</svg>
