<?xml version="1.0" encoding="utf-8"?>
<!-- Generator: Adobe Illustrator 17.0.0, SVG Export Plug-In . SVG Version: 6.00 Build 0)  -->
<!DOCTYPE svg PUBLIC "-//W3C//DTD SVG 1.1//EN" "http://www.w3.org/Graphics/SVG/1.1/DTD/svg11.dtd">
<svg version="1.1" id="Laag_1" focusable="false" xmlns="http://www.w3.org/2000/svg" xmlns:xlink="http://www.w3.org/1999/xlink"
	 x="0px" y="0px" viewBox="1024 464 512 512" enable-background="new 1024 464 512 512"
	 xml:space="preserve">
<path fill="#B7B7B7" d="M1446.966,509.467l-98.027,76.243l-43.567,21.784l-16.338,16.338l-180.289-21.211l26.895-26.895
	c7.942-7.942,12.735-16.309,10.438-18.607s-10.665,2.496-18.607,10.438l-78.058,78.058l8.169,8.169l10.892-10.892l111.641,111.641
	l-32.676,32.676l-99.842-9.076L1024,801.731v14.523l47.198,47.198l5.446-5.446l10.892,10.892l32.675-32.676l1.815,1.815
	l-38.121,49.013l29.045,29.045l49.013-38.121l1.816,1.816l-32.676,32.675l10.892,10.892l-5.446,5.446L1183.746,976h14.523
	l23.599-23.599l-9.077-99.841l32.676-32.676l111.641,111.641l-10.892,10.892l8.169,8.169l78.058-78.058
	c7.942-7.942,12.735-16.309,10.438-18.607c-2.297-2.297-10.665,2.496-18.607,10.438l-26.895,26.895l-21.21-180.289l16.338-16.338
	l21.784-43.567l76.243-98.027c50.829-79.873,47.255-83.447,43.567-87.135C1530.413,462.212,1526.839,458.638,1446.966,509.467z"/>
</svg>
