<?xml version="1.0" encoding="utf-8"?>
<!-- Generator: Adobe Illustrator 17.0.0, SVG Export Plug-In . SVG Version: 6.00 Build 0)  -->
<!DOCTYPE svg PUBLIC "-//W3C//DTD SVG 1.1//EN" "http://www.w3.org/Graphics/SVG/1.1/DTD/svg11.dtd">
<svg version="1.1" id="Laag_1" focusable="false" xmlns="http://www.w3.org/2000/svg" xmlns:xlink="http://www.w3.org/1999/xlink"
	 x="0px" y="0px" viewBox="0 0 512 512" enable-background="new 0 0 512 512" xml:space="preserve">
<path fill="#00BFFF" d="M464,448H48c-26.51,0-48-21.49-48-48V112c0-26.51,21.49-48,48-48h416c26.51,0,48,21.49,48,48v288
	C512,426.51,490.51,448,464,448z"/>
<circle fill="#FBB92E" cx="112" cy="176" r="56"/>
<path fill="#2D323E" d="M64,384h384V272l-87.515-87.515c-4.686-4.686-12.284-4.686-16.971,0L208,320l-55.515-55.515
	c-4.686-4.686-12.284-4.686-16.971,0L64,336V384z"/>
</svg>
