<?xml version="1.0" encoding="utf-8"?>
<!-- Generator: Adobe Illustrator 17.0.0, SVG Export Plug-In . SVG Version: 6.00 Build 0)  -->
<!DOCTYPE svg PUBLIC "-//W3C//DTD SVG 1.1//EN" "http://www.w3.org/Graphics/SVG/1.1/DTD/svg11.dtd">
<svg version="1.1" id="Laag_1" xmlns="http://www.w3.org/2000/svg" xmlns:xlink="http://www.w3.org/1999/xlink" x="0px" y="0px"
	 viewBox="0 0 512 512" enable-background="new 0 0 512 512" xml:space="preserve">
<g>
	<defs>
		<rect id="SVGID_1_" y="33.156" width="512" height="445.687"/>
	</defs>
	<clipPath id="SVGID_2_">
		<use xlink:href="#SVGID_1_"  overflow="visible"/>
	</clipPath>
	<path clip-path="url(#SVGID_2_)" fill="#E8E9EB" d="M511.892,327.674c0,48.022-28.141,63.916-60.665,71.936L76.644,466.471
		c-50.96,12.258-76.536-21.049-76.084-56.439V93.924c0-33.506,27.166-60.665,60.665-60.665H451.22
		c33.5,0,60.665,27.16,60.665,60.665v233.75H511.892z"/>
</g>
<g>
	<defs>
		<rect id="SVGID_3_" y="33.156" width="512" height="445.687"/>
	</defs>
	<clipPath id="SVGID_4_">
		<use xlink:href="#SVGID_3_"  overflow="visible"/>
	</clipPath>
	<path clip-path="url(#SVGID_4_)" fill="none" stroke="#19325B" stroke-width="0.009" d="M511.892,327.674
		c0,48.022-28.141,63.916-60.665,71.936L76.644,466.471c-50.96,12.258-76.536-21.049-76.084-56.439V93.924
		c0-33.506,27.166-60.665,60.665-60.665H451.22c33.5,0,60.665,27.16,60.665,60.665v233.75H511.892z"/>
</g>
<g>
	<defs>
		<rect id="SVGID_5_" y="33.156" width="512" height="445.687"/>
	</defs>
	<clipPath id="SVGID_6_">
		<use xlink:href="#SVGID_5_"  overflow="visible"/>
	</clipPath>
	<path clip-path="url(#SVGID_6_)" fill="#FFFFFF" d="M374.919,165.324c-14.534-15.263-39.496-20.079-64.789-18.538
		c-6.244-5.045-13.92-8.977-21.524-11.373c-47.365-14.944-138.971,11.566-156.04,67.649c-3.57,11.74-1.264,21.326,4.383,28.201
		c-6.358,8.206-11.048,18.195-11.048,30.001c0,14.48,11.993,29.387,24.565,35.173c33.048,15.19,72.899,9.886,106.327-4.136
		c12.449-5.289,24.026-12.433,34.336-21.187c22.807-4.835,45.228-14.661,64.097-28.55
		C379.134,224.972,399.267,190.894,374.919,165.324"/>
</g>
<g>
	<defs>
		<rect id="SVGID_7_" y="33.156" width="512" height="445.687"/>
	</defs>
	<clipPath id="SVGID_8_">
		<use xlink:href="#SVGID_7_"  overflow="visible"/>
	</clipPath>
	<path clip-path="url(#SVGID_8_)" fill="none" stroke="#19325B" stroke-width="0.011" d="M374.919,165.324
		c-14.534-15.263-39.496-20.079-64.789-18.538c-6.244-5.045-13.92-8.977-21.524-11.373c-47.365-14.944-138.971,11.566-156.04,67.649
		c-3.57,11.74-1.264,21.326,4.383,28.201c-6.358,8.206-11.048,18.195-11.048,30.001c0,14.48,11.993,29.387,24.565,35.173
		c33.048,15.19,72.899,9.886,106.327-4.136c12.449-5.289,24.026-12.433,34.336-21.187c22.807-4.835,45.228-14.661,64.097-28.55
		C379.134,224.972,399.267,190.894,374.919,165.324L374.919,165.324z"/>
</g>
<g>
	<defs>
		<rect id="SVGID_9_" y="33.156" width="512" height="445.687"/>
	</defs>
	<clipPath id="SVGID_10_">
		<use xlink:href="#SVGID_9_"  overflow="visible"/>
	</clipPath>
</g>
<g>
	<defs>
		<rect id="SVGID_11_" y="33.156" width="512" height="445.687"/>
	</defs>
	<clipPath id="SVGID_12_">
		<use xlink:href="#SVGID_11_"  overflow="visible"/>
	</clipPath>
	<g clip-path="url(#SVGID_12_)">
		<g>
			<defs>
				<rect id="SVGID_13_" x="125.72" y="193.911" width="187.192" height="111.782"/>
			</defs>
			<clipPath id="SVGID_14_">
				<use xlink:href="#SVGID_13_"  overflow="visible"/>
			</clipPath>
			<g clip-path="url(#SVGID_14_)">
				<g>
					<defs>
						<path id="SVGID_15_" d="M162.651,208.812c-13.023,8.844-36.931,25.895-36.931,52.537c0,14.486,12.005,29.399,24.571,35.173
							c33.06,15.196,72.899,9.892,106.327-4.13c25.366-10.633,49.455-31.163,56.294-49.093l-110.331-49.382
							C202.575,193.917,175.692,199.968,162.651,208.812"/>
					</defs>
					<clipPath id="SVGID_16_">
						<use xlink:href="#SVGID_15_"  overflow="visible"/>
					</clipPath>
					
						<linearGradient id="SVGID_17_" gradientUnits="userSpaceOnUse" x1="-394.1021" y1="166.4062" x2="-393.1021" y2="166.4062" gradientTransform="matrix(56.3532 -97.6066 97.6066 56.3532 6152.0688 -47533.0742)">
						<stop  offset="0" style="stop-color:#02539E"/>
						<stop  offset="0.011" style="stop-color:#12569F"/>
						<stop  offset="0.134" style="stop-color:#5A73B1"/>
						<stop  offset="0.254" style="stop-color:#8693C4"/>
						<stop  offset="0.37" style="stop-color:#ACB4D7"/>
						<stop  offset="0.481" style="stop-color:#CDD1E7"/>
						<stop  offset="0.585" style="stop-color:#E6E7F3"/>
						<stop  offset="0.679" style="stop-color:#F6F7FB"/>
						<stop  offset="0.755" style="stop-color:#FFFFFF"/>
						<stop  offset="1" style="stop-color:#FFFFFF"/>
					</linearGradient>
					<path clip-path="url(#SVGID_16_)" fill="url(#SVGID_17_)" d="M74.712,282.266l97.807-169.406l191.4,110.505l-97.807,169.406
						L74.712,282.266z"/>
				</g>
			</g>
		</g>
		<g>
			<defs>
				<rect id="SVGID_18_" y="33.156" width="512" height="445.687"/>
			</defs>
			<clipPath id="SVGID_19_">
				<use xlink:href="#SVGID_18_"  overflow="visible"/>
			</clipPath>
			<g clip-path="url(#SVGID_19_)">
				<g>
					<defs>
						<rect id="SVGID_20_" x="186.517" y="146.467" width="199.534" height="128.056"/>
					</defs>
					<clipPath id="SVGID_21_">
						<use xlink:href="#SVGID_20_"  overflow="visible"/>
					</clipPath>
					<g clip-path="url(#SVGID_21_)">
						<g>
							<defs>
								<path id="SVGID_22_" d="M262.596,157.028l-76.078,100.143c0,0,15.208,11.102,57.571,16.37
									c36.986,4.612,79.221-7.424,111.228-30.977c23.908-17.599,44.036-51.676,19.694-77.252
									c-12.842-13.493-33.831-18.857-55.993-18.857C299.539,146.461,279.159,150.609,262.596,157.028"/>
							</defs>
							<clipPath id="SVGID_23_">
								<use xlink:href="#SVGID_22_"  overflow="visible"/>
							</clipPath>
							
								<linearGradient id="SVGID_24_" gradientUnits="userSpaceOnUse" x1="-368.0258" y1="165.8096" x2="-367.0248" y2="165.8096" gradientTransform="matrix(-139.4531 -74.1485 74.1485 -139.4531 -63258.5273 -3918.8362)">
								<stop  offset="0" style="stop-color:#02539E"/>
								<stop  offset="0.046" style="stop-color:#3460A6"/>
								<stop  offset="0.157" style="stop-color:#6F81BA"/>
								<stop  offset="0.262" style="stop-color:#9BA5CF"/>
								<stop  offset="0.359" style="stop-color:#C2C7E2"/>
								<stop  offset="0.446" style="stop-color:#E1E2F0"/>
								<stop  offset="0.519" style="stop-color:#F5F5FA"/>
								<stop  offset="0.571" style="stop-color:#FFFFFF"/>
								<stop  offset="1" style="stop-color:#FFFFFF"/>
							</linearGradient>
							<path clip-path="url(#SVGID_23_)" fill="url(#SVGID_24_)" d="M352.444,366.376L131.927,249.127L233.431,58.239
								l220.511,117.248L352.444,366.376z"/>
						</g>
					</g>
				</g>
				<g>
					<defs>
						<rect id="SVGID_25_" y="33.156" width="512" height="445.687"/>
					</defs>
					<clipPath id="SVGID_26_">
						<use xlink:href="#SVGID_25_"  overflow="visible"/>
					</clipPath>
					<g clip-path="url(#SVGID_26_)">
						<g>
							<defs>
								<rect id="SVGID_27_" x="173.807" y="131.126" width="154.059" height="77.06"/>
							</defs>
							<clipPath id="SVGID_28_">
								<use xlink:href="#SVGID_27_"  overflow="visible"/>
							</clipPath>
							<g clip-path="url(#SVGID_28_)">
								<g>
									<defs>
										<path id="SVGID_29_" d="M173.814,154.878l55.698,53.308l98.319-8.068c0,0,0.747-21.157-5.106-36.203
											c-5.858-15.04-19.742-23.89-34.204-28.593c-8.682-2.83-18.941-4.196-29.965-4.196
											C231.234,131.126,199.083,139.519,173.814,154.878"/>
									</defs>
									<clipPath id="SVGID_30_">
										<use xlink:href="#SVGID_29_"  overflow="visible"/>
									</clipPath>
									
										<linearGradient id="SVGID_31_" gradientUnits="userSpaceOnUse" x1="-377.8085" y1="196.3857" x2="-376.8085" y2="196.3857" gradientTransform="matrix(63.89 110.6607 -110.6607 63.89 46096.1211 29387.0898)">
										<stop  offset="0" style="stop-color:#02539E"/>
										<stop  offset="0.11" style="stop-color:#536FAF"/>
										<stop  offset="0.225" style="stop-color:#808FC2"/>
										<stop  offset="0.337" style="stop-color:#A8B0D5"/>
										<stop  offset="0.442" style="stop-color:#CACEE5"/>
										<stop  offset="0.539" style="stop-color:#E5E6F2"/>
										<stop  offset="0.626" style="stop-color:#F6F6FB"/>
										<stop  offset="0.693" style="stop-color:#FFFFFF"/>
										<stop  offset="1" style="stop-color:#FFFFFF"/>
									</linearGradient>
									<path clip-path="url(#SVGID_30_)" fill="url(#SVGID_31_)" d="M289.882,64.115l72.063,124.804l-149.441,86.284
										l-72.057-124.811L289.882,64.115z"/>
								</g>
							</g>
						</g>
						<g>
							<defs>
								<rect id="SVGID_32_" y="33.156" width="512" height="445.687"/>
							</defs>
							<clipPath id="SVGID_33_">
								<use xlink:href="#SVGID_32_"  overflow="visible"/>
							</clipPath>
							<g clip-path="url(#SVGID_33_)">
								<g>
									<defs>
										<rect id="SVGID_34_" x="130.771" y="154.938" width="98.741" height="87.626"/>
									</defs>
									<clipPath id="SVGID_35_">
										<use xlink:href="#SVGID_34_"  overflow="visible"/>
									</clipPath>
									<g clip-path="url(#SVGID_35_)">
										<g>
											<defs>
												<path id="SVGID_36_" d="M132.481,203.062c-1.064,3.406-1.64,6.945-1.71,10.512v0.698
													c0.084,7.357,2.758,13.511,7.117,18.219c4.829,5.232,11.71,8.694,19.411,10.073l72.219-34.288l-55.746-53.338
													C154.144,166.878,138.568,183.085,132.481,203.062"/>
											</defs>
											<clipPath id="SVGID_37_">
												<use xlink:href="#SVGID_36_"  overflow="visible"/>
											</clipPath>
											
												<linearGradient id="SVGID_38_" gradientUnits="userSpaceOnUse" x1="-377.9399" y1="206.9555" x2="-376.9399" y2="206.9555" gradientTransform="matrix(39.2467 70.8029 -70.8029 39.2467 29646.3379 18800.0488)">
												<stop  offset="0" style="stop-color:#02539E"/>
												<stop  offset="0.068" style="stop-color:#3F65A8"/>
												<stop  offset="0.186" style="stop-color:#7585BC"/>
												<stop  offset="0.299" style="stop-color:#9FA9D1"/>
												<stop  offset="0.404" style="stop-color:#C5C9E3"/>
												<stop  offset="0.499" style="stop-color:#E2E4F1"/>
												<stop  offset="0.58" style="stop-color:#F5F5FA"/>
												<stop  offset="0.638" style="stop-color:#FFFFFF"/>
												<stop  offset="1" style="stop-color:#FFFFFF"/>
											</linearGradient>
											<path clip-path="url(#SVGID_37_)" fill="url(#SVGID_38_)" d="M206.308,113.07l60.358,108.898l-112.685,62.465
												L93.617,175.529L206.308,113.07z"/>
										</g>
									</g>
								</g>
								<g>
									<defs>
										<rect id="SVGID_39_" y="33.156" width="512" height="445.687"/>
									</defs>
									<clipPath id="SVGID_40_">
										<use xlink:href="#SVGID_39_"  overflow="visible"/>
									</clipPath>
									<path clip-path="url(#SVGID_40_)" fill="#FAC411" d="M385.468,187.529c-2.974-10.819-20.802-14.992-39.827-9.32
										c-8.977,2.673-15.696,8.423-20.952,13.438l-68.185,3.895l-33.927-21.898c4.124-4.913,7.327-11.132,6.009-15.943
										c-2.974-10.813-20.808-14.986-39.839-9.32c-19.194,5.72-32.235,18.387-29.074,29.851
										c2.444,8.899,16.786,11.482,31.735,9.603l15.991,31.055l-24.842,38.069c-2.258,0.403-7.291,0.945-9.609,1.638
										c-19.038,5.66-32.049,19.02-29.074,29.833c2.896,10.56,21.199,14.865,39.839,9.314
										c19.02-5.654,32.043-19.026,29.074-29.833c-0.373-1.337-1.872-2.553-2.655-3.673l40.935-35.42l70.003-15.883
										c6.755,6.322,20.212,8.953,35.33,4.443C376.075,211.516,388.496,198.541,385.468,187.529"/>
								</g>
								<g>
									<defs>
										<rect id="SVGID_41_" y="33.156" width="512" height="445.687"/>
									</defs>
									<clipPath id="SVGID_42_">
										<use xlink:href="#SVGID_41_"  overflow="visible"/>
									</clipPath>
									<path clip-path="url(#SVGID_42_)" fill="none" stroke="#FAC411" stroke-width="0.009" d="M385.468,187.529
										c-2.974-10.819-20.802-14.992-39.827-9.32c-8.977,2.673-15.696,8.423-20.952,13.438l-68.185,3.895l-33.927-21.898
										c4.124-4.913,7.327-11.132,6.009-15.943c-2.974-10.813-20.808-14.986-39.839-9.32
										c-19.194,5.72-32.235,18.387-29.074,29.851c2.444,8.899,16.786,11.482,31.735,9.603l15.991,31.055l-24.842,38.069
										c-2.258,0.403-7.291,0.945-9.609,1.638c-19.038,5.66-32.049,19.02-29.074,29.833c2.896,10.56,21.199,14.865,39.839,9.314
										c19.02-5.654,32.043-19.026,29.074-29.833c-0.373-1.337-1.872-2.553-2.655-3.673l40.935-35.42l70.003-15.883
										c6.755,6.322,20.212,8.953,35.33,4.443C376.075,211.516,388.496,198.541,385.468,187.529L385.468,187.529z"/>
								</g>
							</g>
						</g>
					</g>
				</g>
			</g>
		</g>
	</g>
</g>
</svg>
