<?xml version="1.0" encoding="utf-8"?>
<!-- Generator: Adobe Illustrator 17.0.0, SVG Export Plug-In . SVG Version: 6.00 Build 0)  -->
<!DOCTYPE svg PUBLIC "-//W3C//DTD SVG 1.1//EN" "http://www.w3.org/Graphics/SVG/1.1/DTD/svg11.dtd">
<svg version="1.1" id="Laag_1" focusable="false" xmlns="http://www.w3.org/2000/svg" xmlns:xlink="http://www.w3.org/1999/xlink"
	 x="0px" y="0px" width="512px" height="512px" viewBox="0 0 512 512" enable-background="new 0 0 512 512" xml:space="preserve">
<path fill="#4285F4" d="M326.612,185.391c59.747,59.809,58.927,155.698,0.36,214.59c-0.11,0.12-0.24,0.25-0.36,0.37l-67.2,67.2
	c-59.27,59.27-155.699,59.262-214.96,0c-59.27-59.26-59.27-155.7,0-214.96l37.106-37.106c9.84-9.84,26.786-3.3,27.294,10.606
	c0.648,17.722,3.826,35.527,9.69,52.721c1.986,5.822,0.567,12.262-3.783,16.612l-13.087,13.087
	c-28.026,28.026-28.905,73.66-1.155,101.96c28.024,28.579,74.086,28.749,102.325,0.51l67.2-67.19
	c28.191-28.191,28.073-73.757,0-101.83c-3.701-3.694-7.429-6.564-10.341-8.569c-4.177-2.868-6.753-7.542-6.947-12.606
	c-0.396-10.567,3.348-21.456,11.698-29.806l21.054-21.055c5.521-5.521,14.182-6.199,20.584-1.731
	C313.422,173.314,320.289,179.068,326.612,185.391L326.612,185.391z"/>
<path fill="#BFBFBF" d="M467.547,44.449c-59.261-59.262-155.69-59.27-214.96,0l-67.2,67.2c-0.12,0.12-0.25,0.25-0.36,0.37
	c-58.566,58.892-59.387,154.781,0.36,214.59c6.323,6.323,13.19,12.077,20.521,17.196c6.402,4.468,15.064,3.789,20.584-1.731
	l21.054-21.055c8.35-8.35,12.094-19.239,11.698-29.806c-0.194-5.064-2.77-9.738-6.947-12.606c-2.912-2.005-6.64-4.875-10.341-8.569
	c-28.073-28.073-28.191-73.639,0-101.83l67.2-67.19c28.239-28.239,74.3-28.069,102.325,0.51c27.75,28.3,26.872,73.934-1.155,101.96
	l-13.087,13.087c-4.35,4.35-5.769,10.79-3.783,16.612c5.864,17.194,9.042,34.999,9.69,52.721
	c0.509,13.906,17.454,20.446,27.294,10.606l37.106-37.106C526.817,200.149,526.817,103.709,467.547,44.449L467.547,44.449z"/>
</svg>
