<?xml version="1.0" encoding="utf-8"?>
<!-- Generator: Adobe Illustrator 17.0.0, SVG Export Plug-In . SVG Version: 6.00 Build 0)  -->
<!DOCTYPE svg PUBLIC "-//W3C//DTD SVG 1.1//EN" "http://www.w3.org/Graphics/SVG/1.1/DTD/svg11.dtd">
<svg version="1.1" id="logo" xmlns="http://www.w3.org/2000/svg" xmlns:xlink="http://www.w3.org/1999/xlink" x="0px" y="0px"
	 viewBox="0 445.297 2560 538.609" enable-background="new 0 445.297 2560 538.609"
	 xml:space="preserve">
<title>Fonteyn Outdoor Living Mall</title>
<path fill="#E8E9EB" d="M941.234,593.134v230.481c0,25.364,14.108,37.495,36.898,37.495h26.045c0,0,0-43.008,0-134.539h80.307
	c14.108,0,30.386-11.028,30.386-30.878v-18.747h-113.949v-79.4h95.5c24.96,0,35.812-18.747,35.812-33.083c0,0,0-17.644,0-19.85
	H993.325C956.427,544.612,941.234,554.537,941.234,593.134z"/>
<path fill="#E8E9EB" d="M1270.058,606.367c-80.307,0-121.546,59.55-121.546,134.539c0,66.167,42.324,125.717,116.119,125.717
	c79.222,0,121.546-59.55,121.546-134.539C1386.178,665.917,1343.854,606.367,1270.058,606.367z M1268.973,811.484
	c-40.153,0-58.602-29.775-58.602-79.4c0-40.803,17.364-70.578,53.176-70.578c40.154,0,58.602,29.775,58.602,79.4
	C1322.149,781.709,1304.786,811.484,1268.973,811.484z"/>
<path fill="#E8E9EB" d="M1535.939,606.367c-75.966,0-110.693,54.036-110.693,106.97v106.969c0,23.158,17.364,40.803,42.324,40.803
	h18.449V716.645c0-35.289,18.449-56.242,44.494-56.242c31.472,0,49.921,18.747,49.921,60.653v99.25
	c0,23.158,17.364,40.803,44.494,40.803h16.278V716.645C1641.207,646.067,1593.457,606.367,1535.939,606.367z"/>
<path fill="#E8E9EB" d="M1751.9,555.64h-14.108c-9.767,0-20.619,7.719-28.216,17.644c-14.108,14.336-18.449,24.261-18.449,48.522
	v149.978c0,58.447,30.386,92.633,92.245,92.633c35.813,0,53.176-16.542,53.176-41.906v-22.056h-2.17
	c-9.767,5.514-24.96,8.822-44.494,8.822c-24.96,0-39.068-12.131-39.068-45.214V667.02h48.835c24.96,0,36.898-16.542,36.898-29.775
	v-25.364H1751.9V555.64z"/>
<path fill="#E8E9EB" d="M2079.639,702.309c0-59.55-47.75-97.044-97.671-97.044c-70.54,0-120.46,51.831-120.46,135.642
	c0,76.092,59.688,125.717,120.46,125.717c67.284,0,88.989-24.261,88.989-56.242v-19.85h-2.171
	c-19.534,18.747-49.92,23.158-74.881,23.158c-35.812,0-64.028-19.85-68.369-51.831h40.154
	C2044.912,762.962,2079.639,748.626,2079.639,702.309z M1924.451,719.954v-8.822c1.085-28.672,21.705-52.933,51.006-52.933
	c28.216,0,46.665,12.131,46.665,37.495c0,17.644-13.023,24.261-70.54,24.261H1924.451z"/>
<path fill="#E8E9EB" d="M2291.259,612.984h-26.045c-5.426,50.728-28.216,125.717-47.75,173.136
	c-21.705-44.111-40.154-95.942-48.835-143.361c-3.256-17.644-18.449-28.672-35.812-28.672h-32.557
	c8.682,58.447,54.261,183.061,86.818,231.584c-13.023,35.289-20.619,44.111-43.409,46.317l-34.727,2.206v12.131
	c0,23.158,19.534,38.597,42.324,38.597c44.495-2.206,68.37-28.672,113.949-136.745c10.852-26.467,54.261-140.053,54.261-166.52
	C2319.475,621.806,2310.793,612.984,2291.259,612.984z"/>
<path fill="#E8E9EB" d="M2452.958,606.367c-75.966,0-110.693,54.036-110.693,106.97v106.969c0,23.158,16.278,40.803,42.324,40.803
	h18.449V716.645c0-35.289,18.449-56.242,44.494-56.242c31.472,0,49.921,18.747,49.921,60.653v99.25
	c0,23.158,17.363,40.803,44.494,40.803h16.278V716.645C2558.225,646.067,2510.475,606.367,2452.958,606.367z"/>
<g>
	<path fill="#144734" d="M435.908,963.356c7.609-16.223,16.306-31.365,23.915-45.425h-11.958
		C438.082,946.052,435.908,963.356,435.908,963.356z"/>
	<path fill="#144734" d="M752.241,682.155c-7.609-14.06-19.567-21.631-36.96-21.631c-33.699,0-85.877,28.12-155.449,87.605
		c-65.223,56.24-97.835,125.459-111.966,169.802h11.958C527.221,803.288,590.27,785.983,640.274,769.76
		c45.656-15.142,116.315-36.772,116.315-72.463C756.589,691.889,755.502,687.563,752.241,682.155z"/>
</g>
<g>
	<path fill="#144734" d="M308.723,917.932h-11.958c7.609,14.06,16.306,29.202,23.915,45.425
		C320.681,963.356,318.507,944.97,308.723,917.932z"/>
	<path fill="#144734" d="M308.723,917.931c-15.219-44.343-46.743-113.562-111.966-170.884
		c-70.658-59.485-121.75-87.605-155.449-87.605c-17.393,0-29.35,7.571-36.96,21.631C1.087,686.481,0,691.889,0,696.215
		c0,35.691,70.658,57.322,117.402,72.463c48.917,17.305,111.966,33.528,179.364,149.253H308.723z"/>
</g>
<path fill="#144734" d="M405.471,911.442c64.136-216.309,193.495-222.798,211.975-294.18c1.087-3.245,1.087-6.489,1.087-9.734
	c0-18.386-11.958-43.262-42.395-46.506c-3.261,0-6.522,0-8.696,0c-28.263,0-50.004,20.549-107.618,129.785
	c-40.221,76.79-70.658,227.124-70.658,227.124c-2.174,10.815-4.348,19.468-5.435,27.039c0-8.652,18.48-201.167,31.525-273.631
	c11.958-70.3,32.612-115.725,32.612-155.742c0-38.936-31.525-70.3-70.658-70.3s-70.658,31.365-70.658,70.3
	c0,40.017,19.567,85.442,32.612,155.742c13.045,72.463,33.699,246.592,33.699,246.592c1.087,9.734,1.087,19.468,2.174,27.039
	c-2.174-7.571-39.134-177.373-79.355-253.081c-56.527-109.236-78.268-129.785-107.618-129.785c-3.261,0-5.435,0-8.696,0
	c-30.438,3.245-42.395,28.12-42.395,46.506c0,3.245,0,6.489,1.087,9.734c18.48,71.382,146.752,77.871,211.975,294.18
	c0,2.163,1.087,3.245,1.087,5.408c11.958,38.936,19.567,56.24,22.828,62.73c1.087,2.163,2.174,3.245,4.348,3.245
	c2.174,0,3.261-1.082,6.522-3.245C389.165,974.172,404.373,916.713,405.471,911.442z"/>
</svg>
