<?xml version="1.0" encoding="utf-8"?>
<!-- Generator: Adobe Illustrator 17.0.0, SVG Export Plug-In . SVG Version: 6.00 Build 0)  -->
<!DOCTYPE svg PUBLIC "-//W3C//DTD SVG 1.1//EN" "http://www.w3.org/Graphics/SVG/1.1/DTD/svg11.dtd">
<svg version="1.1" id="Layer_1" xmlns="http://www.w3.org/2000/svg" xmlns:xlink="http://www.w3.org/1999/xlink" x="0px" y="0px"
	 width="512px" height="116.359px" viewBox="0 198.326 512 116.359" enable-background="new 0 198.326 512 116.359"
	 xml:space="preserve">
<path fill="#E8E9EB" d="M156.865,265.425v-18.626c0-2.244-0.785-3.703-2.581-4.488c-1.683-0.673-4.264-1.346-7.742-1.346h-7.967
	v29.735h7.63c4.039,0,6.845-0.224,8.528-0.785C156.08,269.24,156.865,267.67,156.865,265.425 M167.413,247.023v18.514
	c0,5.049-1.571,8.752-4.488,10.435c-3.03,1.795-8.64,2.693-16.27,2.693h-18.739V233.11h18.626c7.406,0,12.792,0.785,16.046,2.917
	C165.842,237.935,167.413,241.638,167.413,247.023 M186.039,278.554h-9.986v-33.774h9.986V278.554z M186.039,240.74h-9.986v-8.079
	h9.986V240.74z M216.672,252.409h-3.478c-2.693,0-4.713,0.337-6.171,1.346c-1.459,0.785-2.132,2.356-2.132,4.376v20.422h-9.986
	v-33.774h9.425v5.835c0-1.683,1.01-3.142,2.693-4.488c1.795-1.346,3.815-2.132,5.61-2.132h3.591L216.672,252.409z M243.152,258.581
	v-4.825c0-1.01-0.337-1.795-1.346-2.469c-0.673-0.449-2.356-0.785-4.376-0.785c-2.356,0-4.039,0.224-4.825,0.785
	c-0.673,0.449-1.346,1.459-1.346,2.469v4.825H243.152z M252.69,264.303h-21.207v3.03c0,1.908,0.561,3.254,1.908,4.152
	c1.346,1.01,3.815,1.346,7.293,1.346c3.254,0,6.957-0.449,11.108-1.459v6.62c-4.152,0.785-8.64,1.346-12.792,1.346
	c-11.67,0-17.28-3.703-17.28-11.108v-12.118c0-4.264,1.346-7.406,4.039-9.313c2.693-1.795,6.845-2.693,12.231-2.693
	c5.049,0,8.977,0.785,11.333,2.581c2.469,1.683,3.703,4.825,3.703,9.425L252.69,264.303z M287.474,278.105
	c-3.927,0.673-7.63,1.122-11.221,1.122c-1.683,0-3.03,0-4.039-0.112c-1.01,0-2.244-0.112-3.815-0.337
	c-1.571-0.224-2.693-0.449-3.703-1.01c-0.785-0.449-1.795-1.234-2.693-1.908c-0.785-0.673-1.571-1.908-2.132-3.254
	c-0.337-1.346-0.561-3.03-0.561-4.825v-11.445c0-1.683,0.112-3.142,0.449-4.376c0.337-1.346,0.785-2.356,1.459-3.142
	c0.449-0.785,1.346-1.571,2.356-2.244c1.01-0.561,1.908-1.01,2.693-1.346c0.785-0.224,1.908-0.449,3.366-0.673
	c1.459-0.112,2.469-0.224,3.366-0.224c0.785,0,2.132,0,3.703,0c2.469,0,5.61,0.337,9.986,1.346v6.732
	c-4.713-1.234-8.079-1.683-10.884-1.683c-4.488,0-6.845,1.571-6.845,4.713v12.118c0,3.478,2.469,5.274,7.406,5.274
	c2.356,0,5.723-0.449,10.547-1.571L287.474,278.105z M315.189,278.89c-1.908,0.224-3.815,0.337-5.386,0.337s-2.917,0-4.039-0.112
	s-2.356-0.337-3.591-0.673c-1.122-0.337-2.244-1.01-3.03-1.683c-0.673-0.673-1.459-1.683-1.908-3.03
	c-0.449-1.346-0.673-2.917-0.673-4.713v-17.953h-6.732v-6.284h6.732v-9.986h9.986v9.762h9.089v6.284h-9.089v15.933
	c0,2.356,0.337,3.927,1.01,4.713c0.673,0.785,2.244,1.122,4.376,1.122c0.673,0,1.908-0.112,3.591-0.337L315.189,278.89z"/>
<path fill="#E8E9EB" d="M348.739,260.6l-5.049-15.933h-0.224l-5.162,15.933H348.739z M364.785,278.554h-10.211l-3.703-11.221
	h-15.148l-3.703,11.221h-9.65l15.26-42.414h12.006L364.785,278.554z M390.48,269.016v-12.792c0-1.571-0.337-2.693-1.234-3.254
	c-0.785-0.561-2.581-0.785-5.162-0.785c-2.805,0-4.488,0.224-5.162,0.785c-0.561,0.561-0.898,1.795-0.898,3.703v12.006
	c0,1.683,0.337,2.917,0.898,3.591c0.561,0.673,2.244,0.898,4.713,0.898c3.03,0,4.825-0.224,5.723-0.785
	C389.919,271.709,390.48,270.699,390.48,269.016 M399.569,278.554h-8.977v-3.591c-0.673,1.234-1.346,2.132-1.908,2.581
	s-1.459,0.898-2.693,1.234c-1.234,0.224-2.805,0.337-4.937,0.337c-5.162,0-8.752-0.673-10.435-2.132
	c-1.571-1.346-2.469-4.264-2.469-8.977v-12.231c0-3.591,0.898-6.059,2.917-7.406c1.908-1.346,4.937-2.132,9.313-2.132
	c3.03,0,5.049,0.224,6.396,0.785s2.356,1.683,3.478,3.366v-17.504h9.313V278.554z M455.672,278.554h-9.313v-21.88
	c0-1.908-0.224-3.142-0.561-3.703c-0.449-0.449-1.683-0.785-3.703-0.785c-2.581,0-4.039,0.224-4.6,0.785
	c-0.561,0.449-0.785,1.683-0.785,3.703v21.88h-9.313v-21.88c0-1.908-0.224-3.142-0.561-3.703c-0.449-0.449-1.683-0.785-3.703-0.785
	c-2.581,0-4.039,0.224-4.6,0.785c-0.561,0.449-0.785,1.683-0.785,3.703v21.88h-9.313v-31.642h9.313v3.815
	c0.561-2.917,3.703-4.488,9.089-4.488c2.917,0,5.049,0.337,6.62,1.234c1.459,0.673,2.469,1.908,2.917,3.591
	c0.449-1.571,1.459-2.805,2.917-3.591c1.459-0.673,3.703-1.122,6.732-1.122c4.039,0,6.732,0.673,8.079,2.244
	c1.346,1.459,1.908,3.815,1.908,6.845L455.672,278.554z M473.513,278.554H464.2v-31.642h9.313V278.554z M473.513,243.208H464.2
	v-7.742h9.313V243.208z M511.663,278.554h-9.313v-21.88c0-1.683-0.224-2.917-0.785-3.591c-0.561-0.561-1.908-0.785-4.039-0.785
	c-2.693,0-4.376,0.224-4.937,0.785c-0.673,0.561-1.01,1.683-1.01,3.591v21.88h-9.313v-31.642h9.201v3.815
	c0.673-2.917,4.039-4.488,9.762-4.488c4.039,0,6.845,0.673,8.416,2.244c1.459,1.459,2.356,3.815,2.356,6.845L511.663,278.554z"/>
<g>
	<g>
		<g>
			<g>
				<polygon fill="#0682B4" points="101.996,256.561 101.996,256.561 45.556,201.692 29.847,217.85 70.242,257.01 31.081,297.18 
					47.127,312.889 				"/>
			</g>
			<g>
				<polygon fill="#31B7E9" points="98.518,253.195 98.518,253.195 42.19,198.326 26.369,214.483 66.763,253.644 27.603,293.926 
					43.648,309.635 				"/>
			</g>
		</g>
		<line fill="none" x1="49.259" y1="314.684" x2="104.352" y2="258.244"/>
	</g>
	<g>
		<g>
			
				<rect x="11.053" y="265.878" transform="matrix(-0.6974 0.7167 -0.7167 -0.6974 248.999 431.333)" fill="#0682B4" width="44.771" height="4.713"/>
			
				<rect x="1.338" y="247.578" transform="matrix(-0.6974 0.7167 -0.7167 -0.6974 225.7476 422.2805)" fill="#31B7E9" width="44.771" height="22.442"/>
		</g>
		
			<rect x="6.441" y="227.605" transform="matrix(-0.6974 0.7167 -0.7167 -0.6974 200.2326 390.3018)" fill="#31B7E9" width="22.554" height="19.636"/>
	</g>
</g>
</svg>
