<?xml version="1.0" encoding="utf-8"?>
<!-- Generator: Adobe Illustrator 17.0.0, SVG Export Plug-In . SVG Version: 6.00 Build 0)  -->
<!DOCTYPE svg PUBLIC "-//W3C//DTD SVG 1.1//EN" "http://www.w3.org/Graphics/SVG/1.1/DTD/svg11.dtd">
<svg version="1.1" id="Laag_1" xmlns="http://www.w3.org/2000/svg" xmlns:xlink="http://www.w3.org/1999/xlink" x="0px" y="0px"
	 width="1771px" height="2500px" viewBox="0 0 1771 2500" enable-background="new 0 0 1771 2500" xml:space="preserve">
<path fill="#2062AF" d="M1604.95,2296.693l-719.46,193.722l-719.471-193.722L-0.005,498.042h1771L1604.95,2296.693z"/>
<path fill="#3C9CD7" d="M885.484,643.73v1692.177l1.627,0.444l582.229-156.78l134.39-1535.84L885.484,643.73L885.484,643.73z"/>
<path fill="#E8E9EB" d="M477.165,224.2V117.144h156.194V0H360.021v331.097h273.338V224.2H477.165z M914.334,117.144h109.2V0H750.17
	v117.144c36.573,36.573,55.646,54.077,108.54,106.971c-30.921,0-108.54,0.111-108.54,0.106v106.876h273.364V224.2L914.334,117.144
	L914.334,117.144z M1301.779,117.144h109.195V0h-273.375v117.144c36.573,36.573,55.656,54.077,108.55,106.971
	c-30.91,0-108.55,0.111-108.55,0.106v106.876h273.38V224.2L1301.779,117.144L1301.779,117.144z"/>
<path fill="#FFFFFF" d="M884.845,1093.465l-514.942,214.459l17.077,212.331l497.865-212.87l529.599-226.428l21.957-217.206
	L884.845,1093.465L884.845,1093.465z"/>
<linearGradient id="SVGID_1_" gradientUnits="userSpaceOnUse" x1="-407.5252" y1="-3.4593" x2="-407.5252" y2="-95.4043" gradientTransform="matrix(4.6418 0 0 4.6418 2519.02 1536.3135)">
	<stop  offset="0.387" style="stop-color:#D1D3D4;stop-opacity:0"/>
	<stop  offset="1" style="stop-color:#D1D3D4"/>
</linearGradient>
<path fill="url(#SVGID_1_)" d="M369.898,1307.925l17.077,212.331l497.865-212.87v-213.921L369.898,1307.925z"/>
<linearGradient id="SVGID_2_" gradientUnits="userSpaceOnUse" x1="-292.6443" y1="-49.3186" x2="-292.6443" y2="-144.8913" gradientTransform="matrix(4.6418 0 0 4.6418 2519.02 1536.3135)">
	<stop  offset="0.387" style="stop-color:#D1D3D4;stop-opacity:0"/>
	<stop  offset="1" style="stop-color:#D1D3D4"/>
</linearGradient>
<path fill="url(#SVGID_2_)" d="M1436.401,863.757l-551.556,229.709v213.921l529.599-226.428L1436.401,863.757z"/>
<linearGradient id="SVGID_3_" gradientUnits="userSpaceOnUse" x1="-462.8224" y1="37.549" x2="-241.9921" y2="37.549" gradientTransform="matrix(4.6418 0 0 4.6418 2519.02 1536.3135)">
	<stop  offset="0" style="stop-color:#E8E7E5"/>
	<stop  offset="1" style="stop-color:#FFFFFF"/>
</linearGradient>
<path fill="url(#SVGID_3_)" d="M370.69,1307.925l17.082,212.331l763.908,2.435l-17.087,283.104l-251.37,70.768l-241.641-61.012
	l-14.642-175.721H402.414l29.289,339.236l453.961,134.226l451.5-131.791l58.577-673.576H370.69z"/>
<path opacity="0.05" enable-background="new    " d="M884.845,1307.925H369.903l17.077,212.331l497.865,1.59L884.845,1307.925
	L884.845,1307.925z M884.845,1875.887l-2.44,0.681l-241.609-61.012l-14.642-175.721H401.632l29.283,339.236l453.929,134.226
	V1875.887z"/>
<linearGradient id="SVGID_4_" gradientUnits="userSpaceOnUse" x1="-472.9828" y1="-121.4945" x2="-233.2324" y2="-121.4945" gradientTransform="matrix(4.6418 0 0 4.6418 2519.02 1536.3135)">
	<stop  offset="0" style="stop-color:#E8E7E5"/>
	<stop  offset="1" style="stop-color:#FFFFFF"/>
</linearGradient>
<path fill="url(#SVGID_4_)" d="M323.527,863.757h1112.874l-21.957,217.206H350.371L323.527,863.757L323.527,863.757z"/>
<path opacity="0.05" enable-background="new    " d="M884.845,863.757H323.527l26.843,217.206h534.475L884.845,863.757
	L884.845,863.757z"/>
</svg>
