<?xml version="1.0" encoding="utf-8"?>
<!-- Generator: Adobe Illustrator 17.0.0, SVG Export Plug-In . SVG Version: 6.00 Build 0)  -->
<!DOCTYPE svg PUBLIC "-//W3C//DTD SVG 1.1//EN" "http://www.w3.org/Graphics/SVG/1.1/DTD/svg11.dtd">
<svg version="1.1" id="Laag_1" focusable="false" xmlns="http://www.w3.org/2000/svg" xmlns:xlink="http://www.w3.org/1999/xlink"
	 x="0px" y="0px" viewBox="0 0 512 512" enable-background="new 0 0 512 512" xml:space="preserve">
<path fill="#E8E9EB" d="M12.8,275.2H96v32h38.4v-32h243.2v32H416v-32h83.2c7.072,0,12.8-5.728,12.8-12.8v-12.8
	c0-7.072-5.728-12.8-12.8-12.8h-224v-31.424h-38.4V236.8h-224c-7.072,0-12.8,5.728-12.8,12.8v12.8C0,269.472,5.728,275.2,12.8,275.2
	z"/>
<path fill="#4E4E4E" d="M333.5,94.661h-155c-6.115,0-11.071-4.957-11.071-11.071V61.447c0-6.115,4.957-11.071,11.071-11.071h155
	c6.115,0,11.071,4.957,11.071,11.071V83.59C344.571,89.705,339.615,94.661,333.5,94.661z"/>
<circle fill="#34A853" cx="316.893" cy="72.519" r="8.304"/>
<circle fill="#FF8604" cx="294.75" cy="72.519" r="8.304"/>
<path fill="#3C3C3C" d="M333.5,150.019h-155c-6.115,0-11.071-4.957-11.071-11.071v-22.143c0-6.115,4.957-11.071,11.071-11.071h155
	c6.115,0,11.071,4.957,11.071,11.071v22.143C344.571,145.062,339.615,150.019,333.5,150.019z"/>
<circle fill="#FF8604" cx="316.893" cy="127.876" r="8.304"/>
<circle fill="#34A853" cx="294.75" cy="127.876" r="8.304"/>
<path fill="#565656" d="M333.5,205.376h-155c-6.115,0-11.071-4.957-11.071-11.071v-22.143c0-6.115,4.957-11.071,11.071-11.071h155
	c6.115,0,11.071,4.957,11.071,11.071v22.143C344.571,200.419,339.615,205.376,333.5,205.376z"/>
<circle fill="#34A853" cx="316.893" cy="183.233" r="8.304"/>
<circle fill="#34A853" cx="294.75" cy="183.233" r="8.304"/>
<path fill="#4E4E4E" d="M195.167,350.56h-155c-6.115,0-11.071-4.957-11.071-11.071v-22.143c0-6.115,4.957-11.071,11.071-11.071h155
	c6.115,0,11.071,4.957,11.071,11.071v22.143C206.238,345.603,201.281,350.56,195.167,350.56z"/>
<circle fill="#FF8604" cx="178.56" cy="328.417" r="8.304"/>
<circle fill="#FF8604" cx="156.417" cy="328.417" r="8.304"/>
<path fill="#3C3C3C" d="M195.167,405.917h-155c-6.115,0-11.071-4.957-11.071-11.071v-22.143c0-6.115,4.957-11.071,11.071-11.071h155
	c6.115,0,11.071,4.957,11.071,11.071v22.143C206.238,400.961,201.281,405.917,195.167,405.917z"/>
<circle fill="#FF8604" cx="178.56" cy="383.775" r="8.304"/>
<circle fill="#EA4335" cx="156.417" cy="383.775" r="8.304"/>
<path fill="#565656" d="M195.167,461.275h-155c-6.115,0-11.071-4.957-11.071-11.071V428.06c0-6.115,4.957-11.071,11.071-11.071h155
	c6.115,0,11.071,4.957,11.071,11.071v22.143C206.238,456.318,201.281,461.275,195.167,461.275z"/>
<circle fill="#EA4335" cx="178.56" cy="439.132" r="8.304"/>
<circle fill="#FF8604" cx="156.417" cy="439.132" r="8.304"/>
<path fill="#4E4E4E" d="M474.661,350.56h-155c-6.115,0-11.071-4.957-11.071-11.071v-22.143c0-6.115,4.957-11.071,11.071-11.071h155
	c6.115,0,11.071,4.957,11.071,11.071v22.143C485.732,345.603,480.775,350.56,474.661,350.56z"/>
<circle fill="#34A853" cx="458.054" cy="328.417" r="8.304"/>
<circle fill="#FF8604" cx="435.911" cy="328.417" r="8.304"/>
<path fill="#3C3C3C" d="M474.661,405.917h-155c-6.115,0-11.071-4.957-11.071-11.071v-22.143c0-6.115,4.957-11.071,11.071-11.071h155
	c6.115,0,11.071,4.957,11.071,11.071v22.143C485.732,400.961,480.775,405.917,474.661,405.917z"/>
<circle fill="#FF8604" cx="458.054" cy="383.775" r="8.304"/>
<circle fill="#EA4335" cx="435.911" cy="383.775" r="8.304"/>
<path fill="#565656" d="M474.661,461.275h-155c-6.115,0-11.071-4.957-11.071-11.071V428.06c0-6.115,4.957-11.071,11.071-11.071h155
	c6.115,0,11.071,4.957,11.071,11.071v22.143C485.732,456.318,480.775,461.275,474.661,461.275z"/>
<circle fill="#EA4335" cx="458.054" cy="439.132" r="8.304"/>
<circle fill="#34A853" cx="435.911" cy="439.132" r="8.304"/>
</svg>
