<?xml version="1.0" encoding="utf-8"?>
<!-- Generator: Adobe Illustrator 17.0.0, SVG Export Plug-In . SVG Version: 6.00 Build 0)  -->
<!DOCTYPE svg PUBLIC "-//W3C//DTD SVG 1.1//EN" "http://www.w3.org/Graphics/SVG/1.1/DTD/svg11.dtd">
<svg version="1.1" id="Laag_1" focusable="false" xmlns="http://www.w3.org/2000/svg" xmlns:xlink="http://www.w3.org/1999/xlink"
	 x="0px" y="0px" viewBox="0 0 512 512" enable-background="new 0 0 512 512" xml:space="preserve">
<path fill="#E8E9EB" d="M204.3,5C104.9,24.4,24.8,104.3,5.2,203.4c-37,187,131.7,326.4,258.8,306.7c41.2-6.4,61.4-54.6,42.5-91.7
	c-23.1-45.4,9.9-98.4,60.9-98.4h79.7c35.8,0,64.8-29.6,64.9-65.3C511.5,97.1,368.1-26.9,204.3,5z"/>
<path fill="#E74013" d="M140.457,382.86c-49.019,0-88.622-39.603-88.622-88.622s39.603-88.622,88.622-88.622
	s88.622,39.603,88.622,88.622S189.477,382.86,140.457,382.86z"/>
<path fill="#FBB92E" d="M202.003,200.38c-37.361,0-67.546-30.184-67.546-67.546s30.184-67.546,67.546-67.546
	s67.546,30.184,67.546,67.546S239.364,200.38,202.003,200.38z"/>
<path fill="#537EC0" d="M359.316,200.38c-26.721,0-48.31-21.589-48.31-48.31s21.589-48.31,48.31-48.31s48.31,21.589,48.31,48.31
	S386.038,200.38,359.316,200.38z"/>
</svg>
