<?xml version="1.0" encoding="utf-8"?>
<!-- Generator: Adobe Illustrator 17.0.0, SVG Export Plug-In . SVG Version: 6.00 Build 0)  -->
<!DOCTYPE svg PUBLIC "-//W3C//DTD SVG 1.1//EN" "http://www.w3.org/Graphics/SVG/1.1/DTD/svg11.dtd">
<svg version="1.1" id="Laag_1" focusable="false" xmlns="http://www.w3.org/2000/svg" xmlns:xlink="http://www.w3.org/1999/xlink"
	 x="0px" y="0px" viewBox="1024 577.778 512 398.222"
	 enable-background="new 1024 577.778 512 398.222" xml:space="preserve">
<path fill="#E8E9EB" d="M1280,577.778c-141.387,0-256,114.613-256,256c0,46.933,12.667,90.898,34.72,128.711
	c4.987,8.551,14.489,13.511,24.391,13.511h393.778c9.902,0,19.404-4.96,24.391-13.511c22.053-37.813,34.72-81.778,34.72-128.711
	C1536,692.391,1421.387,577.778,1280,577.778z"/>
<path fill="#FFA64A" d="M1280,634.667c13.076,0,23.627,9.004,26.951,21.022c-0.987,2.009-2.347,3.76-3.067,5.929l-8.196,24.596
	c-4.56,3.102-9.751,5.342-15.68,5.342c-15.707,0-28.444-12.738-28.444-28.444S1264.293,634.667,1280,634.667z"/>
<path fill="#34A853" d="M1109.333,890.667c-15.707,0-28.444-12.738-28.444-28.444s12.738-28.444,28.444-28.444
	s28.444,12.738,28.444,28.444S1125.04,890.667,1109.333,890.667z"/>
<path fill="#FBBC05" d="M1152,748.444c-15.707,0-28.444-12.738-28.444-28.444s12.738-28.444,28.444-28.444
	s28.444,12.738,28.444,28.444S1167.707,748.444,1152,748.444z"/>
<path fill="#21262C" d="M1371.351,684.08l-54.516,163.556c12.169,10.436,20.053,25.733,20.053,43.031
	c0,10.418-3.005,20.044-7.893,28.444h-97.991c-4.889-8.4-7.893-18.027-7.893-28.444c0-30.169,23.556-54.604,53.245-56.524
	l54.524-163.564c3.707-11.164,15.76-17.289,26.987-13.484C1369.04,660.818,1375.067,672.907,1371.351,684.08L1371.351,684.08z"/>
<path fill="#FF8604" d="M1384.382,734.924l13.796-41.378c3.084-1.147,6.338-1.982,9.822-1.982c15.707,0,28.444,12.738,28.444,28.444
	s-12.738,28.444-28.444,28.444C1397.884,748.444,1389.431,742.871,1384.382,734.924L1384.382,734.924z"/>
<circle fill="#EA4335" cx="1450.667" cy="862.222" r="28.444"/>
</svg>
