<?xml version="1.0" encoding="utf-8"?>
<!-- Generator: Adobe Illustrator 17.0.0, SVG Export Plug-In . SVG Version: 6.00 Build 0)  -->
<!DOCTYPE svg PUBLIC "-//W3C//DTD SVG 1.1//EN" "http://www.w3.org/Graphics/SVG/1.1/DTD/svg11.dtd">
<svg version="1.1" id="Laag_1" focusable="false" xmlns="http://www.w3.org/2000/svg" xmlns:xlink="http://www.w3.org/1999/xlink"
	 x="0px" y="0px" viewBox="0 0 512 512" enable-background="new 0 0 512 512" xml:space="preserve">
<path fill="#1E1E1E" d="M464,448H48c-26.51,0-48-21.49-48-48V112c0-26.51,21.49-48,48-48h416c26.51,0,48,21.49,48,48v288
	C512,426.51,490.51,448,464,448z"/>
<path fill="#3A3C3D" d="M464,64H48C21.49,64,0,85.49,0,112v68.594h512V112C512,85.49,490.51,64,464,64z"/>
<circle fill="#FF6159" cx="293.697" cy="122.297" r="27.5"/>
<circle fill="#28CA41" cx="443.699" cy="122.297" r="27.5"/>
<circle fill="#FFBF2F" cx="368.698" cy="122.297" r="27.5"/>
<path fill="#E8E9EB" d="M356,314.311c0.102,55.097-44.831,100.15-99.928,100.189c-23.796,0.017-45.655-8.278-62.832-22.142
	c-4.467-3.605-4.8-10.299-0.742-14.358l4.543-4.543c3.471-3.471,9.013-3.851,12.859-0.8c12.655,10.042,28.671,16.036,46.098,16.036
	c41.01,0,74.194-33.19,74.194-74.194c0-41.01-33.19-74.194-74.194-74.194c-19.683,0-37.56,7.649-50.834,20.134l20.465,20.465
	c4.065,4.065,1.186,11.014-4.562,11.014h-58.618c-3.563,0-6.452-2.888-6.452-6.452V226.85c0-5.748,6.949-8.626,11.014-4.562
	l19.908,19.908C204.874,225.039,229.206,214.5,256,214.5C311.165,214.5,355.898,259.17,356,314.311z M283.052,346.079l3.961-5.093
	c3.281-4.219,2.521-10.299-1.698-13.58l-16.412-12.765v-42.076c0-5.345-4.333-9.677-9.677-9.677h-6.452
	c-5.345,0-9.677,4.333-9.677,9.677v54.698l26.375,20.514C273.69,351.058,279.77,350.298,283.052,346.079z"/>
</svg>
