<?xml version="1.0" encoding="utf-8"?>
<!-- Generator: Adobe Illustrator 17.0.0, SVG Export Plug-In . SVG Version: 6.00 Build 0)  -->
<!DOCTYPE svg PUBLIC "-//W3C//DTD SVG 1.1//EN" "http://www.w3.org/Graphics/SVG/1.1/DTD/svg11.dtd">
<svg version="1.1" id="Laag_1" focusable="false" xmlns="http://www.w3.org/2000/svg" xmlns:xlink="http://www.w3.org/1999/xlink"
	 x="0px" y="0px" viewBox="0 0 512 512" enable-background="new 0 0 512 512" xml:space="preserve">
<path fill="#F9236C" d="M223.12,460.4l-48.8-14.16c-5.12-1.44-8-6.8-6.56-11.92l109.2-376.16c1.44-5.12,6.8-8,11.92-6.56l48.8,14.16
	c5.12,1.44,8,6.8,6.56,11.92l-109.2,376.16C233.52,458.96,228.24,461.92,223.12,460.4z"/>
<path fill="#E8E9EB" d="M131.92,370.64l34.8-37.12c3.68-3.92,3.44-10.16-0.64-13.76L93.6,256l72.48-63.76
	c4.08-3.6,4.4-9.84,0.64-13.76l-34.8-37.12c-3.6-3.84-9.68-4.08-13.6-0.4l-115.28,108c-4.08,3.76-4.08,10.24,0,14l115.28,108.08
	C122.24,374.72,128.32,374.56,131.92,370.64L131.92,370.64z"/>
<path fill="#E8E9EB" d="M393.68,371.12l115.28-108.08c4.08-3.76,4.08-10.24,0-14L393.68,140.88c-3.84-3.6-9.92-3.44-13.6,0.4
	l-34.8,37.12c-3.68,3.92-3.44,10.16,0.64,13.76L418.4,256l-72.48,63.76c-4.08,3.6-4.4,9.84-0.64,13.76l34.8,37.12
	C383.68,374.56,389.76,374.72,393.68,371.12L393.68,371.12z"/>
</svg>
