<?xml version="1.0" encoding="utf-8"?>
<!-- Generator: Adobe Illustrator 17.0.0, SVG Export Plug-In . SVG Version: 6.00 Build 0)  -->
<!DOCTYPE svg PUBLIC "-//W3C//DTD SVG 1.1//EN" "http://www.w3.org/Graphics/SVG/1.1/DTD/svg11.dtd">
<svg version="1.1" id="Laag_1" xmlns="http://www.w3.org/2000/svg" xmlns:xlink="http://www.w3.org/1999/xlink" x="0px" y="0px"
	 width="512px" height="512px" viewBox="0 0 512 512" enable-background="new 0 0 512 512" xml:space="preserve">
<g>
	
		<linearGradient id="SVGID_1_" gradientUnits="userSpaceOnUse" x1="535.5595" y1="508.0168" x2="535.5595" y2="52.3813" gradientTransform="matrix(-1 0 0 1 737.2609 0)">
		<stop  offset="0" style="stop-color:#6CB52D"/>
		<stop  offset="0.9966" style="stop-color:#D6DA1F"/>
	</linearGradient>
	<path fill="url(#SVGID_1_)" d="M229.901,52.381c-67.731,75.707-116.363,163.482-107.743,287.94
		c5.587,80.667,59.845,156.123,120.666,163.56c-46.306-77.134-69.173-161.888-61.135-258.588
		c3.623,41.41,7.648,82.724,18.773,122.182c12.816,45.455,30.108,87.769,51.634,127.116c3.201,5.852,6.162,14.053,12.517,13.388
		c7.366-0.771,8.957-10.474,11.212-17.756c11.594-37.439,5.499-74.245-2.887-110.877c-6.871-30.016-19.251-56.794-29.061-85.088
		c-20.817-60.036-36.771-121.321-25.947-188.938C220.817,87.29,226.838,70.669,229.901,52.381z"/>
	
		<linearGradient id="SVGID_2_" gradientUnits="userSpaceOnUse" x1="427.2415" y1="510.4318" x2="427.2415" y2="1.5682" gradientTransform="matrix(-1 0 0 1 737.2609 0)">
		<stop  offset="0" style="stop-color:#98D3D8"/>
		<stop  offset="0.176" style="stop-color:#97D3DD"/>
		<stop  offset="0.6291" style="stop-color:#94D3E7"/>
		<stop  offset="1" style="stop-color:#93D3EB"/>
	</linearGradient>
	<path fill="url(#SVGID_2_)" d="M299.726,506.722c-4.086,1.747-9.045,6.6-12.582,1.311c-3.52-5.263,0.96-11.131,2.652-16.174
		c9.525-28.398,14.35-57.19,9.306-88.491c-5.325-33.051-15.471-63.317-27.624-92.721c-14.573-35.259-27.108-71.728-34.978-110.53
		c-12.918-63.694-10.362-124.679,21.425-179.252c4.645-7.974,9.68-21.201,17.054-19.067c7.237,2.094,3.788,16.717,5.205,25.629
		c8.792,55.292,32.023,100.47,57.085,144.714c28.558,50.416,53.632,102.99,53.562,169.037
		C390.79,414.977,352.921,483.975,299.726,506.722z"/>
	<path fill="#FFFFFF" d="M340.641,372.356c4.123-21.505,15.006-37.493,24.308-35.71c9.302,1.783,13.501,20.662,9.378,42.167
		c-2.054,10.714-5.787,20.056-10.166,26.515c0.425,3.141-0.058,7.511-1.521,12.109c-2.615,8.218-7.364,14.043-10.609,13.011
		c-3.129-0.996-3.706-8.01-1.397-15.88c-0.205-0.022-0.412-0.006-0.615-0.045C340.717,412.741,336.519,393.862,340.641,372.356z"/>
</g>
</svg>
