<?xml version="1.0" encoding="utf-8"?>
<!-- Generator: Adobe Illustrator 17.0.0, SVG Export Plug-In . SVG Version: 6.00 Build 0)  -->
<!DOCTYPE svg PUBLIC "-//W3C//DTD SVG 1.1//EN" "http://www.w3.org/Graphics/SVG/1.1/DTD/svg11.dtd">
<svg version="1.1" id="Laag_1" xmlns="http://www.w3.org/2000/svg" xmlns:xlink="http://www.w3.org/1999/xlink" x="0px" y="0px"
	 width="512px" height="512px" viewBox="0 0 512 512" enable-background="new 0 0 512 512" xml:space="preserve">
<circle id="XMLID_29_" fill="#FBD1C2" stroke="#000000" stroke-width="12.7509" stroke-miterlimit="10" cx="459.135" cy="268.062" r="27.576"/>
<circle id="XMLID_26_" fill="#FBD1C2" stroke="#000000" stroke-width="12.7509" stroke-miterlimit="10" cx="53.591" cy="270.459" r="27.576"/>
<g>
	
		<ellipse id="XMLID_31_" transform="matrix(0.9769 0.2139 -0.2139 0.9769 79.9301 -68.2278)" fill="#F39139" stroke="#000000" stroke-width="12.7973" stroke-miterlimit="10" cx="355.229" cy="335.224" rx="109.867" ry="123.565"/>
	
		<circle id="XMLID_30_" fill="#FBD1C2" stroke="#000000" stroke-width="12.7973" stroke-miterlimit="10" cx="287.463" cy="229.092" r="27.676"/>
	
		<circle id="XMLID_28_" fill="#FBD1C1" stroke="#000000" stroke-width="12.7973" stroke-miterlimit="10" cx="393.322" cy="161.266" r="109.867"/>
	<circle id="XMLID_18_" stroke="#000000" stroke-width="5.1189" stroke-miterlimit="10" cx="356.865" cy="153.283" r="13.838"/>
	<circle id="XMLID_17_" stroke="#000000" stroke-width="5.1189" stroke-miterlimit="10" cx="426.093" cy="168.442" r="13.838"/>
	<path id="XMLID_15_" fill="none" stroke="#000000" stroke-width="5.1189" stroke-miterlimit="10" d="M330.25,210.129
		L330.25,210.129c24.81,23.024,59.838,31.432,92.396,22.179l3.868-1.099"/>
	<path id="XMLID_14_" fill="none" stroke="#000000" stroke-width="5.1189" stroke-miterlimit="10" d="M422.249,55.13
		c-8.867,24.278-37.425,36.114-63.852,26.463"/>
	<path id="XMLID_13_" fill="none" stroke="#000000" stroke-width="5.1189" stroke-miterlimit="10" d="M429.816,58.219
		c-0.918,25.83-24.413,45.923-52.528,44.923"/>
	<path id="XMLID_12_" fill="none" stroke="#000000" stroke-width="5.1189" stroke-miterlimit="10" d="M437.61,59.954
		c7.055,24.865-9.136,51.2-36.201,58.879"/>
	
		<ellipse id="XMLID_33_" transform="matrix(-0.9769 0.2139 -0.2139 -0.9769 382.1357 633.9086)" fill="#E94E1B" stroke="#000000" stroke-width="12.7973" stroke-miterlimit="10" cx="156.771" cy="337.629" rx="109.867" ry="123.565"/>
	
		<circle id="XMLID_27_" fill="#FBD1C2" stroke="#000000" stroke-width="12.7973" stroke-miterlimit="10" cx="224.537" cy="231.497" r="27.676"/>
	
		<circle id="XMLID_25_" fill="#FBD1C2" stroke="#000000" stroke-width="12.7973" stroke-miterlimit="10" cx="118.678" cy="163.672" r="109.867"/>
	<circle id="XMLID_24_" stroke="#000000" stroke-width="5.1189" stroke-miterlimit="10" cx="155.135" cy="155.688" r="13.838"/>
	<circle id="XMLID_23_" stroke="#000000" stroke-width="5.1189" stroke-miterlimit="10" cx="85.907" cy="170.848" r="13.838"/>
	<path id="XMLID_22_" fill="none" stroke="#000000" stroke-width="5.1189" stroke-miterlimit="10" d="M181.75,212.535
		L181.75,212.535c-24.81,23.024-59.838,31.432-92.396,22.179l-3.868-1.099"/>
	<path id="XMLID_21_" fill="none" stroke="#000000" stroke-width="5.1189" stroke-miterlimit="10" d="M89.751,57.536
		c8.867,24.278,37.425,36.114,63.852,26.463"/>
	<path id="XMLID_20_" fill="none" stroke="#000000" stroke-width="5.1189" stroke-miterlimit="10" d="M82.184,60.625
		c0.918,25.83,24.413,45.923,52.528,44.923"/>
	<path id="XMLID_19_" fill="none" stroke="#000000" stroke-width="5.1189" stroke-miterlimit="10" d="M74.39,62.36
		c-7.055,24.865,9.136,51.2,36.201,58.879"/>
</g>
</svg>
