<?xml version="1.0" encoding="utf-8"?>
<!-- Generator: Adobe Illustrator 17.0.0, SVG Export Plug-In . SVG Version: 6.00 Build 0)  -->
<!DOCTYPE svg PUBLIC "-//W3C//DTD SVG 1.1//EN" "http://www.w3.org/Graphics/SVG/1.1/DTD/svg11.dtd">
<svg version="1.1" id="Laag_1" xmlns="http://www.w3.org/2000/svg" xmlns:xlink="http://www.w3.org/1999/xlink" x="0px" y="0px"
	 viewBox="0 0 512 364.488" enable-background="new 0 0 512 364.488" xml:space="preserve">
<g>
	<path fill="#144734" d="M294.988,350.582c5.149-10.979,11.035-21.225,16.184-30.74h-8.092
		C296.46,338.872,294.988,350.582,294.988,350.582z"/>
	<path fill="#144734" d="M509.057,160.287c-5.149-9.515-13.241-14.638-25.011-14.638c-22.805,0-58.115,19.029-105.195,59.284
		c-44.138,38.059-66.207,84.901-75.77,114.909h8.092c45.609-77.582,88.276-89.292,122.115-100.271
		C464.184,209.325,512,194.687,512,170.534C512,166.874,511.264,163.947,509.057,160.287z"/>
	<path fill="#144734" d="M200.828,319.842c5.149,9.515,11.035,19.761,16.184,30.74c0,0-1.471-12.442-8.092-30.74H200.828z"/>
	<path fill="#144734" d="M208.92,319.842c-10.299-30.008-31.632-76.85-75.77-115.641c-47.816-40.255-82.391-59.284-105.195-59.284
		c-11.77,0-19.862,5.123-25.012,14.638C0.736,163.215,0,166.874,0,169.802c0,24.153,47.816,38.791,79.448,49.038
		c33.103,11.71,75.77,22.689,121.379,101.003H208.92z"/>
	<path fill="#144734" d="M417.839,116.373c0.736-2.196,0.736-4.391,0.736-6.587c0-12.442-8.092-29.276-28.69-31.472
		c-2.207,0-4.414,0-5.885,0c-19.126,0-33.839,13.906-72.828,87.828c-27.218,51.965-47.816,153.7-47.816,153.7
		c-1.471,7.319-2.943,13.174-3.678,18.298c0-5.855,12.506-136.134,21.333-185.172c8.092-47.574,22.069-78.314,22.069-105.394
		C303.08,21.225,281.747,0,255.264,0s-47.816,21.225-47.816,47.574c0,27.08,13.241,57.82,22.069,105.394
		c8.828,49.038,22.805,166.874,22.805,166.874c0.736,6.587,0.736,13.174,1.471,18.298c-1.471-5.123-26.483-120.032-53.701-171.266
		c-38.253-73.922-52.966-87.828-72.828-87.828c-2.207,0-3.678,0-5.885,0c-20.598,2.196-28.69,19.03-28.69,31.472
		c0,2.196,0,4.391,0.736,6.587c12.506,48.306,99.31,52.697,143.448,199.078c0,1.464,0.736,2.196,0.736,3.66
		c8.092,26.349,13.241,38.059,15.448,42.45c0.736,1.464,1.471,2.196,2.943,2.196c1.471,0,2.207-0.732,4.414-2.196
		c2.943-4.391,13.234-43.275,13.977-46.842C317.793,169.07,405.333,164.678,417.839,116.373z"/>
</g>
</svg>
