<?xml version="1.0" encoding="utf-8"?>
<!-- Generator: Adobe Illustrator 17.0.0, SVG Export Plug-In . SVG Version: 6.00 Build 0)  -->
<!DOCTYPE svg PUBLIC "-//W3C//DTD SVG 1.1//EN" "http://www.w3.org/Graphics/SVG/1.1/DTD/svg11.dtd">
<svg version="1.1" id="Laag_1" focusable="false" xmlns="http://www.w3.org/2000/svg" xmlns:xlink="http://www.w3.org/1999/xlink"
	 x="0px" y="0px" viewBox="49.489 0 644.53 512" enable-background="new 49.489 0 644.53 512"
	 xml:space="preserve">
<path fill="#3C3C3C" d="M670.956,181.731c-19.765-8.635-42.986,1.295-51.242,21.222l-32.099,77.479l-7.107-2.945l64.857-156.549
	c8.256-19.927-1.139-43.37-21.22-51.243c-19.459-7.629-41.528,1.7-49.563,21.095l-65.148,157.251l-7.107-2.945l79.212-191.197
	c8.256-19.927-1.139-43.37-21.22-51.243c-19.459-7.629-41.528,1.7-49.563,21.095l-79.503,191.899l-7.107-2.945l64.489-155.661
	c8.256-19.927-1.139-43.37-21.22-51.243c-19.459-7.629-41.528,1.7-49.563,21.095l-86.861,209.661l-12.099-50.312
	c-4.967-20.655-25.738-33.373-46.395-28.405c-20.654,4.969-33.371,25.74-28.404,46.395l48.02,199.665
	c3.453,14.359,13.568,26.198,27.212,31.85l175.543,72.727c19.789,8.198,42.618,1.706,55.131-15.679l65.017-90.333
	c8.318-11.556,15.271-24.036,20.72-37.19l55.342-133.582C699.115,212.302,690.11,190.099,670.956,181.731z"/>
<path fill="#E8E9EB" d="M52.428,231.697l55.342,133.582c5.45,13.154,12.403,25.634,20.72,37.19l65.017,90.333
	c12.513,17.385,35.343,23.878,55.131,15.679l175.543-72.727c13.643-5.652,23.758-17.492,27.212-31.85l48.02-199.665
	c4.967-20.656-7.75-41.427-28.404-46.395c-20.657-4.968-41.428,7.75-46.395,28.405l-12.099,50.312L325.655,26.901
	C317.62,7.506,295.551-1.824,276.092,5.805c-20.081,7.873-29.476,31.315-21.22,51.243l64.489,155.661l-7.107,2.945L232.751,23.754
	c-8.035-19.395-30.104-28.724-49.563-21.095c-20.081,7.873-29.476,31.315-21.22,51.243l79.212,191.197l-7.107,2.945L168.925,90.792
	c-8.035-19.395-30.104-28.724-49.563-21.095c-20.081,7.873-29.476,31.315-21.22,51.243l64.857,156.549l-7.107,2.945l-32.099-77.479
	c-8.256-19.927-31.477-29.857-51.242-21.222C53.397,190.099,44.392,212.302,52.428,231.697z"/>
</svg>
