<?xml version="1.0" encoding="utf-8"?>
<!-- Generator: Adobe Illustrator 17.0.0, SVG Export Plug-In . SVG Version: 6.00 Build 0)  -->
<!DOCTYPE svg PUBLIC "-//W3C//DTD SVG 1.1//EN" "http://www.w3.org/Graphics/SVG/1.1/DTD/svg11.dtd">
<svg version="1.1" id="Laag_1" xmlns="http://www.w3.org/2000/svg" xmlns:xlink="http://www.w3.org/1999/xlink" x="0px" y="0px"
	 viewBox="0 0 512 512" enable-background="new 0 0 512 512" xml:space="preserve">
<g>
	<defs>
		<rect id="SVGID_1_" y="33.156" width="512" height="445.687"/>
	</defs>
	<clipPath id="SVGID_2_">
		<use xlink:href="#SVGID_1_"  overflow="visible"/>
	</clipPath>
	<path clip-path="url(#SVGID_2_)" fill="#FAC411" d="M511.892,327.674c0,48.022-28.141,63.916-60.665,71.936L76.644,466.471
		c-50.96,12.258-76.536-21.049-76.084-56.439V93.924c0-33.506,27.166-60.665,60.665-60.665H451.22
		c33.5,0,60.665,27.16,60.665,60.665v233.75H511.892z"/>
</g>
<g>
	<defs>
		<rect id="SVGID_3_" y="33.156" width="512" height="445.687"/>
	</defs>
	<clipPath id="SVGID_4_">
		<use xlink:href="#SVGID_3_"  overflow="visible"/>
	</clipPath>
	<path clip-path="url(#SVGID_4_)" fill="none" stroke="#19325B" stroke-width="0.009" d="M511.892,327.674
		c0,48.022-28.141,63.916-60.665,71.936L76.644,466.471c-50.96,12.258-76.536-21.049-76.084-56.439V93.924
		c0-33.506,27.166-60.665,60.665-60.665H451.22c33.5,0,60.665,27.16,60.665,60.665v233.75H511.892z"/>
</g>
<g>
	<defs>
		<rect id="SVGID_5_" y="33.156" width="512" height="445.687"/>
	</defs>
	<clipPath id="SVGID_6_">
		<use xlink:href="#SVGID_5_"  overflow="visible"/>
	</clipPath>
	<path clip-path="url(#SVGID_6_)" fill="#FFFFFF" d="M374.919,165.324c-14.534-15.263-39.496-20.079-64.789-18.538
		c-6.244-5.045-13.92-8.977-21.524-11.373c-47.365-14.944-138.971,11.566-156.04,67.649c-3.57,11.74-1.264,21.326,4.383,28.201
		c-6.358,8.206-11.048,18.195-11.048,30.001c0,14.48,11.993,29.387,24.565,35.173c33.048,15.19,72.899,9.886,106.327-4.136
		c12.449-5.289,24.026-12.433,34.336-21.187c22.807-4.835,45.228-14.661,64.097-28.55
		C379.134,224.972,399.267,190.894,374.919,165.324"/>
</g>
<g>
	<defs>
		<rect id="SVGID_7_" y="33.156" width="512" height="445.687"/>
	</defs>
	<clipPath id="SVGID_8_">
		<use xlink:href="#SVGID_7_"  overflow="visible"/>
	</clipPath>
	<path clip-path="url(#SVGID_8_)" fill="none" stroke="#19325B" stroke-width="0.011" d="M374.919,165.324
		c-14.534-15.263-39.496-20.079-64.789-18.538c-6.244-5.045-13.92-8.977-21.524-11.373c-47.365-14.944-138.971,11.566-156.04,67.649
		c-3.57,11.74-1.264,21.326,4.383,28.201c-6.358,8.206-11.048,18.195-11.048,30.001c0,14.48,11.993,29.387,24.565,35.173
		c33.048,15.19,72.899,9.886,106.327-4.136c12.449-5.289,24.026-12.433,34.336-21.187c22.807-4.835,45.228-14.661,64.097-28.55
		C379.134,224.972,399.267,190.894,374.919,165.324L374.919,165.324z"/>
</g>
<g>
	<defs>
		<rect id="SVGID_9_" y="33.156" width="512" height="445.687"/>
	</defs>
	<clipPath id="SVGID_10_">
		<use xlink:href="#SVGID_9_"  overflow="visible"/>
	</clipPath>
</g>
<g>
	<defs>
		<rect id="SVGID_11_" y="33.156" width="512" height="445.687"/>
	</defs>
	<clipPath id="SVGID_12_">
		<use xlink:href="#SVGID_11_"  overflow="visible"/>
	</clipPath>
</g>
<path fill="#265EA4" d="M436.663,161.332c-22.068-23.174-59.968-30.487-98.372-28.147c-9.48-7.661-21.135-13.63-32.681-17.268
	C233.694,93.228,94.606,133.478,68.689,218.631c-5.421,17.826-1.92,32.379,6.655,42.819c-9.653,12.46-16.775,27.626-16.775,45.552
	c0,21.985,18.21,44.62,37.297,53.405c50.178,23.064,110.685,15.01,161.439-6.28c18.902-8.031,36.479-18.877,52.134-32.169
	c34.628-7.341,68.671-22.26,97.321-43.349C443.062,251.897,473.631,200.156,436.663,161.332"/>
</svg>
