<?xml version="1.0" encoding="utf-8"?>
<!-- Generator: Adobe Illustrator 17.0.0, SVG Export Plug-In . SVG Version: 6.00 Build 0)  -->
<!DOCTYPE svg PUBLIC "-//W3C//DTD SVG 1.1//EN" "http://www.w3.org/Graphics/SVG/1.1/DTD/svg11.dtd">
<svg version="1.1" id="Laag_1" focusable="false" xmlns="http://www.w3.org/2000/svg" xmlns:xlink="http://www.w3.org/1999/xlink"
	 x="0px" y="0px" viewBox="0 0 512 512" enable-background="new 0 0 512 512" xml:space="preserve">
<path fill="#E7DB71" d="M460.8,89.6c0-21.12-17.28-38.4-38.4-38.4H89.6c-21.12,0-38.4,17.28-38.4,38.4v268.8h409.6V89.6z"/>
<rect x="102.4" y="102.4" fill="#21262C" width="307.2" height="204.8"/>
<path fill="#F9236C" d="M204.024,260.52c5,5,13.104,5,18.104,0l9.048-9.048c5-5,5-13.104,0-18.104L202.6,204.8l28.568-28.576
	c5-5,5-13.104,0-18.104l-9.048-9.048c-5-5-13.104-5-18.104,0l-46.672,46.672c-5,5-5,13.104,0,18.104L204.024,260.52z"/>
<path fill="#F9236C" d="M280.832,251.48l9.048,9.048c5,5,13.104,5,18.104,0l46.672-46.672c5-5,5-13.104,0-18.104l-46.672-46.672
	c-5-5-13.104-5-18.104,0l-9.048,9.048c-5,5-5,13.104,0,18.104L309.4,204.8l-28.568,28.576
	C275.832,238.376,275.832,246.48,280.832,251.48L280.832,251.48z"/>
<path fill="#E7DB71" d="M499.2,384H305.232c-0.592,15.848-11.768,25.6-26.192,25.6H230.4c-14.952,0-26.416-13.976-26.216-25.6H12.8
	C5.76,384,0,389.76,0,396.8v12.8c0,28.16,23.04,51.2,51.2,51.2h409.6c28.16,0,51.2-23.04,51.2-51.2v-12.8
	C512,389.76,506.24,384,499.2,384z"/>
</svg>
