<?xml version="1.0" encoding="utf-8"?>
<!-- Generator: Adobe Illustrator 17.0.0, SVG Export Plug-In . SVG Version: 6.00 Build 0)  -->
<!DOCTYPE svg PUBLIC "-//W3C//DTD SVG 1.1//EN" "http://www.w3.org/Graphics/SVG/1.1/DTD/svg11.dtd">
<svg version="1.1" id="Laag_1" focusable="false" xmlns="http://www.w3.org/2000/svg" xmlns:xlink="http://www.w3.org/1999/xlink"
	 x="0px" y="0px" width="553.759px" height="512px" viewBox="-21.174 -41 553.759 512"
	 enable-background="new -21.174 -41 553.759 512" xml:space="preserve">
<title>Bootstrap</title>
<g>
	<g transform="translate(75 23)">
		<g>
			
				<linearGradient id="b_2_" gradientUnits="userSpaceOnUse" x1="-73.9056" y1="447.8767" x2="-73.9056" y2="446.6056" gradientTransform="matrix(435.7063 0 0 -292.809 32381.8555 131218.1406)">
				<stop  offset="0" style="stop-color:#5C24AE"/>
				<stop  offset="1" style="stop-color:#30135A"/>
			</linearGradient>
			<path id="b_1_" fill="url(#b_2_)" d="M129.545,90L-75.098,227.527c-28.138,18.91-28.138,49.853,0,68.763l204.643,137.527
				c28.138,18.91,74.183,18.91,102.321,0l204.643-137.527c28.138-18.91,28.138-49.853,0-68.763L231.867,90
				C203.728,71.091,157.684,71.091,129.545,90L129.545,90z"/>
		</g>
	</g>
	<g transform="translate(75 23)">
		<g>
			
				<linearGradient id="e_2_" gradientUnits="userSpaceOnUse" x1="-73.9056" y1="448.1475" x2="-73.9056" y2="446.6565" gradientTransform="matrix(435.7063 0 0 -292.809 32381.8555 131163.1406)">
				<stop  offset="0" style="stop-color:#7331D4"/>
				<stop  offset="1" style="stop-color:#461B84"/>
			</linearGradient>
			<path id="e_1_" fill="url(#e_2_)" d="M129.545,20.091L-75.098,157.618c-28.138,18.91-28.138,49.853,0,68.763l204.643,137.527
				c28.138,18.91,74.183,18.91,102.321,0l204.643-137.527c28.138-18.91,28.138-49.853,0-68.763L231.867,20.091
				C203.728,1.182,157.684,1.182,129.545,20.091L129.545,20.091z"/>
		</g>
	</g>
	<g transform="translate(75 23)">
		<g>
			
				<linearGradient id="h_2_" gradientUnits="userSpaceOnUse" x1="-73.9056" y1="447.9785" x2="-73.9056" y2="446.7074" gradientTransform="matrix(435.7063 0 0 -292.809 32381.8555 131108.1406)">
				<stop  offset="0" style="stop-color:#905BDD"/>
				<stop  offset="1" style="stop-color:#5521A0"/>
			</linearGradient>
			<path id="h_1_" fill="url(#h_2_)" d="M129.545-49.818L-75.098,87.709c-28.138,18.91-28.138,49.853,0,68.763L129.545,294
				c28.138,18.91,74.183,18.91,102.321,0l204.643-137.527c28.138-18.91,28.138-49.853,0-68.763L231.867-49.818
				C203.728-68.727,157.684-68.727,129.545-49.818L129.545-49.818z"/>
		</g>
	</g>
	<path fill="#FFFFFF" d="M285.453,228.579L126.418,121.703l62.271-41.848c27.22-18.293,61.513-20.009,85.318-4.011
		c16.552,11.123,19.838,29.626,7.273,41.77l0.883,0.594c24.356-12.668,53.453-11.775,74.609,2.444
		c27.993,18.812,24.577,43.483-9.254,66.218L285.453,228.579L285.453,228.579z M214.806,154.439l31.74-21.33
		c23.474-15.775,26.89-30.664,9.675-42.232c-15.76-10.591-35.266-9.185-54.561,3.781l-37.904,25.473L214.806,154.439z
		 M326.998,177.105c23.915-16.072,26.779-31.035,8.391-43.392c-18.387-12.357-40.778-9.923-66.123,7.109l-37.363,25.109
		l55.876,37.55L326.998,177.105L326.998,177.105z"/>
</g>
</svg>
