<?xml version="1.0" encoding="utf-8"?>
<!-- Generator: Adobe Illustrator 17.0.0, SVG Export Plug-In . SVG Version: 6.00 Build 0)  -->
<!DOCTYPE svg PUBLIC "-//W3C//DTD SVG 1.1//EN" "http://www.w3.org/Graphics/SVG/1.1/DTD/svg11.dtd">
<svg version="1.1" id="Laag_1" xmlns="http://www.w3.org/2000/svg" xmlns:xlink="http://www.w3.org/1999/xlink" x="0px" y="0px"
	 width="256px" height="63px" viewBox="0 0 256 63" enable-background="new 0 0 256 63" xml:space="preserve">
<g>
	<path fill="#E8E9EB" d="M109.47,22.574v-0.002l-1.64,5.808l1.638-5.806H109.47z M117.9,35.174l-1.806-0.01L117.9,35.174z
		 M117.435,43.858h0.002l-10.82,0.04l10.82-0.04H117.435z M119.705,35.195l-1.807-0.01L119.705,35.195z M118.385,43.12l1.885-7.188
		l-1.885,7.2V43.12z M158.221,10.018l-3.5,16.506L158.221,10.018z M149.197,10.018l-2.665,12.33L149.197,10.018z"/>
	<path fill="#E8E9EB" d="M157.62,9.275h-7.508c-0.436,0.017-0.81,0.318-0.919,0.741l-5.33,24.663c-0.088,0.407-0.5,0.74-0.918,0.74
		h-5.314c-5.257,0-4.65-3.636-3.573-8.618l0.032-0.15l0.637-3.395l0.275-1.397l2.424-11.84c0.08-0.322-0.116-0.647-0.438-0.727
		c-0.055-0.014-0.112-0.019-0.168-0.017h-7.706c-0.436,0.016-0.808,0.319-0.914,0.742l-3.47,16.464
		c-1.9,8.714-1.403,17.023,8.97,17.283l0.3,0.006h16.282c0.417,0,0.83-0.334,0.916-0.742l7.022-33
		c0.084-0.315-0.102-0.638-0.417-0.723c-0.06-0.016-0.121-0.023-0.183-0.019L157.62,9.275z M187.572,35.505
		c0.417,0,0.7,0.334,0.606,0.742l-0.73,3.563 M186.72,43.377l0.73-3.565l-0.73,3.567V43.377z M185.807,44.127l-13.837,0.067
		l13.836-0.067H185.807z"/>
	<path fill="#E8E9EB" d="M167.492,30.917c-0.006-0.4,0.438-1.062,0.855-1.062l-0.938-0.015c-0.423,4.25,0.082,1.078,0.082,1.078
		L167.492,30.917z M172.655,44.193l-0.144,0.001L172.655,44.193z M187.572,35.506c0.417,0,0.7,0.334,0.606,0.742l-0.848,4.144
		 M176.21,44.184h-0.03H176.21z M174.366,44.2h-0.107H174.366z M173.804,44.192l-0.177,0.001L173.804,44.192z M173.232,44.193
		h-0.155H173.232z M174.258,44.2h-0.455H174.258z M176.18,44.184l-1.8,0.006L176.18,44.184z M185.812,44.126l-9.605,0.06
		L185.812,44.126z M186.72,43.38l0.6-2.985l-0.6,2.988V43.38z M173.628,44.193h-0.396H173.628z M172.508,44.194h-0.536H172.508z
		 M173.075,44.193h-0.423H173.075z M63.248,31.006l1.166-5.17l-1.333,5.9l-1.28,6.02l1.12-5.277l0.325-1.483L63.248,31.006z
		 M77.206,9.188H68.96c-0.437,0.017-0.812,0.317-0.926,0.739L66.47,16.83c-0.089,0.308,0.089,0.629,0.396,0.718
		c0.063,0.018,0.128,0.026,0.194,0.022h8.3c0.436-0.017,0.81-0.317,0.92-0.74l1.5-6.9c0.1-0.407-0.18-0.74-0.596-0.74L77.206,9.188z
		 M75.412,20.668l-2.418,11.187L75.412,20.668z M51.46,57.737l6.8,0.054c-2.267-0.007-4.535-0.026-6.802-0.055L51.46,57.737z"/>
	<path fill="#E8E9EB" d="M65.58,20.666l-1.167,5.17L65.58,20.666z M74.816,19.926h-8.3c-0.437,0.018-0.812,0.318-0.925,0.74
		l-2.334,10.34l-0.325,1.483L60.7,43.044c-0.11,0.493-0.243,0.98-0.4,1.46c0,0-1.552,4.62-4.162,4.567l-2.586-0.048
		c-0.436,0.009-0.814,0.303-0.932,0.723L50.876,57c-0.097,0.405,0.165,0.74,0.58,0.746l6.802,0.055c6.52,0,9.956-3.612,12.16-14.006
		l4.997-23.117c0.088-0.407-0.18-0.74-0.598-0.74L74.816,19.926z M192.866,43.77c-0.417,0-0.687-0.334-0.6-0.742l6.25-29.282
		 M201.554,43.026l2.528-12.498L201.554,43.026z"/>
	<path fill="#E8E9EB" d="M192.358,43.4c-0.05-0.204-0.02-0.704,0.067-1.113l2.967-13.9l-3.126,14.64
		c-0.088,0.408,0.183,0.742,0.6,0.742h0.76C193.209,43.769,192.409,43.602,192.358,43.4L192.358,43.4z M201.06,43.604
		c-0.227,0.092-0.754,0.167-1.172,0.167h0.76c0.435-0.016,0.807-0.32,0.908-0.744l0.15-0.742
		C201.623,42.693,201.286,43.512,201.06,43.604L201.06,43.604z M202.82,36.78l1.116-5.516L202.82,36.78z M227.488,15.708
		l0.344,1.423c0.095,0.407-0.168,0.738-0.584,0.74 M201.708,42.285l1.113-5.506L201.708,42.285z M227.146,14.25l0.34,1.457
		L227.146,14.25z M203.946,31.263l0.307-1.474l1.192-5.584l-1.35,6.325L203.946,31.263L203.946,31.263z M198.63,13.267l-3.227,15.12
		l3.126-14.64L198.63,13.267L198.63,13.267z"/>
	<path fill="#E8E9EB" d="M227.83,17.13l-0.344-1.423l-0.513-2.195c-0.675-2.623-2.657-4.136-6.96-4.136l-19.808-0.014
		c-0.436,0.016-0.809,0.318-0.915,0.741l-0.77,3.643l-6.092,28.54c-0.088,0.408-0.118,0.908-0.067,1.113s0.85,0.37,1.267,0.37h6.262
		c0.417,0,0.945-0.075,1.172-0.167s0.563-0.9,0.646-1.32l2.378-11.755l2.543-11.912c0.109-0.421,0.481-0.721,0.915-0.74l19.704-0.01
		c0.416-0.001,0.68-0.332,0.584-0.74L227.83,17.13z M253.195,4.266l-1.517,0.005h-6.307c-0.417,0-0.95,0.282-1.187,0.626
		l-13.946,20.43c-0.236,0.345-0.504,0.294-0.597-0.112l-1.026-4.5c-0.114-0.423-0.49-0.722-0.927-0.739h-8.965
		c-0.297-0.025-0.558,0.196-0.583,0.494c-0.007,0.08,0.005,0.16,0.033,0.234l4.017,14.073c0.115,0.48,0.122,0.98,0.02,1.463
		l-1.75,6.8c-0.104,0.405,0.153,0.735,0.57,0.735h8.86c0.44-0.018,0.82-0.313,0.946-0.735l1.752-6.8
		c0.14-0.479,0.358-0.932,0.645-1.34l22.64-30.05c0.25-0.333,0.115-0.604-0.3-0.6l-2.377,0.015L253.195,4.266z M181.97,21.9
		c-0.053,0.444-0.47,0.776-0.887,0.776h-11.367c-0.393,0-0.593-0.267-0.535-0.597c0.003-0.01,0.005-0.018,0.01-0.026
		c-0.005-0.01-0.005-0.022-0.001-0.035l0.052-0.193c1.086-2.886,3.297-4.78,7.453-4.78c4.68,0,5.592,2.286,5.274,4.856L181.97,21.9z
		 M178.635,8.78c-14.6,0-18.047,8.856-19.987,17.794c-1.94,9.1-1.773,17.628,13.325,17.628h0.536l0.144-0.001h0.974h0.177h0.562
		l1.842-0.006l9.606-0.06c0.414-0.006,0.82-0.34,0.905-0.745l1.46-7.132c0.084-0.408-0.2-0.742-0.606-0.742H174
		c-5.398,0-7-1.435-6.4-5.652h21.697c0.355-0.012,0.669-0.231,0.803-0.56c0.027-0.064,0.044-0.131,0.053-0.2
		c3.22-12.15,2.296-20.333-11.505-20.333L178.635,8.78z M109.675,21.855l-0.205,0.727c0,0.002-1.64,5.808-1.64,5.808l-1.638,5.805
		c-0.113,0.4-0.547,0.73-0.964,0.73h-8.672c-6.578,0-8.18-5.144-6.578-12.733c1.6-7.76,4.74-12.586,11.215-13.074
		c8.847-0.667,10.617,5.555,8.48,12.738L109.675,21.855z M115.622,34.478c0,0,4.088-9.927,5.017-15.66
		C121.906,11.13,118.063,0,103.22,0C88.46,0,82.05,10.628,79.606,22.18c-2.445,11.637,0.76,21.843,15.434,21.76l22.398-0.082
		c0.44-0.023,0.818-0.317,0.949-0.737l1.885-7.2c0.099-0.293-0.058-0.611-0.351-0.71c-0.069-0.023-0.142-0.033-0.215-0.028
		l-3.613-0.022c-0.355-0.002-0.557-0.232-0.514-0.536c0.008-0.058,0.022-0.115,0.044-0.17L115.622,34.478z"/>
	<path fill="#E8E9EB" d="M188.686,27.824c-0.001,0.275-0.223,0.497-0.498,0.498c-0.275-0.001-0.497-0.223-0.498-0.498
		c0-0.275,0.223-0.497,0.498-0.497S188.686,27.549,188.686,27.824z"/>
</g>
<path fill="#0868AC" d="M2.923,14.917c-4.075,5.857-3.568,13.478-0.455,19.7c0.074,0.15,0.152,0.296,0.228,0.443l0.146,0.28
	l0.1,0.16l0.162,0.3l0.297,0.5l0.17,0.28l0.345,0.54l0.147,0.227c0.162,0.243,0.329,0.483,0.5,0.72
	c0.004,0.006,0.01,0.013,0.014,0.02c0.027,0.038,0.057,0.075,0.084,0.113c0.148,0.204,0.3,0.406,0.455,0.605l0.17,0.218l0.42,0.517
	l0.16,0.192c0.192,0.227,0.387,0.45,0.586,0.67c0.02,0.022,0.027,0.027,0.035,0.037c0.196,0.212,0.394,0.422,0.596,0.628l0.2,0.192
	l0.476,0.467l0.195,0.185c0.214,0.202,0.431,0.399,0.652,0.593l0.124,0.105l0.592,0.5l0.245,0.196l0.494,0.386l0.264,0.2
	l0.554,0.397l0.202,0.143c0.02,0.013,0.036,0.026,0.055,0.04c0.177,0.122,0.358,0.24,0.538,0.356l0.233,0.155
	c0.278,0.177,0.559,0.349,0.842,0.516l0.233,0.13l0.632,0.355c0.115,0.062,0.233,0.12,0.35,0.18l0.452,0.235l0.104,0.05l0.185,0.1
	l0.717,0.332l0.152,0.068c0.277,0.12,0.555,0.236,0.836,0.347l0.204,0.08l0.8,0.292l0.1,0.035c0.292,0.101,0.585,0.197,0.88,0.288
	l0.212,0.063c0.3,0.1,0.598,0.2,0.908,0.257c19.7,3.594,25.433-11.844,25.433-11.844c-4.808,6.264-13.343,7.916-21.43,6.077
	c-0.306-0.07-0.603-0.165-0.902-0.253l-0.225-0.068c-0.292-0.1-0.58-0.184-0.87-0.283l-0.12-0.043
	c-0.257-0.091-0.512-0.186-0.766-0.284l-0.215-0.085c-0.278-0.1-0.554-0.224-0.827-0.344l-0.165-0.073l-0.698-0.325l-0.202-0.097
	l-0.54-0.275l-0.36-0.2c-0.218-0.117-0.434-0.238-0.647-0.363l-0.22-0.122c-0.284-0.167-0.564-0.339-0.842-0.516l-0.227-0.152
	l-0.6-0.398c-0.066-0.045-0.13-0.092-0.193-0.136l-0.567-0.4l-0.75-0.6l-0.228-0.183l-0.637-0.537
	c-0.022-0.02-0.046-0.038-0.07-0.06l-0.87-0.78l-0.48-0.47l-0.2-0.2l-0.6-0.624l-0.03-0.03c-0.204-0.223-0.404-0.45-0.599-0.681
	L9.71,33.775l-0.43-0.532l-0.158-0.197l-0.498-0.662c-4.5-6.124-6.102-14.57-2.514-21.506 M15.593,9.972
	c-2.947,4.24-2.787,9.918-0.488,14.404c0.386,0.753,0.821,1.48,1.303,2.176c0.442,0.633,0.93,1.386,1.517,1.894
	c0.214,0.235,0.434,0.463,0.66,0.686l0.174,0.172c0.22,0.215,0.445,0.424,0.676,0.628c0.01,0.007,0.018,0.017,0.027,0.024
	c0.26,0.226,0.525,0.447,0.796,0.66l0.18,0.14c0.27,0.208,0.545,0.409,0.825,0.603l0.024,0.018c0.124,0.086,0.25,0.166,0.377,0.248
	l0.178,0.118c0.2,0.13,0.405,0.254,0.612,0.375c0.03,0.018,0.058,0.033,0.087,0.05l0.54,0.302c0.063,0.036,0.128,0.067,0.192,0.1
	l0.378,0.196c0.02,0.01,0.04,0.018,0.057,0.026c0.261,0.128,0.524,0.251,0.79,0.368c0.057,0.025,0.116,0.048,0.174,0.072
	l0.647,0.263l0.277,0.1c0.197,0.073,0.395,0.14,0.594,0.207l0.27,0.086c0.283,0.088,0.563,0.2,0.86,0.248
	c15.217,2.52,18.73-9.195,18.73-9.195c-3.167,4.56-9.3,6.737-15.844,5.038c-0.289-0.076-0.577-0.159-0.862-0.249
	c-0.087-0.026-0.172-0.055-0.26-0.084c-0.202-0.066-0.403-0.135-0.603-0.208l-0.272-0.1l-0.65-0.26l-0.175-0.074
	c-0.27-0.117-0.533-0.24-0.794-0.37l-0.398-0.203l-0.23-0.118c-0.17-0.092-0.338-0.187-0.504-0.284l-0.12-0.068
	c-0.206-0.12-0.409-0.244-0.61-0.372c-0.062-0.04-0.122-0.082-0.184-0.123l-0.395-0.26c-0.279-0.194-0.553-0.395-0.822-0.602
	l-0.185-0.146c-2.865-2.262-5.135-5.352-6.215-8.857C15.797,13.966,16.04,9.886,18,6.575 M26.213,6.295
	c-1.737,2.557-1.908,5.732-0.702,8.556c1.27,2.997,3.876,5.35,6.917,6.464l0.378,0.13l0.167,0.053l0.542,0.156
	c8.402,1.623,10.68-4.312,11.288-5.185c-1.996,2.874-5.35,3.564-9.468,2.565c-0.337-0.087-0.669-0.19-0.996-0.308
	c-0.404-0.142-0.799-0.309-1.183-0.5c-0.73-0.35-1.428-0.777-2.074-1.265c-3.684-2.795-5.972-8.126-3.568-12.47 M120.844,56.085
	l-2.422,5.516h-2.674l0.22-5.012L114,61.6h-2.6l-0.068-5.516l0.286-1.362h1.833l-0.353,5.448l2.035-5.448h2.556l-0.185,5.516
	l2.018-5.516h1.597l-0.286,1.362L120.844,56.085z M125.062,57.728c0.236-1.077,0.168-1.278-0.387-1.278h-0.84l-0.538,2.523
	l-0.824,2.64h-1.564l1.463-6.86h1.43l0.185,0.403c0,0,0.824-0.487,1.63-0.487c1.716,0,1.582,1.294,1.2,3.06h-1.765L125.062,57.728z
	 M130.142,53.875c-0.7,0-1.126-0.202-0.958-1.042c0.185-0.842,0.723-1.043,1.395-1.043s1.127,0.202,0.942,1.043
	C131.353,53.657,130.815,53.875,130.142,53.875L130.142,53.875z M129.402,61.611h-1.548l0.303-2.7l0.538-2.5l-1.076-0.236
	l0.303-1.462h2.942l-1.462,6.878V61.611z M136.102,56.191l-1.934,0.236l-0.556,2.624c-0.152,0.723-0.152,0.925,0.488,0.925h1.295
	l-0.27,1.38c0,0-1.176,0.353-1.682,0.353c-1.984,0-1.968-1.093-1.614-2.725l0.538-2.572l-1.077-0.235l0.32-1.463h1.127l0.64-1.733
	h1.53l-0.37,1.733h1.884l-0.32,1.48L136.102,56.191z M140.12,56.279c-0.908,0-1.38,0.47-1.564,1.312l2.6-0.218
	c0.118-0.572,0-1.093-1.026-1.093L140.12,56.279z M138.304,58.835c-0.12,0.842,0.2,1.127,1.277,1.127h2.707l-0.27,1.278
	c0,0-1.63,0.454-2.842,0.454c-3,0-3.044-1.697-2.657-3.514c0.387-1.783,1.076-3.548,3.985-3.548c2.8,0,2.944,1.697,2.254,4.203
	h-4.456L138.304,58.835z M148.942,61.6h-1.546l0.303-2.7l1.093-5.113l-1.077-0.252l0.32-1.463h2.944l-2.036,9.518L148.942,61.6z
	 M154.53,56.28c-0.9,0-1.38,0.47-1.565,1.312l2.6-0.218c0.117-0.572,0-1.093-1.025-1.093L154.53,56.28z M152.713,58.836
	c-0.118,0.842,0.202,1.127,1.278,1.127h2.708l-0.27,1.278c0,0-1.632,0.454-2.843,0.454c-3,0-3.043-1.697-2.657-3.514
	c0.387-1.783,1.077-3.548,3.986-3.548c2.8,0,2.943,1.697,2.254,4.203h-4.457L152.713,58.836z M164.265,56.363l-2.506,0.017
	c-1.144,0-1.262,0.352-1.345,0.722l-0.068,0.337l3.633,0.27c0,0,0.017,1.16-0.135,1.816c-0.218,1.093-1.345,2.202-3.38,2.202
	c-1,0-2.64-0.386-2.64-0.386l0.286-1.33h2.506c1.1,0,1.262-0.303,1.33-0.605l0.084-0.437l-3.565-0.27c0,0-0.134-0.892,0.05-1.782
	c0.27-1.212,1.38-2.254,3.414-2.254c1,0,2.64,0.37,2.64,0.37l-0.303,1.33L164.265,56.363z M171.025,56.363l-2.506,0.017
	c-1.144,0-1.26,0.352-1.345,0.722l-0.068,0.337l3.633,0.27c0,0,0.017,1.16-0.135,1.816c-0.218,1.093-1.345,2.202-3.38,2.202
	c-1,0-2.64-0.386-2.64-0.386l0.286-1.33h2.506c1.1,0,1.26-0.303,1.33-0.605l0.084-0.437l-3.565-0.27c0,0-0.134-0.892,0.05-1.782
	c0.27-1.212,1.38-2.254,3.414-2.254c1,0,2.64,0.37,2.64,0.37l-0.303,1.33L171.025,56.363z M173.143,62.705H171.8l0.05-1
	c-0.488-0.032-0.74-0.386-0.623-0.975c0.185-0.84,0.707-1.042,1.396-1.042c0.673,0,1.126,0.202,0.942,1.042l-0.42,1.985
	L173.143,62.705z M182.14,56.432c-1,0-1.36,0.605-1.597,1.715s-0.168,1.765,0.84,1.765h1.396l0.774-3.48H182.14z M184.444,60.72
	l-0.186,0.892l-1.412-0.017l-0.202-0.437c0,0-1.245,0.537-2.085,0.537c-2.153,0-2.254-1.765-1.868-3.548
	c0.387-1.817,1.228-3.532,3.364-3.532c0.774,0,1.816,0.387,1.816,0.387l0.858-2.9h1.548l-1.833,8.627V60.72z M190,56.363
	c-1.3,0-1.733,0.74-1.968,1.816c-0.218,1.093-0.117,1.833,1.177,1.833c1.346,0,1.75-0.723,1.984-1.833
	c0.236-1.043,0.168-1.816-1.194-1.816L190,56.363z M188.857,61.711c-2.775,0-2.994-1.732-2.624-3.532
	c0.387-1.8,1.363-3.514,4.138-3.514c2.757,0,3,1.715,2.623,3.514c-0.386,1.833-1.362,3.532-4.136,3.532H188.857z M204.6,61.611
	l0.303-2.657l0.15-0.757c0.22-1,0.353-1.75-0.707-1.75h-0.824c0.034,0.522-0.068,1.1-0.202,1.732l-0.723,3.43h-1.564l0.303-2.657
	l0.15-0.757c0.22-1,0.353-1.75-0.705-1.75h-0.673l-1.1,5.163h-1.8l1.463-6.878h1.413l0.218,0.42c0,0,0.96-0.505,1.733-0.505
	c0.588,0,1.026,0.27,1.178,0.605c0.336-0.185,1.295-0.605,1.985-0.605c2.15,0,2.085,1.75,1.697,3.532l-0.723,3.43h-1.564
	L204.6,61.611z M211.76,56.363c-1.312,0-1.733,0.74-1.968,1.816c-0.218,1.093-0.117,1.833,1.177,1.833
	c1.345,0,1.75-0.723,1.985-1.833C213.189,57.136,213.122,56.363,211.76,56.363z M210.616,61.711c-2.776,0-2.994-1.732-2.624-3.532
	c0.387-1.8,1.362-3.514,4.137-3.514c2.76,0,3,1.715,2.623,3.514C214.366,60.012,213.39,61.711,210.616,61.711L210.616,61.711z
	 M219.416,57.728c0.235-1.077,0.168-1.278-0.386-1.278h-0.842l-0.538,2.523l-0.824,2.64h-1.564l1.463-6.86h1.43l0.184,0.403
	c0,0,0.824-0.487,1.632-0.487c1.715,0,1.58,1.294,1.2,3.06h-1.765L219.416,57.728z M225.44,56.28c-0.907,0-1.38,0.47-1.563,1.312
	l2.588-0.218c0.12-0.572,0-1.093-1.025-1.093V56.28z M223.624,58.836c-0.117,0.842,0.202,1.127,1.278,1.127h2.708l-0.27,1.278
	c0,0-1.632,0.454-2.842,0.454c-3,0-3.044-1.697-2.658-3.514c0.387-1.783,1.077-3.548,3.986-3.548c2.808,0,2.944,1.697,2.254,4.203
	h-4.457L223.624,58.836z M229.59,61.712c-0.707,0-1.143-0.202-0.958-1.025c0.167-0.843,0.7-1.043,1.396-1.043
	c0.655,0,1.1,0.2,0.942,1.043C230.784,61.494,230.247,61.712,229.59,61.712z"/>
</svg>
