<?xml version="1.0" encoding="utf-8"?>
<!-- Generator: Adobe Illustrator 17.0.0, SVG Export Plug-In . SVG Version: 6.00 Build 0)  -->
<!DOCTYPE svg PUBLIC "-//W3C//DTD SVG 1.1//EN" "http://www.w3.org/Graphics/SVG/1.1/DTD/svg11.dtd">
<svg version="1.1" id="Laag_1" xmlns="http://www.w3.org/2000/svg" xmlns:xlink="http://www.w3.org/1999/xlink" x="0px" y="0px"
	 width="1771px" height="2500px" viewBox="0 0 1771 2500" enable-background="new 0 0 1771 2500" xml:space="preserve">
<path fill="#E44D26" d="M161.169,2299.104L0,491.376h1771l-161.346,1807.442l-725.241,201.065L161.169,2299.104z"/>
<path fill="#F16529" d="M885.5,2346.201l586.024-162.477L1609.412,639.19H885.5V2346.201z"/>
<path fill="#EBEBEB" d="M885.5,1309.651H592.126l-20.266-227.034H885.5V860.903H329.551l5.313,59.481l54.49,610.971H885.5V1309.651z
	 M885.5,1885.451l-0.974,0.266l-246.918-66.678l-15.786-176.818H399.264l31.065,348.118l454.157,126.075l1.014-0.286V1885.451z"/>
<path fill="#E8E9EB" d="M164.775,0.117h112.668v111.315h103.064V0.117h112.672v337.094H380.507V224.334H277.443v112.877h-112.66
	L164.775,0.117z M641.351,111.907h-99.184V0.117h311.104v111.79h-99.232v225.303H641.355V111.907H641.351z M902.638,0.117h117.49
	l72.269,118.448l72.2-118.448h117.53v337.094h-112.225V170.125l-77.518,119.856h-1.936l-77.57-119.856v167.086H902.634V0.117
	H902.638z M1338.192,0.117h112.7v225.674h158.456v111.42h-271.156V0.117z"/>
<path fill="#FFFFFF" d="M884.735,1309.651v221.705h273.016l-25.74,287.546l-247.276,66.734v230.661l454.519-125.958l3.325-37.469
	l52.108-583.681l5.41-59.538h-59.739L884.735,1309.651z M884.735,860.903v221.713h535.538l4.44-49.838l10.103-112.394l5.305-59.481
	L884.735,860.903z"/>
</svg>
