<?xml version="1.0" encoding="utf-8"?>
<!-- Generator: Adobe Illustrator 17.0.0, SVG Export Plug-In . SVG Version: 6.00 Build 0)  -->
<!DOCTYPE svg PUBLIC "-//W3C//DTD SVG 1.1//EN" "http://www.w3.org/Graphics/SVG/1.1/DTD/svg11.dtd">
<svg version="1.1" id="Laag_1" xmlns="http://www.w3.org/2000/svg" xmlns:xlink="http://www.w3.org/1999/xlink" x="0px" y="0px"
	 width="512px" height="512px" viewBox="0 0 512 512" enable-background="new 0 0 512 512" xml:space="preserve">
<rect x="-4.832" y="-4.832" fill="#3CEDB8" width="521.663" height="521.663"/>
<g>
	<path fill="#71F2CC" d="M253.142,256.562c0.016-0.361,0.042-0.721,0.078-1.08c1.926,0.121,4.006-0.574,5.638,1.08
		C256.953,256.562,255.047,256.562,253.142,256.562z"/>
	<path fill="#FFFFFF" d="M337.067,316.926c-14.227,14.725-30.937,25.031-51.313,28.791c-13.863,2.558-27.601,2.28-41.155-1.901
		c-3.189-1.693-4.976-4.491-6.315-7.732c-11.372-27.524-22.744-55.048-34.127-82.568c-4.205-10.167-8.264-20.396-12.675-30.478
		c-1.47-3.359-2.416-6.782-1.729-10.485c14.596-26.246,37.055-41.443,66.504-45.63c30.714-4.366,56.964,5.436,78.688,27.504
		c0.657,0.668,1.424,1.227,2.14,1.837c2.887-0.222,4.41,1.654,5.951,3.691c7.41,9.795,12.76,20.593,16.155,32.395
		c0.587,2.043,0.713,5.848,3.217,5.167c3.35-0.911,0.972-4.321,0.371-6.307c-4.015-13.272-10.764-25.07-20.236-35.212
		c-2.125-2.276-3.4-4.995-5.111-7.478c-0.066-6.473-0.024-12.95-0.245-19.418c-0.105-3.077,1.231-3.901,4.057-3.898
		c36.576,0.051,73.153,0.051,109.729,0c2.844-0.004,4.078,0.862,4.043,3.915c-0.129,11.429-0.185,22.862,0.018,34.289
		c0.075,4.23-2.479,3.898-5.204,3.897c-20.574-0.009-41.151,0.169-61.721-0.118c-5.48-0.076-7.978,0.946-7.409,7.118
		c0.61,6.611,0.413,13.338,0.045,19.985c-0.26,4.696,1.167,6.233,6.009,6.167c19.047-0.259,38.103,0.121,57.147-0.244
		c5.688-0.109,7.094,1.688,6.848,7.089c-0.432,9.506-0.327,19.051-0.028,28.567c0.134,4.265-1.148,5.509-5.441,5.46
		c-19.429-0.221-38.865,0.101-58.29-0.227c-5.198-0.088-6.339,1.526-6.264,6.438c0.282,18.284,0.004,36.576,0.195,54.862
		c0.042,3.985-1.108,5.226-5.128,5.135c-11.234-0.254-22.479-0.209-33.716-0.019c-3.569,0.06-5.171-0.752-4.925-4.685
		c0.355-5.693,0.194-11.419,0.253-17.131c1.615-5.734,6.158-9.471,9.684-13.843c7.254-8.997,12.157-19.15,15.805-30.001
		c0.484-1.44,0.681-2.956,0.92-4.452c0.125-0.783-0.13-1.556-0.917-1.879c-1.09-0.447-1.824,0.186-2.291,1.087
		c-0.701,1.35-1.089,2.817-1.491,4.284c-3.24,11.833-8.639,22.589-16.102,32.329C341.464,315.248,339.945,317.128,337.067,316.926z"
		/>
	<path fill="#FFFFFF" d="M231.659,340.468c0.61,1.753,2.017,3.278,1.49,5.682c-15.149,0-30.341-0.024-45.532,0.024
		c-2.479,0.008-3.114-1.636-3.833-3.477c-2.422-6.203-5.05-12.328-7.32-18.584c-1.038-2.86-2.342-4.211-5.67-4.181
		c-17.902,0.16-35.807,0.131-53.709-0.029c-3.193-0.029-4.797,1.014-5.834,4.006c-2.054,5.928-4.664,11.668-6.626,17.623
		c-1.193,3.62-2.943,4.985-6.922,4.883c-11.61-0.297-23.234-0.077-34.852-0.072c-6.826,0.003-6.845-0.014-4.411-6.148
		c18.804-47.391,37.616-94.778,56.426-142.166c3.86-9.725,7.826-19.411,11.521-29.198c1.156-3.063,2.566-4.523,6.129-4.36
		c7.604,0.348,15.233,0.222,22.85,0.185c2.299-0.011,3.899,0.447,4.88,2.881c7.534,18.693,15.185,37.34,22.8,56
		c2.893,1.037,4.483,3.219,5.641,5.974c6.479,15.411,12.799,30.888,19.208,46.328c7.502,18.075,15.036,36.137,22.418,54.262
		C231.667,333.428,233.288,336.743,231.659,340.468z"/>
	<path fill="#F2F2F2" d="M231.659,340.468c-15.41-37.254-30.818-74.51-46.24-111.759c-0.725-1.751-1.58-3.449-2.375-5.172
		c3.64-2.804,3.581-7.868,6.709-10.985c6.463,15.383,12.954,30.754,19.382,46.151c11.841,28.362,23.644,56.74,35.463,85.112
		C240.048,343.618,236.358,340.091,231.659,340.468z"/>
	<path fill="#F2F2F2" d="M337.067,316.926c9.799-12.364,17.554-25.767,20.642-41.451c0.913-4.635,4.355-3.51,7.164-3.353
		c4.025,0.224,2.339,3.224,1.876,5.135c-4.657,19.234-14.34,35.461-29.344,48.445C337.292,322.776,337.18,319.851,337.067,316.926z"
		/>
	<path fill="#F2F2F2" d="M337.432,188.52c8.468,5.013,13.583,13.118,18.614,21.066c5.09,8.04,8.757,16.869,10.701,26.272
		c0.398,1.925,2.173,4.911-1.849,5.15c-2.798,0.166-6.341,1.33-7.17-3.316c-1.518-8.516-5.141-16.236-8.943-23.939
		c-3.151-6.383-7.702-11.728-11.7-17.489C337.201,193.682,337.317,191.101,337.432,188.52z"/>
	<path fill="#3CEDB8" d="M337.067,271.075c0,0-9.821,0.2-14.502,0.362c-3.889-0.051-5.988,0.975-7.669,4.848
		c-9.626,22.179-33.025,34.36-55.942,29.527c-23.471-4.95-40.214-25.114-40.467-48.735c-0.254-23.738,16.322-44.239,40.091-49.585
		c22.75-5.116,46.728,7.104,56.164,29.033c1.732,4.026,3.787,5.235,8.007,5.195c4.841-0.046,14.336,0.061,14.336,0.061
		L337.067,271.075z"/>
	<path fill="#3CEDB8" d="M159.153,278.603c-10.347,0-19.906,0-30.094,0c4.79-13.812,9.42-27.163,14.576-42.033
		C149.092,251.351,154.033,264.735,159.153,278.603z"/>
</g>
</svg>
