<?xml version="1.0" encoding="utf-8"?>
<!-- Generator: Adobe Illustrator 17.0.0, SVG Export Plug-In . SVG Version: 6.00 Build 0)  -->
<!DOCTYPE svg PUBLIC "-//W3C//DTD SVG 1.1//EN" "http://www.w3.org/Graphics/SVG/1.1/DTD/svg11.dtd">
<svg version="1.1" id="Laag_1" xmlns="http://www.w3.org/2000/svg" xmlns:xlink="http://www.w3.org/1999/xlink" x="0px" y="0px"
	 width="483.108px" height="230.052px" viewBox="14.45 140.978 483.108 230.052"
	 enable-background="new 14.45 140.978 483.108 230.052" xml:space="preserve">
<g id="Background">
</g>
<g id="Guides">
</g>
<g>
	<path fill="#005A9C" d="M128.832,142.265L169.785,281.5l40.953-139.236h29.653h81.38v13.838l-41.806,72.021
		c14.684,4.715,25.792,13.284,33.323,25.707c7.531,12.43,11.3,27.015,11.3,43.769c0,20.722-5.511,38.137-16.526,52.252
		c-11.015,14.116-25.28,21.177-42.788,21.177c-13.184,0-24.668-4.188-34.453-12.565c-9.792-8.377-17.038-19.719-21.746-34.034
		l23.154-9.6c3.392,8.661,7.865,15.488,13.419,20.473c5.554,4.992,12.096,7.481,19.627,7.481c7.908,0,14.592-4.423,20.053-13.269
		c5.461-8.853,8.192-19.484,8.192-31.922c0-13.746-2.923-24.384-8.754-31.915c-6.784-8.846-17.422-13.276-31.922-13.276H241.55
		v-13.554l39.538-68.352h-47.73l-2.716,4.622l-58.048,195.897h-2.823l-42.368-141.774L85.042,371.015h-2.823L14.45,142.265h29.653
		L85.056,281.5l27.676-93.76l-13.554-45.476C99.179,142.265,128.832,142.265,128.832,142.265z"/>
</g>
<path fill="#E8E9EB" d="M475.876,142.265c-5.824,0-11.051,2.098-15.012,6.123c-4.203,4.267-6.542,9.785-6.542,15.488
	s2.226,10.987,6.308,15.132c4.146,4.203,9.486,6.485,15.253,6.485c5.639,0,11.108-2.283,15.367-6.421
	c4.082-3.961,6.308-9.244,6.308-15.189c0-5.767-2.283-11.164-6.244-15.189C487.161,144.484,481.756,142.265,475.876,142.265z
	 M494.67,164.06c0,4.985-1.927,9.607-5.461,13.028c-3.726,3.605-8.348,5.525-13.454,5.525c-4.8,0-9.543-1.977-13.084-5.582
	c-3.541-3.605-5.525-8.228-5.525-13.148c0-4.921,2.041-9.728,5.703-13.447c3.42-3.484,8.043-5.34,13.084-5.34
	c5.163,0,9.785,1.927,13.39,5.582C492.807,154.155,494.67,158.834,494.67,164.06z M476.473,151.211h-9.244v24.498h4.622v-10.446
	h4.565l4.985,10.446h5.163l-5.468-11.164c3.541-0.725,5.582-3.122,5.582-6.606C486.677,153.493,483.321,151.211,476.473,151.211z
	 M475.634,154.212c4.324,0,6.3,1.202,6.3,4.203c0,2.88-1.977,3.904-6.187,3.904h-3.904v-8.107
	C471.844,154.212,475.634,154.212,475.634,154.212z"/>
<g id="Calque_1">
	<g>
		<path fill="#E8E9EB" d="M439.516,140.978l4.807,29.205l-17.003,32.533c0,0-6.528-13.803-17.372-21.44
			c-9.138-6.436-15.09-7.836-24.398-5.916c-11.954,2.468-25.508,16.761-31.424,34.382c-7.076,21.084-7.147,31.289-7.396,40.661
			c-0.398,15.026,1.97,23.908,1.97,23.908s-10.325-19.1-10.226-47.076c0.064-19.968,3.207-38.073,12.444-55.943
			c8.128-15.708,20.21-25.138,30.933-26.247c11.086-1.145,19.847,4.196,26.617,9.977c7.111,6.073,14.293,19.349,14.293,19.349
			L439.516,140.978z"/>
		<path fill="#E8E9EB" d="M441.614,306.226c0,0-7.516,13.433-12.196,18.61c-4.686,5.177-13.063,14.293-23.41,18.852
			c-10.347,4.558-15.772,5.419-25.998,4.437c-10.219-0.981-19.712-6.898-23.04-9.365c-3.328-2.468-11.833-9.735-16.64-16.512
			c-4.807-6.777-12.324-20.331-12.324-20.331s4.188,13.582,6.812,19.349c1.508,3.321,6.144,13.468,12.722,22.3
			c6.137,8.242,18.055,22.428,36.167,25.628c18.112,3.207,30.556-4.928,33.636-6.898c3.079-1.97,9.572-7.41,13.682-11.804
			c4.288-4.587,8.348-10.439,10.596-13.952c1.643-2.56,4.316-7.765,4.316-7.765L441.614,306.226z"/>
	</g>
</g>
</svg>
