<?xml version="1.0" encoding="utf-8"?>
<!-- Generator: Adobe Illustrator 17.0.0, SVG Export Plug-In . SVG Version: 6.00 Build 0)  -->
<!DOCTYPE svg PUBLIC "-//W3C//DTD SVG 1.1//EN" "http://www.w3.org/Graphics/SVG/1.1/DTD/svg11.dtd">
<svg version="1.1" id="Laag_1" xmlns="http://www.w3.org/2000/svg" xmlns:xlink="http://www.w3.org/1999/xlink" x="0px" y="0px"
	 width="490.373px" height="246.395px" viewBox="10.814 132.803 490.373 246.395"
	 enable-background="new 10.814 132.803 490.373 246.395" xml:space="preserve">
<g>
	<path fill="#E8E9EB" d="M49.618,184.632h72.724c21.345,0.179,36.813,6.333,46.403,18.452c9.59,12.119,12.754,28.672,9.498,49.659
		c-1.265,9.59-4.07,18.995-8.412,28.221c-4.163,9.226-9.948,17.546-17.367,24.965c-9.047,9.405-18.724,15.375-29.036,17.91
		s-20.987,3.799-32.02,3.799H58.844l-10.312,51.558H10.814L49.618,184.632L49.618,184.632 M81.367,215.567l-16.282,81.408
		c1.085,0.179,2.171,0.271,3.256,0.271c1.265,0,2.534,0,3.799,0c17.367,0.179,31.841-1.536,43.418-5.156
		c11.576-3.799,19.359-17.004,23.337-39.619c3.256-18.995,0-29.942-9.769-32.835c-9.59-2.893-21.617-4.25-36.091-4.07
		c-2.171,0.179-4.25,0.271-6.241,0.271c-1.807,0-3.707,0-5.699,0L81.367,215.567"/>
	<path fill="#E8E9EB" d="M221.21,132.803h37.448l-10.583,51.83h33.649c18.452,0.364,32.2,4.163,41.247,11.397
		c9.226,7.235,11.94,20.987,8.141,41.247l-18.181,90.363h-37.99l17.367-86.292c1.807-9.047,1.265-15.468-1.628-19.267
		s-9.134-5.699-18.724-5.699l-30.121-0.271l-22.252,111.529h-37.448L221.21,132.803L221.21,132.803"/>
	<path fill="#E8E9EB" d="M371.323,184.632h72.724c21.345,0.179,36.813,6.333,46.403,18.452s12.754,28.672,9.498,49.659
		c-1.265,9.59-4.07,18.995-8.412,28.221c-4.163,9.226-9.948,17.546-17.367,24.965c-9.047,9.405-18.724,15.375-29.035,17.91
		s-20.987,3.799-32.02,3.799h-32.563l-10.312,51.558h-37.719L371.323,184.632L371.323,184.632 M403.072,215.567l-16.282,81.408
		c1.085,0.179,2.171,0.271,3.256,0.271c1.265,0,2.534,0,3.799,0c17.367,0.179,31.841-1.536,43.418-5.156
		c11.576-3.799,19.359-17.004,23.337-39.619c3.256-18.995,0-29.942-9.769-32.835c-9.59-2.893-21.617-4.25-36.091-4.07
		c-2.171,0.179-4.25,0.271-6.241,0.271c-1.807,0-3.707,0-5.699,0L403.072,215.567"/>
</g>
</svg>
