<?xml version="1.0" encoding="utf-8"?>
<!-- Generator: Adobe Illustrator 17.0.0, SVG Export Plug-In . SVG Version: 6.00 Build 0)  -->
<!DOCTYPE svg PUBLIC "-//W3C//DTD SVG 1.1//EN" "http://www.w3.org/Graphics/SVG/1.1/DTD/svg11.dtd">
<svg version="1.1" id="Laag_1" xmlns="http://www.w3.org/2000/svg" xmlns:xlink="http://www.w3.org/1999/xlink" x="0px" y="0px"
	 width="512px" height="512px" viewBox="0 0 512 512" enable-background="new 0 0 512 512" xml:space="preserve">
<g>
	<polygon fill="#1B3761" stroke="#121326" stroke-width="8.2995" stroke-miterlimit="10" points="256.003,506 6,255.996 256.003,6 
		506,255.996 	"/>
	<g>
		<path fill="#E62F25" d="M193.659,150.351c2.011,0,3.651,1.645,3.651,3.662c0,2.002-1.64,3.637-3.651,3.637
			c-2.008,0-3.649-1.634-3.649-3.637C190.01,151.996,191.651,150.351,193.659,150.351 M193.659,147.134
			c-3.781,0-6.871,3.091-6.871,6.879c0,3.783,3.09,6.852,6.871,6.852c3.782,0,6.859-3.069,6.859-6.852
			C200.517,150.225,197.441,147.134,193.659,147.134L193.659,147.134z"/>
		<path fill="#E62F25" d="M193.659,166.531c2.011,0,3.651,1.636,3.651,3.649c0,2.016-1.64,3.651-3.651,3.651
			c-2.008,0-3.649-1.634-3.649-3.651C190.01,168.167,191.651,166.531,193.659,166.531 M193.659,163.316
			c-3.781,0-6.871,3.086-6.871,6.866c0,3.783,3.09,6.867,6.871,6.867c3.782,0,6.859-3.083,6.859-6.867
			C200.517,166.4,197.441,163.316,193.659,163.316L193.659,163.316z"/>
		<path fill="#E62F25" d="M246.607,202.379c2.023,0,3.65,1.63,3.65,3.651c0,2.022-1.628,3.644-3.65,3.644
			c-2.009,0-3.657-1.621-3.657-3.644C242.95,204.009,244.598,202.379,246.607,202.379 M246.607,199.166
			c-3.783,0-6.859,3.082-6.859,6.865c0,3.78,3.076,6.859,6.859,6.859c3.782,0,6.864-3.079,6.864-6.859
			C253.471,202.247,250.389,199.166,246.607,199.166L246.607,199.166z"/>
		<path fill="#E62F25" d="M246.607,219.268c2.023,0,3.65,1.62,3.65,3.649c0,2.017-1.628,3.644-3.65,3.644
			c-2.009,0-3.657-1.626-3.657-3.644C242.95,220.888,244.598,219.268,246.607,219.268 M246.607,216.052
			c-3.783,0-6.859,3.083-6.859,6.866c0,3.775,3.076,6.852,6.859,6.852c3.782,0,6.864-3.078,6.864-6.852
			C253.471,219.135,250.389,216.052,246.607,216.052L246.607,216.052z"/>
		<path fill="#E62F25" d="M262.261,166.711c2.01,0,3.657,1.626,3.657,3.655c0,2.018-1.647,3.643-3.657,3.643
			c-2.024,0-3.655-1.624-3.655-3.643C258.606,168.337,260.239,166.711,262.261,166.711 M262.261,163.501
			c-3.788,0-6.865,3.083-6.865,6.865c0,3.784,3.077,6.852,6.865,6.852s6.866-3.069,6.866-6.852
			C269.127,166.584,266.051,163.501,262.261,163.501L262.261,163.501z"/>
		<path fill="#E62F25" d="M262.261,184.703c2.01,0,3.657,1.633,3.657,3.649c0,2.017-1.647,3.646-3.657,3.646
			c-2.024,0-3.655-1.628-3.655-3.646C258.606,186.336,260.239,184.703,262.261,184.703 M262.261,181.488
			c-3.788,0-6.865,3.083-6.865,6.864c0,3.782,3.077,6.852,6.865,6.852s6.866-3.07,6.866-6.852
			C269.127,184.571,266.051,181.488,262.261,181.488L262.261,181.488z"/>
		<path fill="#E62F25" d="M277.977,166.711c2.023,0,3.657,1.626,3.657,3.655c0,2.018-1.635,3.643-3.657,3.643
			c-2.003,0-3.63-1.624-3.63-3.643C274.346,168.337,275.974,166.711,277.977,166.711 M277.977,163.501
			c-3.777,0-6.851,3.083-6.851,6.865c0,3.784,3.075,6.852,6.851,6.852c3.788,0,6.871-3.069,6.871-6.852
			C284.848,166.584,281.765,163.501,277.977,163.501L277.977,163.501z"/>
		<path fill="#E62F25" d="M277.977,184.161c2.023,0,3.657,1.637,3.657,3.658c0,2.015-1.635,3.644-3.657,3.644
			c-2.003,0-3.63-1.629-3.63-3.644C274.346,185.797,275.974,184.161,277.977,184.161 M277.977,180.948
			c-3.777,0-6.851,3.083-6.851,6.872c0,3.783,3.075,6.857,6.851,6.857c3.788,0,6.871-3.073,6.871-6.857
			C284.848,184.03,281.765,180.948,277.977,180.948L277.977,180.948z"/>
		<path fill="#E62F25" d="M210.864,252.505c2.03,0,3.662,1.629,3.662,3.645c0,2.022-1.633,3.649-3.662,3.649
			c-1.998,0-3.644-1.626-3.644-3.649C207.22,254.134,208.866,252.505,210.864,252.505 M210.864,249.297
			c-3.776,0-6.86,3.07-6.86,6.854c0,3.779,3.085,6.867,6.86,6.867c3.795,0,6.871-3.088,6.871-6.867
			C217.735,252.367,214.658,249.297,210.864,249.297L210.864,249.297z"/>
		<path fill="#E62F25" d="M193.112,253.171c2.01,0,3.645,1.63,3.645,3.636c0,2.021-1.635,3.655-3.645,3.655
			c-2.028,0-3.65-1.635-3.65-3.655C189.463,254.801,191.084,253.171,193.112,253.171 M193.112,249.955
			c-3.78,0-6.859,3.079-6.859,6.852c0,3.789,3.078,6.867,6.859,6.867c3.775,0,6.854-3.078,6.854-6.867
			C199.965,253.033,196.886,249.955,193.112,249.955L193.112,249.955z"/>
		<path fill="#E62F25" d="M210.864,269.118c2.03,0,3.662,1.625,3.662,3.642c0,2.016-1.633,3.648-3.662,3.648
			c-1.998,0-3.644-1.632-3.644-3.648C207.22,270.744,208.866,269.118,210.864,269.118 M210.864,265.9c-3.776,0-6.86,3.077-6.86,6.86
			c0,3.789,3.085,6.863,6.86,6.863c3.795,0,6.871-3.073,6.871-6.863C217.735,268.977,214.658,265.9,210.864,265.9L210.864,265.9z"/>
		<path fill="#E62F25" d="M193.185,269.196c2.03,0,3.663,1.635,3.663,3.648c0,2.015-1.634,3.659-3.663,3.659
			c-1.997,0-3.638-1.644-3.638-3.659C189.547,270.83,191.188,269.196,193.185,269.196 M193.185,265.986
			c-3.768,0-6.852,3.077-6.852,6.857c0,3.783,3.085,6.864,6.852,6.864c3.795,0,6.874-3.081,6.874-6.864
			C200.059,269.063,196.981,265.986,193.185,265.986L193.185,265.986z"/>
		<path fill="#E62F25" d="M228.375,354.347c2.016,0,3.65,1.635,3.65,3.646c0,2.02-1.635,3.654-3.65,3.654
			c-2.009,0-3.643-1.635-3.643-3.654C224.733,355.981,226.366,354.347,228.375,354.347 M228.375,351.137
			c-3.788,0-6.858,3.077-6.858,6.856c0,3.797,3.07,6.869,6.858,6.869c3.789,0,6.872-3.071,6.872-6.869
			C235.248,354.213,232.165,351.137,228.375,351.137L228.375,351.137z"/>
		<path fill="#E62F25" d="M330.475,202.379c2.021,0,3.639,1.63,3.639,3.651c0,2.022-1.617,3.644-3.639,3.644
			c-2.016,0-3.662-1.621-3.662-3.644C326.812,204.009,328.459,202.379,330.475,202.379 M330.475,199.166
			c-3.788,0-6.879,3.082-6.879,6.865c0,3.78,3.092,6.859,6.879,6.859c3.782,0,6.86-3.079,6.86-6.859
			C337.334,202.247,334.257,199.166,330.475,199.166L330.475,199.166z"/>
		<path fill="#E62F25" d="M346.651,202.379c2.016,0,3.644,1.63,3.644,3.651c0,2.022-1.628,3.644-3.644,3.644
			c-2.024,0-3.656-1.621-3.656-3.644C342.995,204.009,344.627,202.379,346.651,202.379 M346.651,199.166
			c-3.782,0-6.866,3.082-6.866,6.865c0,3.78,3.084,6.859,6.866,6.859c3.782,0,6.86-3.079,6.86-6.859
			C353.51,202.247,350.433,199.166,346.651,199.166L346.651,199.166z"/>
		<path fill="#E62F25" d="M312.917,235.803c2.016,0,3.643,1.634,3.643,3.645c0,2.029-1.628,3.655-3.643,3.655
			c-2.016,0-3.643-1.627-3.643-3.655C309.273,237.438,310.9,235.803,312.917,235.803 M312.917,232.59
			c-3.782,0-6.866,3.082-6.866,6.859c0,3.787,3.084,6.873,6.866,6.873c3.781,0,6.86-3.086,6.86-6.873
			C319.776,235.67,316.698,232.59,312.917,232.59L312.917,232.59z"/>
		<path fill="#E62F25" d="M329.777,235.803c2.016,0,3.65,1.634,3.65,3.645c0,2.029-1.633,3.655-3.65,3.655
			c-2.029,0-3.662-1.627-3.662-3.655C326.114,237.438,327.748,235.803,329.777,235.803 M329.777,232.59
			c-3.788,0-6.872,3.082-6.872,6.859c0,3.787,3.084,6.873,6.872,6.873c3.782,0,6.859-3.086,6.859-6.873
			C336.635,235.67,333.559,232.59,329.777,232.59L329.777,232.59z"/>
		<path fill="#E62F25" d="M277.995,269.268c2.016,0,3.65,1.635,3.65,3.642c0,2.018-1.634,3.659-3.65,3.659
			c-2.023,0-3.65-1.641-3.65-3.659C274.346,270.903,275.974,269.268,277.995,269.268 M277.995,266.058
			c-3.781,0-6.86,3.078-6.86,6.851c0,3.784,3.079,6.867,6.86,6.867c3.788,0,6.865-3.083,6.865-6.867
			C284.861,269.136,281.783,266.058,277.995,266.058L277.995,266.058z"/>
		<path fill="#E62F25" d="M277.982,286.334c2.016,0,3.651,1.638,3.651,3.642c0,2.021-1.635,3.648-3.651,3.648
			c-2.009,0-3.636-1.626-3.636-3.648C274.346,287.971,275.974,286.334,277.982,286.334 M277.982,283.123
			c-3.782,0-6.857,3.068-6.857,6.852c0,3.784,3.075,6.866,6.857,6.866c3.783,0,6.866-3.081,6.866-6.866
			C284.848,286.191,281.765,283.123,277.982,283.123L277.982,283.123z"/>
		<path fill="#E62F25" d="M261.365,286.515c2.024,0,3.658,1.63,3.658,3.645c0,2.013-1.635,3.657-3.658,3.657
			c-2.015,0-3.649-1.644-3.649-3.657C257.716,288.146,259.35,286.515,261.365,286.515 M261.365,283.299
			c-3.788,0-6.864,3.078-6.864,6.861c0,3.781,3.076,6.864,6.864,6.864c3.784,0,6.867-3.083,6.867-6.864
			C268.231,286.377,265.148,283.299,261.365,283.299L261.365,283.299z"/>
		<g>
			<path fill="#E62F25" d="M335.37,176.086c6.734,7.366,8.697,20.397,9.277,26.294h3.801c-0.546-6.174-2.634-20.438-10.296-28.838
				c-9.027-9.881-21.974-21.223-42.023-21.223h-96.163v3.77h96.164C314.702,156.089,326.852,166.775,335.37,176.086z"/>
			<path fill="#E62F25" d="M283.425,168.218v3.77h6.293c1.461-0.007,34.109-0.572,37.732,30.393h3.827
				c-3.749-34.86-41.272-34.163-41.62-34.163L283.425,168.218L283.425,168.218z"/>
			<path fill="#E62F25" d="M247.377,257.935h46.011c0.407,0.04,10.088,0.387,16.326-5.58c2.339-2.228,3.85-5.056,4.56-8.36h-3.913
				c-0.626,2.209-1.675,4.115-3.228,5.618c-5.073,4.849-13.495,4.598-13.645,4.561h-49.864v21.148h15.885v9.581h3.761v-13.357
				h-15.893L247.377,257.935L247.377,257.935z"/>
			<path fill="#E62F25" d="M297.9,275.02c24.748,0,31.52-21.414,33.326-31.023h-3.776c-1.706,8.966-7.828,27.254-29.551,27.254
				H282.27v3.77H297.9z"/>
			<path fill="#E62F25" d="M314.499,220.729l-0.015-10.891c0.06-0.395,1.338-9.453-4.585-16.333
				c-4.178-4.871-10.787-7.34-19.667-7.34h-6.806v3.789h6.806c7.695,0,13.348,2.008,16.787,5.978
				c4.805,5.559,3.75,13.267,3.71,13.622v14.948h34.138c-0.16,32.598-4.712,39.92-18.279,53.482
				c-10.983,11.004-34.939,11.24-44.315,10.871v3.786c9.995,0.409,34.888,0.106,46.984-11.983
				c15.252-15.268,19.397-24.221,19.397-58.061v-1.87h-34.154V220.729z"/>
			<path fill="#E62F25" d="M222.625,356.321h-27.641v-79.082h-3.774v82.865h31.415C223.44,362.74,223.44,353.685,222.625,356.321z"
				/>
			<polygon fill="#E62F25" points="225.853,340.233 212.352,340.233 212.352,277.24 208.59,277.24 208.59,344 229.615,344 
				229.615,224.412 242.007,224.412 242.007,220.638 225.853,220.638 			"/>
			<polygon fill="#E62F25" points="208.992,252.396 212.748,252.396 212.748,207.407 242.007,207.407 242.007,203.631 
				208.992,203.631 			"/>
			<polygon fill="#E62F25" points="194.984,190.067 256.8,190.067 256.8,186.296 191.21,186.296 191.21,252.396 194.984,252.396 			
				"/>
			<rect x="199.965" y="168.337" fill="#E62F25" width="56.835" height="3.774"/>
		</g>
		<polyline fill="#E62F25" points="260.383,175.256 260.383,184.161 264.14,184.161 264.14,175.256 		"/>
		<polyline fill="#E62F25" points="276.105,174.53 276.105,183.452 279.866,183.452 279.866,174.53 		"/>
		<polyline fill="#E62F25" points="244.729,210.357 244.729,218.343 248.484,218.343 248.484,210.357 		"/>
		<polyline fill="#E62F25" points="342.112,204.147 334.113,204.147 334.113,207.907 342.112,207.907 		"/>
		<polyline fill="#E62F25" points="324.559,237.57 318.126,237.57 318.126,241.332 324.559,241.332 		"/>
		<polyline fill="#E62F25" points="279.887,284.449 279.887,278.037 276.105,278.037 276.105,284.449 		"/>
		<polyline fill="#E62F25" points="198.502,259.353 204.926,259.353 204.926,255.596 198.502,255.596 		"/>
		<polyline fill="#E62F25" points="198.502,274.795 204.926,274.795 204.926,271.036 198.502,271.036 		"/>
	</g>
</g>
</svg>
