<?xml version="1.0" encoding="utf-8"?>
<!-- Generator: Adobe Illustrator 17.0.0, SVG Export Plug-In . SVG Version: 6.00 Build 0)  -->
<!DOCTYPE svg PUBLIC "-//W3C//DTD SVG 1.1//EN" "http://www.w3.org/Graphics/SVG/1.1/DTD/svg11.dtd">
<svg version="1.1" id="Laag_1" xmlns="http://www.w3.org/2000/svg" xmlns:xlink="http://www.w3.org/1999/xlink" x="0px" y="0px"
	 viewBox="-52.102 464 2664.204 512" enable-background="new -52.102 464 2664.204 512"
	 xml:space="preserve">
<g>
	<path fill="#E9E9E9" d="M214.628,464.149C61.182,459.163-48.137,580.185-51.989,711.987
		c-4.355,148.98,117.735,266.036,256.041,263.986c142.942,1.181,249.263-114.803,255.979-239.11
		c3.889-71.977-17.764-135.427-66.323-188.82C345.835,495.405,285.529,466.452,214.628,464.149z M8.105,837.619
		C-31.06,769.99-34.241,699.616-5.033,627.722c0.747-0.05,1.495-0.102,2.242-0.153c17.966,49.524,35.85,99.078,53.922,148.563
		c17.995,49.279,36.175,98.488,53.485,148.529C63.128,906.063,30.751,876.725,8.105,837.619z M237.295,945.976
		c-15.419,1.883-31.186,2.455-46.696,1.626c-15.326-0.819-30.549-3.931-45.757-6.412c-4.479-0.731-5.455-3.433-3.745-8.29
		c14.793-42.004,29.276-84.117,43.755-126.23c7.648-22.246,15.105-44.56,23.397-69.056c24.5,67.107,48.298,132.285,72.697,199.112
		C266.462,939.899,252.029,944.176,237.295,945.976z M234.83,613.087c9.158-0.97,16.994-2.286,24.859-2.481
		c6.61-0.164,10.027-4.121,9.892-9.266c-0.135-5.127-4.684-7.767-10.395-7.635c-28.321,0.653-56.645,1.342-84.97,1.571
		c-11.265,0.091-22.552-0.799-33.803-1.59c-6.232-0.439-9.822,3.415-9.98,8.163c-0.158,4.747,3.179,8.721,9.44,8.722
		c6.115,0.002,12.278,0.674,18.318,1.675c2.089,0.346,4.953,2.159,5.626,3.98c11.118,30.112,21.972,60.324,32.773,90.554
		c0.757,2.12,1.457,4.825,0.804,6.8c-16.15,48.809-32.484,97.555-49.649,148.892c-28.54-84.752-56.318-167.246-84.047-249.593
		c9.151-0.848,17.664-2.073,26.204-2.291c6.662-0.169,8.795-4.9,8.656-9.339c-0.143-4.557-3.775-7.78-9.586-7.582
		c-22.36,0.762-44.733,1.178-67.102,1.704c-2.627,0.062-5.255,0.008-8.29,0.008c67.6-109.518,234.598-145.278,343.343-44.727
		c-7.988,3.546-17.745,5.96-25.081,11.549c-14.086,10.732-18.255,33.275-10.15,49.701c6.469,13.112,14.19,25.6,21.168,38.466
		c12.08,22.281,18.369,45.503,14.886,71.374c-4.866,36.141-18.689,69.626-28.81,104.211c-3.108,10.618-6.568,21.134-9.866,31.696
		c-0.619,0.125-1.24,0.249-1.858,0.374C289.818,776.592,262.431,695.159,234.83,613.087z M405.748,613.161
		c59.266,102.648,18.962,248.152-87.745,304.036c4.476-12.962,8.597-24.864,12.696-36.773
		c17.696-51.438,35.561-102.817,52.988-154.346c6.526-19.296,13.627-38.623,17.526-58.513
		C404.816,649.182,404.489,630.027,405.748,613.161z"/>
	<path fill="#FFFFFF" d="M648.739,765.966c-0.559-0.138-1.119-0.276-1.678-0.416c-4.312-12.819-8.745-25.598-12.909-38.464
		c-10.288-31.804-20.726-63.562-30.546-95.51c-4.913-15.979,1.392-25.273,17.798-28.083c5.977-1.023,12.018-1.672,18.026-2.49
		c0-4.362,0-8.535,0-12.792c-45.318,0-90.117,0-134.996,0c0,4.693,0,8.875,0,13.354c1.774,0.123,3.087,0.292,4.398,0.296
		c25.523,0.059,38.872,9.086,47.367,33.316c3.769,10.751,7.64,21.468,11.24,32.276c11.911,35.758,23.829,71.516,35.535,107.342
		c9.624,29.455,18.949,59.005,28.187,87.831c7.163,2.656,10.176-0.484,11.7-6.342c1.001-3.849,2.333-7.614,3.592-11.393
		c18.616-55.883,37.244-111.762,56.63-169.919c20.895,63.987,41.133,125.962,61.309,187.747c6.912,2.544,9.999-0.47,11.867-6.672
		c3.6-11.944,7.574-23.778,11.547-35.607c20.539-61.148,40.938-122.343,61.833-183.368c5.212-15.22,13.656-28.571,30.897-32.648
		c7.699-1.821,15.691-2.398,23.754-3.569c0-4.099,0-8.274,0-12.693c-38.219,0-75.978,0-113.991,0c0,4.635,0,8.812,0,13.721
		c4.425,0,8.513-0.546,12.408,0.089c23.005,3.749,28.81,8.656,22.796,30.642c-6.854,25.057-15.743,49.561-23.876,74.263
		c-6.633,20.149-13.456,40.235-20.929,62.545c-6.826-21.377-12.706-40.371-18.953-59.242
		c-12.852-38.814-26.012-77.525-38.729-116.38c-1.538-4.701-3.49-6.323-8.35-6.248c-4.523,0.07-6.365,1.579-7.808,5.921
		c-14.97,45.096-30.213,90.1-45.401,135.123C657.252,741.063,652.981,753.509,648.739,765.966z"/>
	<path fill="#FFFFFF" d="M2574.048,656.92c-2.005-1.462-3.813-3.116-5.904-4.251c-24.439-13.266-49.635-15.342-74.984-3.334
		c-19.886,9.421-31.541,25.049-31.645,47.904c-0.104,22.721,11.206,39.548,29.672,50.629c18.445,11.068,38.511,19.4,57.546,29.536
		c7.21,3.839,14.304,8.571,20.083,14.281c12.974,12.819,10.509,31.911-4.722,41.679c-11.034,7.076-23.075,7.07-35.425,4.533
		c-14.795-3.041-27.018-10.098-36.961-21.67c-9.902-11.524-14.452-25.07-16.801-39.525c-4.511,0-8.687,0-12.896,0
		c0,28.031,0,55.514,0,82.642c8.267,2.754,13.047,0.354,15.172-7.86c0.965-3.733,3.425-7.08,5.148-10.485
		c7.541,4.208,14.292,8.475,21.454,11.88c30.489,14.493,74.154,8.352,96.649-20.416c14.834-18.971,16.567-52.458-0.884-71.844
		c-8.808-9.785-19.09-16.583-30.59-22.344c-19.745-9.89-39.837-19.269-58.763-30.569c-19.781-11.81-15.955-31.051-4.027-38.927
		c20.071-13.253,49.157-7.159,61.976,13.385c5.922,9.489,9.5,20.438,14.398,31.298c2.763,0,6.947,0,11.729,0
		c0-12.366,0-24.23,0-36.096c0-11.836,0-23.673,0-34.796C2578.405,635.847,2580.825,651.73,2574.048,656.92z"/>
	<path fill="#FFFFFF" d="M2298.821,840.685c2.968,1.979,5.345,3.589,7.746,5.161c31.281,20.49,76.056,19.805,103.777-6.464
		c21.072-19.967,25.453-56.981,4.997-79.26c-9.614-10.47-21.044-17.61-33.583-23.761c-18.625-9.138-37.355-18.2-55.252-28.642
		c-15.813-9.227-18.205-27.801-5.743-37.533c19.824-15.482,48.938-8.21,60.834,8.358c7.377,10.277,11.698,22.748,17.717,34.894
		c2.466,0,6.652,0,10.892,0c0-24.228,0-47.921,0-71.095c-15.381-6.284-13.64,9.049-19.403,14.553
		c-24.699-16.353-50.528-19.699-78.326-9.14c-24.727,9.391-38.884,35.777-33.235,61.263c4.622,20.853,17.813,34.148,35.543,43.752
		c21.736,11.776,44.184,22.287,65.547,34.684c9.564,5.549,14.527,15.745,12.858,27.552c-1.524,10.78-8.474,17.31-18.252,21.195
		c-11.398,4.528-22.844,3.845-34.414,0.582c-26.148-7.374-41.059-25.133-47.575-50.859c-2.749-10.849-2.849-10.824-14.579-8.821
		c0,27.44,0,54.926,0,82.276c7.996,2.52,13.05,0.788,15.108-7.715C2294.386,847.924,2296.877,844.564,2298.821,840.685z"/>
	<path fill="#E9E9E9" d="M648.739,765.966c4.242-12.455,8.513-24.903,12.717-37.369c15.186-45.023,30.429-90.029,45.401-135.123
		c1.441-4.342,3.283-5.852,7.808-5.921c4.861-0.075,6.812,1.547,8.35,6.248c12.717,38.857,25.877,77.569,38.729,116.38
		c6.25,18.871,12.127,37.863,18.954,59.242c7.473-22.31,14.296-42.396,20.929-62.545c8.132-24.703,17.022-49.206,23.876-74.263
		c6.014-21.988,0.21-26.894-22.795-30.642c-3.896-0.635-7.983-0.089-12.408-0.089c0-4.909,0-9.088,0-13.721
		c38.013,0,75.772,0,113.991,0c0,4.419,0,8.594,0,12.693c-8.063,1.171-16.055,1.75-23.754,3.569
		c-17.241,4.078-25.686,17.428-30.897,32.648c-20.893,61.026-41.293,122.222-61.833,183.368
		c-3.974,11.828-7.947,23.661-11.547,35.607c-1.87,6.201-4.955,9.216-11.867,6.672c-20.175-61.785-40.414-123.759-61.309-187.747
		c-19.384,58.157-38.013,114.036-56.63,169.919c-1.259,3.779-2.59,7.544-3.592,11.393c-1.524,5.858-4.537,8.998-11.7,6.342
		c-9.239-28.826-18.564-58.376-28.187-87.831c-11.706-35.826-23.624-71.584-35.535-107.342c-3.6-10.808-7.471-21.525-11.24-32.276
		c-8.495-24.23-21.844-33.258-47.367-33.316c-1.311-0.003-2.622-0.172-4.398-0.296c0-4.477,0-8.66,0-13.354
		c44.88,0,89.678,0,134.996,0c0,4.256,0,8.43,0,12.792c-6.008,0.819-12.049,1.467-18.026,2.49
		c-16.406,2.81-22.711,12.103-17.798,28.083c9.82,31.948,20.26,63.706,30.546,95.51c4.162,12.866,8.597,25.645,12.909,38.464
		C647.621,765.688,648.18,765.828,648.739,765.966z"/>
	<path fill="none" d="M1728.945,613.342c-14.861-1.67-29.913-1.652-45.495-2.417c0,36.086,0,70.286,0,105.103
		c13.198,0,25.939,0.887,38.503-0.229c14.908-1.326,27.409-8.002,35.686-21.273c8.349-13.386,9.348-28.036,6.75-42.899
		C1761.257,633.715,1749.093,615.606,1728.945,613.342z"/>
	<path fill="none" d="M1023.214,670.345c-13.549-8.022-28.21-8.872-43.283-8.373c-14.432,0.476-26.829,5.852-37.563,15.324
		c-22.074,19.48-28.845,45.133-29.887,75.624c0.482,4.055,1.152,10.421,2.01,16.762c5.142,37.951,31.402,73.359,78.092,69.924
		c25.473-1.875,44.862-13.43,56.932-35.592c13.911-25.541,16.918-53.035,9.864-81.281
		C1053.921,700.874,1043.423,682.31,1023.214,670.345z"/>
	<path fill="#E9E9E9" d="M2574.048,656.92c6.778-5.19,4.355-21.074,20.227-14.35c0,11.123,0,22.96,0,34.796
		c0,11.866,0,23.731,0,36.096c-4.782,0-8.966,0-11.729,0c-4.9-10.86-8.479-21.809-14.398-31.298
		c-12.818-20.544-41.903-26.638-61.976-13.385c-11.927,7.876-15.753,27.117,4.027,38.927c18.926,11.3,39.016,20.679,58.763,30.569
		c11.5,5.761,21.782,12.561,30.59,22.344c17.451,19.386,15.718,52.872,0.884,71.844c-22.493,28.767-66.159,34.91-96.649,20.416
		c-7.161-3.405-13.913-7.673-21.454-11.88c-1.724,3.407-4.183,6.753-5.148,10.485c-2.123,8.214-6.903,10.613-15.172,7.86
		c0-27.128,0-54.611,0-82.642c4.208,0,8.383,0,12.896,0c2.349,14.454,6.899,28.001,16.801,39.525
		c9.944,11.573,22.167,18.63,36.962,21.67c12.35,2.539,24.391,2.544,35.425-4.532c15.233-9.768,17.696-28.86,4.722-41.679
		c-5.779-5.71-12.873-10.443-20.083-14.281c-19.035-10.136-39.101-18.468-57.546-29.536c-18.468-11.081-29.776-27.908-29.672-50.629
		c0.104-22.856,11.759-38.484,31.645-47.904c25.349-12.009,50.544-9.932,74.984,3.334
		C2570.235,653.804,2572.043,655.458,2574.048,656.92z"/>
	<path fill="#E9E9E9" d="M2298.821,840.685c-1.945,3.879-4.435,7.237-5.342,10.98c-2.058,8.503-7.112,10.235-15.108,7.715
		c0-27.351,0-54.835,0-82.276c11.728-2.001,11.83-2.027,14.579,8.821c6.516,25.726,21.426,43.486,47.575,50.859
		c11.57,3.262,23.016,3.946,34.414-0.582c9.778-3.884,16.729-10.413,18.252-21.195c1.668-11.807-3.295-22.003-12.858-27.552
		c-21.363-12.397-43.811-22.909-65.547-34.684c-17.729-9.604-30.922-22.901-35.543-43.752c-5.649-25.484,8.508-51.87,33.235-61.263
		c27.796-10.558,53.625-7.211,78.325,9.14c5.764-5.506,4.024-20.836,19.404-14.553c0,23.174,0,46.866,0,71.095
		c-4.242,0-8.427,0-10.893,0c-6.019-12.145-10.34-24.617-17.717-34.894c-11.895-16.569-41.009-23.84-60.834-8.358
		c-12.462,9.733-10.071,28.308,5.743,37.533c17.897,10.444,36.627,19.504,55.252,28.642c12.538,6.152,23.969,13.29,33.583,23.761
		c20.458,22.279,16.075,59.292-4.997,79.26c-27.721,26.269-72.498,26.954-103.777,6.464
		C2304.166,844.275,2301.789,842.665,2298.821,840.685z"/>
	<g>
		<path fill="none" d="M1023.53,670.579c-13.549-8.022-28.21-8.872-43.283-8.373c-14.432,0.476-26.829,5.852-37.563,15.324
			c-22.074,19.48-28.845,45.133-29.887,75.624c0.482,4.055,1.152,10.421,2.01,16.762c5.142,37.951,31.402,73.359,78.092,69.923
			c25.473-1.875,44.862-13.43,56.932-35.592c13.911-25.541,16.918-53.035,9.864-81.281
			C1054.238,701.108,1043.74,682.546,1023.53,670.579z"/>
		<path fill="#E9E9E9" d="M1107.872,732.538c-6.609-37.849-30.556-63.446-64.496-79.24c-23.582-10.974-48.762-14.354-74.979-10.303
			c-30.015,4.638-55.602,16.77-75.845,39.743c-19.787,22.454-29.074,47.997-26.23,78.296c2.512,26.737,14.236,48.855,33.303,66.259
			c24.393,22.263,53.906,33.795,89.442,33.21c23.866,0.721,47.979-5.564,69.282-19.886
			C1096.65,814.863,1116.038,779.313,1107.872,732.538z M1049.832,804.247c-12.07,22.162-31.459,33.719-56.932,35.592
			c-46.689,3.436-72.95-31.973-78.092-69.923c-0.859-6.341-1.527-12.707-2.01-16.762c1.041-30.489,7.812-56.142,29.887-75.624
			c10.733-9.473,23.13-14.848,37.563-15.324c15.073-0.497,29.734,0.352,43.283,8.373c20.209,11.965,30.707,30.528,36.164,52.385
			C1066.748,751.212,1063.741,778.706,1049.832,804.247z"/>
	</g>
	<path fill="#E9E9E9" d="M1813.08,652.209c-4.251-25.33-19.29-41.757-41.213-52.469c-20.344-9.939-42.597-11.409-64.84-11.518
		c-35.724-0.175-71.449-0.047-107.172-0.047c-2.874,0-5.748,0-8.85,0c0,5.08,0,9.075,0,14.171c4.035,0,7.273-0.279,10.447,0.049
		c13.394,1.386,26.488,4.123,31.084,19.075c2.783,9.055,5.098,18.707,5.093,28.088c-0.031,51.86-0.733,103.72-1.441,155.577
		c-0.231,16.838-10.399,30.359-24.488,33.024c-6.745,1.275-13.661,1.652-20.407,2.427c0,4.104,0,7.739,0,11.451
		c46.403,0,92.279,0,138.26,0c0-4.136,0-7.782,0-11.359c-6.261-0.817-12.04-1.691-17.847-2.305
		c-12.611-1.334-22.428-9.5-25.443-21.913c-6.053-24.92-2.365-50.185-3.379-76.032c10.446,0,19.907,0.588,29.265-0.136
		c14.335-1.111,28.953-1.691,42.813-5.091c21.16-5.19,39.247-15.898,50.193-36.146
		C1813.156,684.242,1815.91,669.064,1813.08,652.209z M1757.638,694.991c-8.277,13.271-20.78,19.948-35.686,21.273
		c-12.564,1.116-25.306,0.229-38.503,0.229c0-34.817,0-69.017,0-105.103c15.583,0.765,30.634,0.747,45.495,2.417
		c20.148,2.263,32.314,20.373,35.443,38.284C1766.985,666.957,1765.988,681.605,1757.638,694.991z"/>
	<path fill="none" d="M1728.945,611.556c-14.861-1.67-29.913-1.652-45.495-2.417c0,36.086,0,70.286,0,105.103
		c13.198,0,25.939,0.887,38.503-0.229c14.908-1.326,27.409-8.003,35.686-21.273c8.349-13.386,9.348-28.036,6.75-42.899
		C1761.257,631.928,1749.093,613.819,1728.945,611.556z"/>
	<path fill="#E9E9E9" d="M1579.135,734.068c-3.868-23.689-13.797-43.512-32.669-58.547c-24.324-19.378-52.988-25.452-83.089-25.869
		c-36.26-0.502-72.532-0.119-108.8-0.119c-2.882,0-5.764,0-8.6,0c0,4.698,0,8.342,0,12.546c3.72,0,6.972-0.357,10.122,0.062
		c14.705,1.956,23.78,4.061,26.815,21.771c1.615,9.422,3.028,19.035,2.992,28.556c-0.125,33.193-0.234,66.413-1.759,99.558
		c-0.755,16.413-7.367,25.492-24.31,27.461c-16.245,1.888-32.283-1.02-44.626-11.624c-21.936-18.845-42.493-39.293-64.814-60.18
		c8.147-2.786,13.646-4.44,18.976-6.527c22.682-8.885,37.801-24.591,39.564-49.505c1.498-21.16-8.576-37.485-26.293-49.071
		c-14.091-9.214-30.09-12.535-46.348-12.836c-36.526-0.676-73.072-0.211-109.609-0.211c-2.638,0-5.276,0-8.28,0
		c0,4.459,0,8.097,0,12.548c3.805,0,7.281-0.242,10.715,0.041c16.41,1.353,24.584,6.908,27.658,23.246
		c1.378,7.323,1.701,14.92,1.772,22.401c0.218,22.732,0.265,45.471,0.007,68.203c-0.146,12.894-0.492,25.829-1.732,38.651
		c-1.014,10.477-6.791,22.256-19.878,23.559c-6.051,0.603-12.077,1.456-18.521,2.243c0,3.587,0,7.224,0,11.099
		c40.966,0,81.623,0,121.977,0c0-4.269,0-7.905,0-11.921c-3.844,0-7.073,0.054-10.3-0.01c-15.633-0.305-24.834-7.666-26.418-21.22
		c-1.919-16.424-2.83-32.965-4.178-49.456c0.794-0.733,1.589-1.467,2.383-2.2c3.528,1.275,8.353,1.496,10.381,3.99
		c17.642,21.701,35.114,43.56,51.928,65.906c7.855,10.438,15.781,16.278,30.294,15.982c54.919-1.118,109.876-0.606,164.818-0.367
		c19.985,0.086,39.311-2.664,58.056-9.707c27.781-10.436,48.049-28.6,57.488-57.132
		C1580.344,768.806,1582.022,751.74,1579.135,734.068z M1200.695,749.766c0-28.209,0-54.109,0-81.07
		c14.585,0.172,29.225-2.456,42.86,3.62c11.463,5.108,17.514,15.292,19.902,27.388c3.434,17.397-2.478,39.884-23.76,45.973
		C1227.631,749.129,1214.39,748.478,1200.695,749.766z M1524.289,791.083c-9.224,24.724-27.811,37.715-53.482,40.246
		c-9.684,0.955-19.54,0.232-29.318,0.153c-7.382-0.06-9.991-5.764-11.624-11.333c-1.477-5.041-1.912-10.535-1.93-15.831
		c-0.14-43.534-0.078-87.071-0.062-130.605c0-1.321,0.174-2.642,0.447-6.523c17.772,1.543,34.989,1.75,51.695,4.778
		c28.842,5.228,43.476,25.752,48.634,52.742C1532.886,746.863,1532.413,769.306,1524.289,791.083z"/>
	<path fill="#E9E9E9" d="M1907.661,766.132c1.638,20.213,2.232,38.143,4.831,55.779c1.618,10.982,12.221,17.373,24.599,17.716
		c3.746,0.104,7.497,0.016,11.733,0.016c0,4.227,0,7.871,0,12.036c-40.472,0-80.94,0-121.956,0c0-3.645,0-7.281,0-11.195
		c5.884-0.72,12.022-0.926,17.886-2.299c13.846-3.243,20.253-11.148,20.51-25.114c0.661-35.896,1.238-71.793,1.568-107.694
		c0.063-6.921-0.458-14.004-1.917-20.75c-4.03-18.648-12.355-20.633-27.957-22.453c-3.163-0.369-6.406-0.054-10.122-0.054
		c0-4.211,0-7.855,0-12.546c2.846,0,5.73,0,8.612,0c35.189,0,70.378-0.187,105.564,0.078c17.792,0.135,34.981,3.282,50.276,13.29
		c17.475,11.435,27.382,27.547,25.979,48.419c-1.673,24.929-16.684,40.732-39.28,49.784c-5.385,2.157-11.01,3.722-19.17,6.443
		c22.274,20.931,42.763,41.871,65.175,60.498c10.488,8.717,23.996,13.896,39.509,10.376c11.578-2.629,16.658-9.7,19.098-19.74
		c1.438-5.913,1.901-12.184,1.933-18.299c0.177-33.563,0.184-67.129-0.011-100.692c-0.034-5.827-0.741-11.789-2.133-17.444
		c-3.264-13.248-11.848-19.668-25.889-20.151c-3.221-0.11-6.451-0.016-10.269-0.016c0-4.04,0-7.681,0-11.95
		c59.141,0,118.556,0,178.674,0c1.361,18.554,2.744,37.39,4.172,56.854c-3.866,0-6.955,0-10.781,0
		c-1.178-4.125-2.609-8.615-3.737-13.178c-3.294-13.347-13.173-22.685-27.856-23.371c-19.056-0.889-38.183-0.218-57.983-0.218
		c0,20.645,0,42.604,0,66.361c11.102-1.29,22.034-1.703,32.548-4.014c11.328-2.49,15.695-9.237,15.933-20.783
		c0.076-3.717,0.011-7.436,0.011-11.49c4.473,0,8.11,0,12.147,0c0,30.574,0,60.755,0,91.341c-4.014,0-7.652,0-12.153,0
		c0-4.557,0.215-8.826-0.039-13.069c-0.828-13.864-8.053-21.035-23.109-22.136c-8.293-0.606-16.666-0.109-27.434-0.109
		c1.524,20.443,2.541,40.134,4.631,59.71c1.102,10.319,9.06,14.99,18.661,15.311c16.01,0.534,32.083,0.764,48.068-0.054
		c16.117-0.824,25.752-10.291,29.521-27.318c1.456-6.578,3.079-12.22,13.107-8.865c-1.218,18.502-2.459,37.373-3.754,57.044
		c-3.886,0-7.062,0-10.238,0c-74.438,0-148.883-0.541-223.306,0.458c-14.788,0.198-22.869-5.497-30.912-16.254
		c-16.752-22.401-34.338-44.191-52.033-65.864C1918.389,768.1,1913.5,768.042,1907.661,766.132z M1909.014,748.666
		c9.188,0,17.551,0.487,25.838-0.104c16.302-1.163,29.477-7.848,34.963-24.289c5.356-16.05,4.146-31.43-8.162-44.46
		c-15.12-16.008-34.403-9.997-52.64-11.151C1909.014,695.833,1909.014,721.686,1909.014,748.666z"/>
</g>
</svg>
