<?xml version="1.0" encoding="utf-8"?>
<!-- Generator: Adobe Illustrator 17.0.0, SVG Export Plug-In . SVG Version: 6.00 Build 0)  -->
<!DOCTYPE svg PUBLIC "-//W3C//DTD SVG 1.1//EN" "http://www.w3.org/Graphics/SVG/1.1/DTD/svg11.dtd">
<svg version="1.1" id="Laag_1" xmlns="http://www.w3.org/2000/svg" xmlns:xlink="http://www.w3.org/1999/xlink" x="0px" y="0px"
	 width="500px" height="523.667px" viewBox="0 0 500 523.667" enable-background="new 0 0 500 523.667" xml:space="preserve">
<g>
	<path fill="#87C5ED" d="M185.277,469.748l0,48.059l-1.19,0v0.001l80.396,0C232.748,510.393,205.634,494.467,185.277,469.748z"/>
	<g>
		<path fill="#1A4869" d="M497.269,331.836c0,115.624-80.102,190.85-188.76,190.85c-50.847,0-94.033-17.412-123.288-52.936l0,48.059
			l-82.887,0l0.001-516.827l87.068,0l0,190.154c29.951-33.434,71.741-49.453,119.107-49.453
			C417.167,141.682,497.269,216.211,497.269,331.836z M408.809,331.836c0-71.046-47.363-116.321-110.053-116.321
			c-62.687,0-110.749,45.274-110.749,116.321s48.062,116.321,110.749,116.321C361.445,448.156,408.809,402.882,408.809,331.836z"/>
	</g>
	<path fill="#87C5ED" d="M258.857,254.972c-7.426-8.068-16.134-14.378-26.118-18.942c-0.16,0.116-0.31,0.246-0.469,0.364
		c-13.163-6.173-28.566-9.28-46.24-9.28c-10.036,0-19.211,1.314-27.516,3.943c-8.311,2.628-15.925,6.045-22.849,10.249
		c-6.925,4.206-13.151,9.118-18.686,14.719c-5.35,5.422-10.206,11.009-14.589,16.752l0-39.358l-99.659,0l0,284.389l100.404,0v-0.001
		h-0.745l0-162.549c1.196-11.585,4.897-20.684,11.204-27.218c7.787-8.056,17.762-11.256,29.84-12.089
		c32.129-2.216,42.05,22.632,46.438,39.008c8.467,52.542,45.909,86.757,94.62,92.353l0-115.591
		C284.493,299.128,275.939,273.551,258.857,254.972z"/>
</g>
</svg>
