<?xml version="1.0" encoding="utf-8"?>
<!-- Generator: Adobe Illustrator 17.0.0, SVG Export Plug-In . SVG Version: 6.00 Build 0)  -->
<!DOCTYPE svg PUBLIC "-//W3C//DTD SVG 1.1//EN" "http://www.w3.org/Graphics/SVG/1.1/DTD/svg11.dtd">
<svg version="1.1" id="Laag_1" xmlns="http://www.w3.org/2000/svg" xmlns:xlink="http://www.w3.org/1999/xlink" x="0px" y="0px"
	 viewBox="-488.015 -107.485 2539.187 512"
	 enable-background="new -488.015 -107.485 2539.187 512" xml:space="preserve">
<g>
	<path fill="#945C87" d="M-481.245-58.808c11.848-28.35,41.466-48.66,72.355-48.66c233.143,0,466.285,0,699.853,0
		c20.31-0.423,40.619,7.194,55.429,20.733c16.924,15.233,26.657,38.081,26.233,60.931c0,89.279,0,178.559,0,268.261
		c-0.423,40.198-35.542,76.585-75.74,77.432c-85.049,0.423-170.096,0-255.146,0c11.424,28.35,22.848,56.275,34.274,84.626
		C25.238,376.588-24.69,347.816-75.889,320.313c-111.706-0.847-223.833,0-335.963-0.423c-40.198-1.27-75.317-37.236-75.74-77.432
		c-0.423-87.588,0-175.175-0.423-262.338C-488.014-32.998-486.745-46.537-481.245-58.808"/>
	<path fill="#E8E9EB" d="M-139.358-52.463c12.694-13.541,37.236-9.309,46.966,6.347c5.077,8.039,5.5,19.041,1.27,27.504
		c-17.771,35.542-25.389,74.893-32.157,113.398c-8.039,50.352-14.809,101.55-12.271,152.749c0.847,13.118-5.5,28.772-19.463,32.157
		c-13.118,2.962-25.389-5.924-33.851-15.233c-38.081-41.043-59.661-93.935-75.317-146.825
		c-15.656,30.889-31.312,62.199-46.543,93.088c-10.577,21.157-22.003,42.736-38.928,59.661c-7.194,7.194-19.463,13.541-28.772,6.347
		c-13.963-12.271-17.348-31.734-23.271-48.237c-22.427-77.432-35.119-157.404-48.237-236.951
		c-2.962-13.118,2.538-29.195,15.656-34.274c10.577-3.809,24.542-4.655,33.427,3.385c6.347,5.5,8.039,14.386,9.309,22.425
		c9.309,61.776,19.886,123.13,35.119,183.638c25.389-48.237,50.775-96.473,76.164-145.133c3.809-7.194,8.462-14.386,15.233-18.618
		c9.309-5.924,22.848-5.5,30.889,2.962c6.347,6.771,8.886,16.501,10.577,25.389c7.617,39.774,17.771,79.547,32.58,117.206
		c6.347-57.122,14.386-115.091,35.119-168.828C-151.206-31.728-146.974-43.154-139.358-52.463 M4.083-21.574
		c27.504-3.385,57.122,5.924,75.74,26.657c15.233,17.348,23.695,39.774,26.657,62.199c4.654,38.504-2.538,79.126-21.157,113.398
		c-10.577,19.463-24.118,38.504-43.581,49.928c-28.35,17.348-66.431,15.233-93.935-2.962
		c-22.003-15.233-34.274-40.619-39.351-66.008c-10.156-57.969,7.194-122.283,50.775-162.481
		C-28.076-12.265-12.419-19.459,4.083-21.574 M9.584,37.663c-13.118,4.232-21.58,16.501-28.772,27.504
		c-17.771,28.772-22.848,66.431-8.462,97.32c3.809,8.039,9.732,16.924,19.463,18.618c10.156,1.692,19.465-4.232,26.657-10.577
		c16.08-13.963,24.118-34.696,28.35-55.431c4.232-23.271,2.115-49.083-11.424-69.393C29.893,38.087,18.893,34.701,9.584,37.663
		 M223.685-21.574c26.657-3.385,55.852,5.077,74.47,24.965c16.924,18.195,25.81,42.313,28.35,66.855
		c3.809,37.236-2.962,76.164-20.733,109.168c-10.577,19.886-24.542,39.351-44.851,51.199c-27.08,16.503-63.469,14.809-90.55-1.27
		c-18.195-11.001-30.465-29.619-37.657-49.507c-19.041-60.508-2.962-131.592,41.043-177.29
		C188.143-10.15,205.49-19.459,223.685-21.574 M229.609,37.663c-14.386,5.077-22.848,19.041-30.465,31.312
		c-16.08,28.35-20.31,65.161-5.5,95.203c3.809,8.462,11.001,16.503,20.733,16.924c10.577,0.423,19.886-6.347,27.504-13.541
		c16.503-16.08,23.695-38.928,26.233-61.354c2.538-20.733-0.847-43.16-13.118-60.931C249.92,38.087,238.918,34.701,229.609,37.663"
		/>
	<path fill="#E8E9EB" d="M517.335-13.533c23.271-5.077,47.813-4.655,71.085,0.847c0,19.041,0,38.081,0,57.122
		c-19.041-4.655-40.621-8.886-58.814,0c-22.003,11.001-34.274,35.966-34.274,59.661c-1.27,23.695,6.771,50.352,27.927,63.893
		c19.465,12.694,44.428,10.156,65.584,4.232c0,19.041,0,38.081,0,57.122c-28.348,8.039-59.237,7.194-86.741-2.962
		c-33.004-12.271-59.237-41.043-69.393-74.893c-7.615-25.81-8.462-53.314-2.538-79.547C439.903,30.048,475.445-4.226,517.335-13.533
		 M689.125-16.497c28.772-3.385,60.084,1.27,83.356,19.465c22.425,17.348,33.427,45.698,37.657,72.778
		c3.809,30.042,2.962,61.354-6.347,90.126c-8.039,24.542-24.542,47.39-48.237,58.814c-24.118,11.424-52.467,12.271-78.279,6.347
		c-23.695-5.5-44.851-21.157-56.699-42.736c-16.503-28.772-19.465-63.046-18.194-95.627c1.27-27.927,8.462-57.122,27.08-78.702
		C644.697-3.38,666.7-13.957,689.125-16.497 M698.011,38.087c-12.271,2.962-19.465,15.233-22.425,26.657
		c-5.924,22.848-5.077,46.543-3.385,69.817c1.692,12.694,2.962,26.233,11.847,36.389c11.847,13.541,35.966,11.848,46.545-2.115
		c7.194-8.886,9.309-20.31,10.577-31.312c2.538-19.465,2.962-39.351,0-58.814c-2.115-11.848-5.5-24.118-13.962-33.004
		C719.591,38.087,708.166,35.548,698.011,38.087 M1826.491-12.689c24.542-6.347,50.352-5.5,74.894-0.423
		c0.423,19.041,0,38.081,0.423,57.546c-18.618-4.655-39.351-8.886-57.546-0.847c-21.156,9.732-33.851,32.157-35.542,54.584
		c-2.538,25.389,4.232,54.16,26.657,68.97c19.465,13.541,44.851,11.001,66.431,4.654c-0.423,19.041,0.423,38.504-0.423,57.546
		c-30.042,7.615-63.046,6.771-91.394-5.5c-31.312-13.541-55.852-42.313-64.738-75.317c-6.771-25.389-7.615-52.469-1.27-78.279
		C1753.289,30.471,1786.717-2.109,1826.491-12.689 M847.798-10.995c27.08,0,54.584,0,81.664,0
		c9.732,44.005,19.041,88.433,27.503,132.862c7.615-44.851,18.195-88.856,28.772-132.862c27.927,0,55.852,0,83.779,0
		c11.001,79.97,21.58,159.943,32.157,239.49c-21.156,0-42.736,0-63.893,0c-5.924-54.584-11.001-109.589-17.348-164.173
		c-13.118,54.584-26.657,109.589-39.774,164.173c-14.386,0-29.195,0-43.581,0c-13.962-54.584-27.504-109.589-41.89-164.596
		c-5.5,54.584-11.001,109.589-16.501,164.596c-20.31,0-40.621,0-61.354,0C827.488,148.946,837.644,68.975,847.798-10.995
		 M1140.603-10.995c27.08,0,54.584,0,81.664,0c9.732,44.005,19.041,88.433,27.504,132.862
		c8.039-44.428,18.194-88.856,28.772-132.862h83.356c11,79.97,21.58,159.943,32.157,239.49c-21.156,0-42.736,0-63.893,0
		c-5.924-54.584-11.424-109.589-17.348-164.173c-13.118,54.584-26.233,109.589-39.774,164.173c-14.386,0-29.195,0-43.581,0
		c-13.962-55.007-27.927-109.589-41.889-164.596c-5.5,55.007-11.001,109.589-16.503,164.596c-20.31,0-40.619,0-61.354,0
		C1120.291,148.946,1130.447,68.975,1140.603-10.995 M1412.673-10.15c43.581-0.847,87.588,0,131.169-0.423
		c0,16.924,0,33.851,0,51.199c-22.003,0.423-44.005,0-66.008,0c0,14.809,0,29.195,0,44.005c19.041,0,38.081,0,57.122,0
		c0,16.501,0,33.004,0,49.507c-19.041,0-38.081,0-57.122,0c0,14.386,0,29.195,0,44.005c22.003,0,44.428,0,66.431,0
		c0,16.924,0,33.851,0,51.199c-43.581,0-87.588,0-131.169,0C1412.673,149.369,1413.52,69.822,1412.673-10.15 M1562.46-10.995
		c27.503,0,54.584-0.423,82.087,0c25.81,0.847,53.314,7.194,72.355,25.389c17.348,16.08,23.271,42.736,16.503,65.161
		c-5.5,18.195-19.041,33.004-35.966,41.043c16.924,35.966,34.274,71.932,51.622,107.897c-22.85,0-45.698,0-68.123,0
		c-17.771-36.813-35.119-73.623-53.314-110.012c-0.423,36.813,0,73.623,0,110.012c-21.58,0-43.16,0-64.738,0
		C1562.46,148.946,1562.46,68.975,1562.46-10.995 M1627.197,35.125c0,19.041,0,38.081,0,57.122
		c11.847-0.847,24.542-1.27,34.274-8.462c11.424-8.462,10.156-25.81,2.962-36.813C1655.548,36.395,1639.892,36.395,1627.197,35.125
		 M1920.003-10.571c43.581,0,87.164,0,130.745,0c0,16.924,0,34.274,0,51.199c-22.003,0-44.428,0-66.431,0
		c0,14.809,0,29.195,0,44.005c19.041,0,38.081,0,57.122,0c0,16.501,0,33.004,0,49.507h-57.122c0,14.809,0,29.195,0,44.005
		c22.425,0,44.428,0,66.855,0c0,16.924,0,33.851,0,51.199c-43.581,0-87.588,0-131.169,0
		C1919.579,148.946,1920.003,68.975,1920.003-10.571"/>
</g>
</svg>
