<?xml version="1.0" encoding="utf-8"?>
<!-- Generator: Adobe Illustrator 17.0.0, SVG Export Plug-In . SVG Version: 6.00 Build 0)  -->
<!DOCTYPE svg PUBLIC "-//W3C//DTD SVG 1.1//EN" "http://www.w3.org/Graphics/SVG/1.1/DTD/svg11.dtd">
<svg version="1.1" id="Laag_1" xmlns="http://www.w3.org/2000/svg" xmlns:xlink="http://www.w3.org/1999/xlink" x="0px" y="0px"
	 width="570.382px" height="512px" viewBox="-29.191 0 570.382 512" enable-background="new -29.191 0 570.382 512"
	 xml:space="preserve">
<g>
	<path fill="#FDB300" d="M95.256,16.857L255.999,0l160.744,16.857L541.19,182.571l-285.19,329.427l-285.19-329.427L95.256,16.857z"
		/>
	<path fill="#EA6C00" d="M86.324,182.571L255.998,512L-29.191,182.571 M425.676,182.571L256.002,512l285.189-329.429"/>
	<path fill="#FDAD00" d="M86.324,182.571h339.348L255.998,512"/>
	<path fill="#FDD231" d="M255.998,0L95.254,16.854l-8.93,165.715 M256.001,0l160.744,16.854l8.93,165.715"/>
	<path fill="#FDAD00" d="M541.191,182.569L416.746,16.854l8.93,165.715 M-29.191,182.569L95.254,16.854l-8.93,165.715"/>
	<path fill="#FEEEB7" d="M255.998,0L86.324,182.569h339.348"/>
</g>
</svg>
