<?xml version="1.0" encoding="utf-8"?>
<!-- Generator: Adobe Illustrator 17.0.0, SVG Export Plug-In . SVG Version: 6.00 Build 0)  -->
<!DOCTYPE svg PUBLIC "-//W3C//DTD SVG 1.1//EN" "http://www.w3.org/Graphics/SVG/1.1/DTD/svg11.dtd">
<svg version="1.1" id="Laag_1" focusable="false" xmlns="http://www.w3.org/2000/svg" xmlns:xlink="http://www.w3.org/1999/xlink"
	 x="0px" y="0px" viewBox="0 0 512 512" enable-background="new 0 0 512 512" xml:space="preserve">
<linearGradient id="SVGID_1_" gradientUnits="userSpaceOnUse" x1="-6.123209e-07" y1="256.0032" x2="511.9938" y2="256.0032">
	<stop  offset="0" style="stop-color:#0CD515"/>
	<stop  offset="1" style="stop-color:#8FFF75"/>
</linearGradient>
<path fill="url(#SVGID_1_)" d="M497.39,361.8l-112-48c-9.829-4.189-21.243-1.376-28,6.9l-49.6,60.6
	c-77.843-36.702-140.488-99.347-177.19-177.19l60.6-49.6c8.294-6.746,11.11-18.173,6.9-28l-48-112
	c-4.639-10.636-16.185-16.472-27.5-13.9l-104,24C7.71,27.125-0.003,36.824,0,48c0,256.5,207.9,464,464,464
	c11.18,0.007,20.884-7.706,23.4-18.6l24-104C513.955,378.03,508.076,366.448,497.39,361.8L497.39,361.8z"/>
</svg>
