<?xml version="1.0" encoding="utf-8"?>
<!-- Generator: Adobe Illustrator 17.0.0, SVG Export Plug-In . SVG Version: 6.00 Build 0)  -->
<!DOCTYPE svg PUBLIC "-//W3C//DTD SVG 1.1//EN" "http://www.w3.org/Graphics/SVG/1.1/DTD/svg11.dtd">
<svg version="1.1" id="Laag_1" focusable="false" xmlns="http://www.w3.org/2000/svg" xmlns:xlink="http://www.w3.org/1999/xlink"
	 x="0px" y="0px" viewBox="1024 464 512 512" enable-background="new 1024 464 512 512"
	 xml:space="preserve">
<g>
	<path fill="#E8E9EB" d="M1504,624h-448c-17.673,0-32-14.327-32-32v-64c0-17.673,14.327-32,32-32h448c17.673,0,32,14.327,32,32v64
		C1536,609.673,1521.673,624,1504,624z"/>
	<circle fill="#34A853" cx="1456" cy="560" r="24"/>
	<circle fill="#FF8604" cx="1392" cy="560" r="24"/>
	<path fill="#E8E9EB" d="M1504,784h-448c-17.673,0-32-14.327-32-32v-64c0-17.673,14.327-32,32-32h448c17.673,0,32,14.327,32,32v64
		C1536,769.673,1521.673,784,1504,784z"/>
	<circle fill="#FF8604" cx="1456" cy="720" r="24"/>
	<circle fill="#EA4335" cx="1392" cy="720" r="24"/>
	<path fill="#B7B7B7" d="M1504,944h-448c-17.673,0-32-14.327-32-32v-64c0-17.673,14.327-32,32-32h448c17.673,0,32,14.327,32,32v64
		C1536,929.673,1521.673,944,1504,944z"/>
	<circle fill="#34A853" cx="1456" cy="880" r="24"/>
	<circle fill="#34A853" cx="1392" cy="880" r="24"/>
</g>
</svg>
