<?xml version="1.0" encoding="utf-8"?>
<!-- Generator: Adobe Illustrator 17.0.0, SVG Export Plug-In . SVG Version: 6.00 Build 0)  -->
<!DOCTYPE svg PUBLIC "-//W3C//DTD SVG 1.1//EN" "http://www.w3.org/Graphics/SVG/1.1/DTD/svg11.dtd">
<svg version="1.1" id="Laag_1" xmlns="http://www.w3.org/2000/svg" xmlns:xlink="http://www.w3.org/1999/xlink" x="0px" y="0px"
	 viewBox="0 0 1872 398.577" enable-background="new 0 0 1872 398.577" xml:space="preserve">
<g>
	<path fill="#E9E9E9" d="M280.201,41.797c-94.455-3.069-161.747,71.427-164.118,152.559
		c-2.681,91.706,72.473,163.761,157.608,162.499c87.989,0.727,153.436-70.668,157.57-147.186
		c2.394-44.306-10.935-83.363-40.826-116.23C360.967,61.037,323.845,43.215,280.201,41.797z M153.074,271.69
		c-24.108-41.63-26.066-84.949-8.087-129.204c0.46-0.031,0.92-0.063,1.38-0.094c11.059,30.485,22.068,60.988,33.192,91.449
		c11.077,30.334,22.268,60.625,32.923,91.428C186.944,313.821,167.014,295.762,153.074,271.69z M294.154,338.39
		c-9.491,1.159-19.197,1.511-28.744,1.001c-9.434-0.504-18.805-2.42-28.166-3.947c-2.757-0.45-3.358-2.113-2.305-5.103
		c9.106-25.856,18.021-51.779,26.934-77.702c4.708-13.694,9.298-27.429,14.402-42.508c15.081,41.308,29.73,81.429,44.749,122.565
		C312.108,334.649,303.224,337.282,294.154,338.39z M292.637,133.477c5.637-0.597,10.461-1.407,15.302-1.527
		c4.069-0.101,6.172-2.537,6.089-5.704c-0.083-3.156-2.883-4.781-6.399-4.7c-17.433,0.402-34.868,0.826-52.304,0.967
		c-6.934,0.056-13.882-0.492-20.808-0.979c-3.836-0.27-6.046,2.102-6.143,5.025c-0.097,2.922,1.957,5.368,5.811,5.369
		c3.764,0.001,7.558,0.415,11.276,1.031c1.286,0.213,3.049,1.329,3.463,2.45c6.844,18.536,13.525,37.133,20.174,55.741
		c0.466,1.305,0.897,2.97,0.495,4.186c-9.941,30.045-19.996,60.051-30.562,91.652c-17.568-52.17-34.667-102.95-51.736-153.639
		c5.633-0.522,10.873-1.276,16.13-1.41c4.101-0.104,5.414-3.016,5.328-5.749c-0.088-2.805-2.324-4.789-5.901-4.667
		c-13.764,0.469-27.536,0.725-41.305,1.049c-1.617,0.038-3.235,0.005-5.103,0.005c41.612-67.415,144.409-89.427,211.348-27.532
		c-4.917,2.183-10.923,3.669-15.439,7.109c-8.671,6.606-11.237,20.483-6.248,30.594c3.982,8.071,8.735,15.758,13.03,23.678
		c7.436,13.715,11.307,28.01,9.163,43.935c-2.995,22.247-11.504,42.859-17.734,64.148c-1.913,6.536-4.043,13.009-6.073,19.511
		c-0.381,0.077-0.763,0.153-1.144,0.23C326.485,234.124,309.627,183.997,292.637,133.477z M397.847,133.523
		c36.482,63.186,11.672,152.752-54.012,187.152c2.755-7.979,5.292-15.305,7.815-22.636c10.893-31.663,21.89-63.29,32.617-95.009
		c4.017-11.878,8.388-23.775,10.788-36.018C397.273,155.696,397.072,143.905,397.847,133.523z"/>
	<path fill="#FFFFFF" d="M547.422,227.583c-0.344-0.085-0.689-0.17-1.033-0.256c-2.654-7.891-5.383-15.757-7.946-23.677
		c-6.333-19.577-12.758-39.126-18.803-58.792c-3.024-9.836,0.857-15.557,10.956-17.287c3.679-0.63,7.398-1.029,11.096-1.533
		c0-2.685,0-5.254,0-7.874c-27.896,0-55.472,0-83.098,0c0,2.889,0,5.463,0,8.22c1.092,0.076,1.9,0.18,2.707,0.182
		c15.711,0.036,23.928,5.593,29.157,20.508c2.32,6.618,4.703,13.215,6.919,19.868c7.332,22.011,14.668,44.022,21.874,66.075
		c5.924,18.131,11.664,36.321,17.351,54.065c4.409,1.635,6.264-0.298,7.202-3.904c0.616-2.369,1.436-4.687,2.211-7.013
		c11.459-34.399,22.926-68.796,34.859-104.595c12.862,39.388,25.32,77.537,37.739,115.569c4.255,1.566,6.155-0.289,7.305-4.107
		c2.216-7.352,4.662-14.637,7.108-21.918c12.643-37.64,25.2-75.309,38.062-112.874c3.208-9.369,8.406-17.587,19.019-20.097
		c4.739-1.121,9.659-1.476,14.622-2.197c0-2.523,0-5.093,0-7.813c-23.526,0-46.769,0-70.168,0c0,2.853,0,5.424,0,8.446
		c2.724,0,5.24-0.336,7.638,0.055c14.161,2.308,17.734,5.328,14.032,18.862c-4.219,15.424-9.691,30.508-14.697,45.713
		c-4.083,12.403-8.283,24.767-12.883,38.5c-4.202-13.159-7.821-24.851-11.667-36.467c-7.911-23.892-16.012-47.721-23.84-71.639
		c-0.947-2.894-2.148-3.892-5.14-3.846c-2.784,0.043-3.918,0.972-4.806,3.645c-9.215,27.759-18.598,55.462-27.947,83.176
		C552.662,212.254,550.033,219.915,547.422,227.583z"/>
	<path fill="#FFFFFF" d="M1732.562,160.459c-1.234-0.9-2.347-1.918-3.634-2.617c-15.044-8.166-30.553-9.444-46.157-2.052
		c-12.241,5.799-19.415,15.419-19.479,29.488c-0.064,13.986,6.898,24.344,18.265,31.165c11.354,6.813,23.706,11.942,35.423,18.181
		c4.438,2.363,8.805,5.276,12.362,8.791c7.986,7.891,6.469,19.643-2.907,25.656c-6.792,4.356-14.204,4.352-21.806,2.79
		c-9.107-1.872-16.631-6.216-22.752-13.339c-6.095-7.094-8.896-15.432-10.342-24.33c-2.777,0-5.347,0-7.938,0
		c0,17.255,0,34.172,0,50.871c5.089,1.695,8.031,0.218,9.339-4.838c0.594-2.298,2.108-4.358,3.169-6.454
		c4.642,2.59,8.798,5.217,13.206,7.313c18.768,8.921,45.646,5.141,59.493-12.567c9.131-11.678,10.198-32.291-0.544-44.224
		c-5.422-6.023-11.751-10.208-18.83-13.754c-12.154-6.088-24.522-11.861-36.172-18.817c-12.176-7.27-9.821-19.114-2.479-23.962
		c12.355-8.158,30.259-4.407,38.15,8.239c3.645,5.841,5.848,12.581,8.863,19.266c1.701,0,4.276,0,7.22,0c0-7.612,0-14.915,0-22.219
		c0-7.286,0-14.572,0-21.419C1735.244,147.487,1736.734,157.264,1732.562,160.459z"/>
	<path fill="#FFFFFF" d="M1563.144,273.577c1.827,1.218,3.29,2.209,4.768,3.177c19.255,12.613,46.817,12.191,63.881-3.979
		c12.971-12.291,15.668-35.075,3.076-48.789c-5.918-6.445-12.954-10.84-20.672-14.626c-11.465-5.625-22.994-11.203-34.011-17.631
		c-9.734-5.68-11.206-17.113-3.535-23.104c12.203-9.53,30.124-5.054,37.447,5.145c4.541,6.326,7.201,14.003,10.906,21.479
		c1.518,0,4.095,0,6.705,0c0-14.914,0-29.498,0-43.763c-9.468-3.868-8.396,5.57-11.944,8.958
		c-15.204-10.066-31.103-12.126-48.214-5.626c-15.221,5.781-23.935,22.023-20.458,37.711c2.845,12.836,10.965,21.02,21.879,26.932
		c13.38,7.249,27.198,13.719,40.348,21.35c5.887,3.416,8.942,9.692,7.915,16.96c-0.938,6.636-5.216,10.655-11.235,13.047
		c-7.016,2.787-14.062,2.367-21.184,0.358c-16.096-4.539-25.274-15.471-29.285-31.307c-1.692-6.678-1.754-6.663-8.974-5.43
		c0,16.891,0,33.81,0,50.646c4.922,1.551,8.033,0.485,9.3-4.749C1560.414,278.033,1561.947,275.965,1563.144,273.577z"/>
	<path fill="#E9E9E9" d="M547.422,227.583c2.611-7.667,5.24-15.329,7.828-23.003c9.348-27.714,18.731-55.418,27.947-83.176
		c0.887-2.673,2.021-3.602,4.806-3.645c2.992-0.046,4.193,0.952,5.14,3.846c7.828,23.919,15.929,47.748,23.84,71.639
		c3.847,11.616,7.465,23.307,11.667,36.467c4.6-13.733,8.8-26.097,12.883-38.5c5.006-15.206,10.478-30.289,14.697-45.713
		c3.702-13.535,0.129-16.555-14.032-18.862c-2.398-0.391-4.914-0.055-7.638-0.055c0-3.022,0-5.594,0-8.446
		c23.399,0,46.642,0,70.168,0c0,2.72,0,5.29,0,7.813c-4.963,0.721-9.883,1.077-14.622,2.197
		c-10.613,2.51-15.811,10.728-19.019,20.097c-12.861,37.565-25.418,75.235-38.062,112.874c-2.446,7.281-4.892,14.565-7.108,21.918
		c-1.151,3.817-3.05,5.673-7.305,4.107c-12.419-38.032-24.877-76.181-37.739-115.569c-11.932,35.799-23.399,70.196-34.859,104.595
		c-0.775,2.326-1.594,4.644-2.211,7.013c-0.938,3.606-2.793,5.539-7.202,3.904c-5.687-17.744-11.427-35.934-17.351-54.065
		c-7.206-22.053-14.542-44.064-21.874-66.075c-2.216-6.653-4.599-13.25-6.919-19.868c-5.229-14.915-13.446-20.472-29.157-20.508
		c-0.807-0.002-1.614-0.106-2.707-0.182c0-2.756,0-5.331,0-8.22c27.626,0,55.202,0,83.098,0c0,2.62,0,5.189,0,7.874
		c-3.698,0.504-7.417,0.903-11.096,1.533c-10.099,1.73-13.98,7.45-10.956,17.287c6.045,19.666,12.471,39.215,18.803,58.792
		c2.562,7.92,5.292,15.786,7.946,23.677C546.734,227.412,547.078,227.498,547.422,227.583z"/>
	<path fill="none" d="M1212.352,133.634c-9.148-1.028-18.413-1.017-28.005-1.488c0,22.213,0,43.265,0,64.697
		c8.124,0,15.967,0.546,23.701-0.141c9.177-0.816,16.872-4.926,21.967-13.095c5.139-8.24,5.754-17.258,4.155-26.407
		C1232.242,146.175,1224.754,135.028,1212.352,133.634z"/>
	<path fill="none" d="M777.933,168.723c-8.34-4.938-17.365-5.461-26.643-5.154c-8.884,0.293-16.515,3.602-23.122,9.433
		c-13.588,11.991-17.756,27.782-18.397,46.551c0.297,2.496,0.709,6.415,1.237,10.318c3.165,23.361,19.33,45.157,48.07,43.042
		c15.68-1.154,27.615-8.267,35.045-21.909c8.563-15.722,10.414-32.646,6.072-50.033
		C796.835,187.515,790.373,176.088,777.933,168.723z"/>
	<path fill="#E9E9E9" d="M1732.562,160.459c4.172-3.195,2.681-12.972,12.451-8.833c0,6.847,0,14.133,0,21.419
		c0,7.304,0,14.608,0,22.219c-2.944,0-5.519,0-7.22,0c-3.016-6.685-5.219-13.425-8.863-19.266
		c-7.89-12.646-25.794-16.397-38.15-8.239c-7.342,4.848-9.697,16.692,2.479,23.962c11.65,6.956,24.017,12.729,36.172,18.817
		c7.079,3.546,13.408,7.732,18.83,13.754c10.742,11.933,9.675,32.546,0.544,44.224c-13.846,17.708-40.725,21.489-59.493,12.567
		c-4.408-2.096-8.564-4.723-13.206-7.313c-1.061,2.097-2.575,4.157-3.169,6.454c-1.307,5.056-4.249,6.533-9.339,4.838
		c0-16.699,0-33.616,0-50.871c2.59,0,5.16,0,7.938,0c1.446,8.897,4.247,17.236,10.342,24.33
		c6.121,7.124,13.645,11.468,22.752,13.339c7.602,1.563,15.014,1.566,21.806-2.79c9.377-6.013,10.893-17.765,2.907-25.656
		c-3.557-3.515-7.924-6.428-12.362-8.791c-11.717-6.239-24.069-11.368-35.423-18.181c-11.368-6.821-18.329-17.179-18.265-31.165
		c0.064-14.069,7.238-23.689,19.479-29.488c15.604-7.392,31.113-6.114,46.157,2.052
		C1730.215,158.541,1731.328,159.559,1732.562,160.459z"/>
	<path fill="#E9E9E9" d="M1563.144,273.577c-1.197,2.388-2.73,4.455-3.288,6.759c-1.267,5.234-4.378,6.3-9.3,4.749
		c0-16.836,0-33.754,0-50.646c7.219-1.232,7.282-1.248,8.974,5.43c4.011,15.836,13.189,26.768,29.285,31.307
		c7.122,2.008,14.168,2.429,21.184-0.358c6.019-2.391,10.298-6.41,11.235-13.047c1.027-7.268-2.028-13.544-7.915-16.96
		c-13.15-7.631-26.968-14.102-40.348-21.35c-10.913-5.912-19.034-14.097-21.879-26.932c-3.477-15.687,5.237-31.929,20.458-37.711
		c17.11-6.499,33.009-4.439,48.214,5.626c3.548-3.389,2.477-12.826,11.944-8.958c0,14.265,0,28.849,0,43.763
		c-2.611,0-5.187,0-6.705,0c-3.705-7.476-6.365-15.153-10.906-21.479c-7.322-10.199-25.243-14.675-37.447-5.145
		c-7.671,5.991-6.199,17.425,3.535,23.104c11.017,6.429,22.546,12.006,34.011,17.631c7.718,3.787,14.754,8.181,20.672,14.626
		c12.593,13.714,9.895,36.498-3.076,48.789c-17.064,16.17-44.627,16.592-63.881,3.979
		C1566.434,275.787,1564.971,274.796,1563.144,273.577z"/>
	<g>
		<path fill="none" d="M778.128,168.867c-8.34-4.938-17.365-5.461-26.643-5.154c-8.884,0.293-16.515,3.602-23.122,9.433
			c-13.588,11.991-17.756,27.782-18.397,46.551c0.297,2.496,0.709,6.415,1.237,10.318c3.165,23.361,19.33,45.157,48.07,43.042
			c15.68-1.154,27.615-8.267,35.045-21.909c8.563-15.722,10.414-32.646,6.072-50.033
			C797.03,187.659,790.568,176.233,778.128,168.867z"/>
		<path fill="#E9E9E9" d="M830.045,207.006c-4.068-23.298-18.809-39.055-39.701-48.777c-14.516-6.755-30.016-8.836-46.154-6.342
			c-18.476,2.855-34.226,10.323-46.687,24.464c-12.18,13.822-17.897,29.545-16.146,48.196c1.546,16.458,8.763,30.073,20.5,40.786
			c15.015,13.704,33.182,20.803,55.057,20.443c14.691,0.444,29.534-3.425,42.647-12.241
			C823.137,257.682,835.072,235.799,830.045,207.006z M794.318,251.147c-7.43,13.642-19.365,20.756-35.045,21.909
			c-28.74,2.115-44.905-19.681-48.07-43.042c-0.529-3.903-0.94-7.822-1.237-10.318c0.641-18.768,4.809-34.559,18.397-46.551
			c6.607-5.831,14.238-9.14,23.122-9.433c9.278-0.306,18.303,0.217,26.643,5.154c12.44,7.365,18.902,18.792,22.261,32.246
			C804.731,218.501,802.88,235.425,794.318,251.147z"/>
	</g>
	<path fill="#E9E9E9" d="M1264.142,157.559c-2.617-15.592-11.874-25.704-25.369-32.298c-12.523-6.118-26.221-7.023-39.913-7.09
		c-21.99-0.108-43.981-0.029-65.971-0.029c-1.769,0-3.538,0-5.448,0c0,3.127,0,5.586,0,8.723c2.484,0,4.477-0.172,6.431,0.03
		c8.245,0.853,16.305,2.538,19.134,11.742c1.713,5.574,3.138,11.515,3.135,17.29c-0.019,31.923-0.451,63.846-0.887,95.767
		c-0.142,10.365-6.401,18.688-15.074,20.328c-4.152,0.785-8.409,1.017-12.562,1.494c0,2.526,0,4.764,0,7.049
		c28.564,0,56.803,0,85.107,0c0-2.546,0-4.79,0-6.992c-3.854-0.503-7.411-1.041-10.986-1.419
		c-7.763-0.821-13.806-5.848-15.662-13.489c-3.726-15.34-1.456-30.892-2.08-46.802c6.43,0,12.254,0.362,18.014-0.084
		c8.824-0.684,17.822-1.041,26.354-3.134c13.025-3.195,24.159-9.786,30.897-22.25
		C1264.189,177.277,1265.884,167.934,1264.142,157.559z M1230.014,183.894c-5.095,8.169-12.791,12.279-21.967,13.095
		c-7.734,0.687-15.577,0.141-23.701,0.141c0-21.432,0-42.484,0-64.697c9.592,0.471,18.857,0.46,28.005,1.488
		c12.402,1.393,19.891,12.541,21.817,23.566C1235.768,166.637,1235.154,175.654,1230.014,183.894z"/>
	<path fill="none" d="M1212.352,132.535c-9.148-1.028-18.413-1.017-28.005-1.488c0,22.213,0,43.265,0,64.697
		c8.124,0,15.967,0.546,23.701-0.141c9.177-0.816,16.872-4.926,21.967-13.095c5.139-8.24,5.754-17.258,4.155-26.407
		C1232.242,145.075,1224.754,133.928,1212.352,132.535z"/>
	<path fill="#E9E9E9" d="M1120.135,207.948c-2.381-14.582-8.493-26.784-20.11-36.039c-14.973-11.928-32.617-15.667-51.146-15.924
		c-22.32-0.309-44.648-0.073-66.973-0.073c-1.774,0-3.548,0-5.294,0c0,2.892,0,5.135,0,7.723c2.29,0,4.292-0.22,6.231,0.038
		c9.052,1.204,14.638,2.5,16.506,13.401c0.994,5.8,1.864,11.717,1.842,17.578c-0.077,20.432-0.144,40.881-1.083,61.284
		c-0.465,10.103-4.535,15.692-14.964,16.904c-10,1.162-19.872-0.628-27.47-7.155c-13.503-11.6-26.157-24.187-39.897-37.044
		c5.015-1.715,8.4-2.733,11.681-4.018c13.962-5.469,23.269-15.137,24.354-30.473c0.922-13.025-5.279-23.074-16.185-30.206
		c-8.674-5.672-18.522-7.716-28.53-7.901c-22.484-0.416-44.98-0.13-67.471-0.13c-1.624,0-3.248,0-5.097,0c0,2.745,0,4.984,0,7.724
		c2.342,0,4.482-0.149,6.596,0.025c10.101,0.833,15.133,4.252,17.025,14.309c0.848,4.508,1.047,9.184,1.091,13.789
		c0.134,13.993,0.163,27.99,0.004,41.983c-0.09,7.937-0.303,15.899-1.066,23.792c-0.624,6.449-4.18,13.7-12.236,14.502
		c-3.725,0.371-7.434,0.896-11.401,1.381c0,2.208,0,4.447,0,6.832c25.217,0,50.244,0,75.084,0c0-2.628,0-4.866,0-7.338
		c-2.366,0-4.354,0.033-6.34-0.006c-9.623-0.188-15.287-4.719-16.262-13.062c-1.181-10.11-1.742-20.292-2.572-30.443
		c0.489-0.451,0.978-0.903,1.467-1.354c2.172,0.785,5.142,0.921,6.39,2.456c10.86,13.358,21.615,26.814,31.965,40.569
		c4.835,6.425,9.714,10.02,18.648,9.838c33.806-0.688,67.635-0.373,101.455-0.226c12.302,0.053,24.198-1.64,35.737-5.975
		c17.101-6.424,29.577-17.605,35.387-35.168C1120.879,229.331,1121.912,218.826,1120.135,207.948z M887.183,217.611
		c0-17.364,0-33.307,0-49.903c8.978,0.106,17.99-1.512,26.383,2.228c7.056,3.144,10.781,9.413,12.251,16.859
		c2.114,10.709-1.525,24.551-14.626,28.299C903.764,217.219,895.613,216.818,887.183,217.611z M1086.374,243.044
		c-5.678,15.219-17.119,23.216-32.921,24.774c-5.961,0.588-12.028,0.143-18.047,0.094c-4.544-0.037-6.15-3.548-7.155-6.976
		c-0.909-3.103-1.177-6.485-1.188-9.745c-0.086-26.798-0.048-53.597-0.038-80.395c0-0.813,0.107-1.626,0.275-4.015
		c10.94,0.95,21.538,1.077,31.821,2.941c17.754,3.218,26.762,15.852,29.937,32.466
		C1091.666,215.824,1091.375,229.639,1086.374,243.044z"/>
	<path fill="#E9E9E9" d="M1322.362,227.685c1.008,12.442,1.374,23.479,2.974,34.335c0.996,6.76,7.523,10.694,15.142,10.905
		c2.306,0.064,4.615,0.01,7.222,0.01c0,2.602,0,4.845,0,7.409c-24.913,0-49.823,0-75.071,0c0-2.244,0-4.482,0-6.891
		c3.622-0.443,7.4-0.57,11.01-1.415c8.523-1.996,12.467-6.862,12.625-15.459c0.407-22.096,0.762-44.193,0.965-66.292
		c0.039-4.26-0.282-8.62-1.18-12.773c-2.481-11.479-7.605-12.701-17.209-13.821c-1.947-0.227-3.943-0.033-6.231-0.033
		c0-2.592,0-4.835,0-7.723c1.752,0,3.527,0,5.301,0c21.661,0,43.322-0.115,64.981,0.048c10.952,0.083,21.533,2.02,30.948,8.181
		c10.757,7.039,16.855,16.957,15.992,29.805c-1.03,15.345-10.27,25.073-24.179,30.645c-3.315,1.328-6.777,2.291-11.8,3.966
		c13.711,12.884,26.323,25.774,40.119,37.24c6.456,5.366,14.771,8.554,24.32,6.387c7.127-1.618,10.254-5.971,11.756-12.151
		c0.885-3.64,1.17-7.5,1.19-11.264c0.109-20.66,0.113-41.322-0.007-61.982c-0.021-3.587-0.456-7.257-1.313-10.738
		c-2.009-8.155-7.293-12.107-15.936-12.404c-1.983-0.068-3.971-0.01-6.321-0.01c0-2.487,0-4.728,0-7.356
		c36.405,0,72.978,0,109.984,0c0.838,11.421,1.689,23.016,2.568,34.997c-2.38,0-4.281,0-6.636,0c-0.725-2.539-1.606-5.303-2.3-8.112
		c-2.028-8.216-8.109-13.964-17.147-14.386c-11.73-0.547-23.504-0.134-35.692-0.134c0,12.708,0,26.225,0,40.849
		c6.834-0.794,13.563-1.048,20.035-2.471c6.973-1.533,9.661-5.686,9.808-12.793c0.047-2.288,0.007-4.577,0.007-7.073
		c2.753,0,4.992,0,7.477,0c0,18.82,0,37.398,0,56.226c-2.471,0-4.71,0-7.481,0c0-2.805,0.132-5.433-0.024-8.045
		c-0.51-8.534-4.957-12.948-14.225-13.626c-5.105-0.373-10.259-0.067-16.887-0.067c0.938,12.584,1.564,24.705,2.851,36.755
		c0.678,6.352,5.577,9.227,11.487,9.425c9.855,0.329,19.749,0.47,29.589-0.033c9.921-0.507,15.852-6.335,18.172-16.816
		c0.896-4.049,1.895-7.522,8.068-5.457c-0.75,11.389-1.514,23.005-2.311,35.114c-2.392,0-4.347,0-6.302,0
		c-45.821,0-91.646-0.333-137.458,0.282c-9.103,0.122-14.077-3.384-19.028-10.005c-10.312-13.789-21.137-27.202-32.029-40.543
		C1328.966,228.897,1325.956,228.861,1322.362,227.685z M1323.195,216.934c5.656,0,10.804,0.3,15.905-0.064
		c10.035-0.716,18.145-4.831,21.522-14.951c3.297-9.88,2.552-19.347-5.024-27.368c-9.307-9.854-21.177-6.154-32.403-6.864
		C1323.195,184.412,1323.195,200.326,1323.195,216.934z"/>
</g>
</svg>
